<svg id="图层_1" data-name="图层 1" xmlns="http://www.w3.org/2000/svg" xmlns:xlink="http://www.w3.org/1999/xlink" viewBox="0 0 1132.01 515.04"><defs><style>.cls-1{fill:url(#未命名的渐变_19);}.cls-2{fill:#fff;}.cls-3{fill:#222;}</style><linearGradient id="未命名的渐变_19" x1="96.15" y1="412.3" x2="400.37" y2="102.73" gradientUnits="userSpaceOnUse"><stop offset="0.17" stop-color="#5f23f0"/><stop offset="0.59" stop-color="#ae348f"/><stop offset="0.86" stop-color="#e64145"/></linearGradient></defs><rect class="cls-1" x="75.39" y="84.64" width="345.75" height="345.75" rx="66.3"/><path class="cls-2" d="M384.67,231.23a11.78,11.78,0,0,0-12.86-10.62c-2,.24-50,5-76.4-48.28a11.44,11.44,0,0,0-15.67-5.22,12.27,12.27,0,0,0-5,16.24c8.79,17.71,19.52,30.37,30.66,39.41a11,11,0,0,0-1,1.79c-.21.47-21,46.87-79.11,42.92-16.86-1.83-44.31-10.5-63.19-45.23a11.43,11.43,0,0,0-15.85-4.59,12.3,12.3,0,0,0-4.44,16.42c9.44,17.36,20.63,29.58,32.09,38.18L146.6,323.71a12.27,12.27,0,0,0,4.6,16.37,11.29,11.29,0,0,0,5.59,1.49A11.6,11.6,0,0,0,167,335.32L194.22,284a99.86,99.86,0,0,0,28.31,7.4,8.78,8.78,0,0,0,1,.13l.47,0c3.43.33,6.54.45,9.22.45a70.06,70.06,0,0,0,10.55-.69l.1,0A102.93,102.93,0,0,0,272,284.61l26.63,51.83a11.58,11.58,0,0,0,10.28,6.39,11.25,11.25,0,0,0,5.46-1.41,12.29,12.29,0,0,0,4.81-16.32l-26.56-51.68a103.8,103.8,0,0,0,32.65-38.11,100.24,100.24,0,0,0,42.24,9.61,60.58,60.58,0,0,0,7-.35A12,12,0,0,0,384.67,231.23Z"/><path class="cls-3" d="M710,229.79v-.07c-.22,0-.44,0-.66,0s-.44,0-.66,0v.07a45.82,45.82,0,0,0-44.53,45.79v65h24.7V275.08a20.49,20.49,0,1,1,41,0v65.46h24.7v-65A45.82,45.82,0,0,0,710,229.79Z"/><polygon class="cls-3" points="600.84 200.46 499.43 200.46 499.43 223.7 537.1 223.7 537.1 340.54 563.32 340.54 563.32 223.7 600.84 223.7 600.84 200.46"/><rect class="cls-3" x="573.72" y="272.02" width="110.81" height="26.22" transform="translate(344 914.26) rotate(-90)"/><circle class="cls-3" cx="629.13" cy="207.95" r="13.82"/><path class="cls-3" d="M980.29,229.79v-.07c-.22,0-.43,0-.66,0s-.43,0-.66,0v.07a45.83,45.83,0,0,0-44.54,45.79v65h24.7V275.08a20.49,20.49,0,1,1,41,0v65.46h24.71v-65A45.83,45.83,0,0,0,980.29,229.79Z"/><polygon class="cls-3" points="871.1 200.46 769.68 200.46 769.68 223.7 807.35 223.7 807.35 340.54 833.57 340.54 833.57 223.7 871.1 223.7 871.1 200.46"/><rect class="cls-3" x="843.97" y="272.02" width="110.81" height="26.22" transform="translate(614.25 1184.51) rotate(-90)"/><circle class="cls-3" cx="899.38" cy="207.95" r="13.82"/></svg>