<svg width="1440" height="410" viewBox="0 0 1440 410" fill="none" xmlns="http://www.w3.org/2000/svg">
<g opacity="0.1">
<path d="M1401.04 60.7206H1403.92V62.9917H1406.79V64.3565H1409.66V66.6174H1412.53V40.4736H1409.66V38.2024H1406.79V36.8377H1403.92V34.5767H1389.59L1302.41 0L1057.79 38.62H1021.67V39.8421L1020.47 41.0439L1015.87 45.6372L1015.91 45.6779H1015.87V47.4908H1025.8V52.8581H1026.6V54.8237H1028.58V79.8574C1028.58 79.9185 1028.56 80.1324 1028.58 80.4176V80.4277C1028.61 80.9777 1028.78 81.7925 1029.4 82.261C1029.66 82.4647 1029.71 82.8211 1029.6 83.035C1029.51 83.2285 1029.31 83.2794 1029.01 83.198C1028.55 83.0758 1028.5 83.035 1028.42 82.8822C1028.39 82.8313 1028.44 82.3425 1028.45 82.3323L1027.81 82.4239C1027.71 82.6174 1027.44 82.9026 1027.59 83.2387C1027.76 83.6359 1028.16 83.9109 1028.78 84.084C1028.95 84.1248 1029.11 84.1553 1029.26 84.1553C1029.85 84.1553 1030.23 83.8192 1030.42 83.4424C1030.73 82.8008 1030.53 81.986 1029.95 81.5481C1029.45 81.1712 1029.25 80.2953 1029.26 79.9796V54.8135H1031.2V52.8479H1031.99V47.4806H1291.18V410.266H1293.01V403.31L1293.62 403.921L1296.95 407.241L1293.92 410.266H1296.49L1298.25 408.504V410.266H1300.97V408.504L1302.73 410.266H1305.3L1302.27 407.241L1305.6 403.921L1306.22 403.31V410.266H1308.03V47.4908H1401.03V60.7206H1401.04ZM1289.37 5.06174L1202.87 38.62H1078L1289.37 5.06174ZM1018.41 45.6779L1021.76 42.3272L1025.07 45.6372L1025.11 45.6779H1018.42H1018.41ZM1026.35 44.3539L1023.04 41.0439L1022.43 40.4227H1030.26L1029.65 41.0337L1026.34 44.3437L1026.35 44.3539ZM1027.6 45.6779L1027.64 45.6372L1030.95 42.3272L1034.26 45.6372L1034.3 45.6779H1027.61H1027.6ZM1032.22 41.0541L1031.61 40.4328H1039.44L1038.83 41.0439L1035.52 44.3539L1032.21 41.0439L1032.22 41.0541ZM1036.78 45.6779L1036.82 45.6372L1040.13 42.3272L1043.44 45.6372L1043.48 45.6779H1036.79H1036.78ZM1041.41 41.0541L1040.79 40.4328H1048.63L1048.02 41.0439L1044.71 44.3539L1041.4 41.0439L1041.41 41.0541ZM1045.96 45.6779L1046 45.6372L1049.31 42.3272L1052.66 45.6779H1045.97H1045.96ZM1050.58 41.0541L1049.97 40.4328H1057.84L1057.23 41.0439L1053.9 44.3743L1050.57 41.0541H1050.58ZM1055.18 45.6779L1058.53 42.3272L1061.84 45.6372L1061.88 45.6779H1055.19H1055.18ZM1059.8 41.0541L1059.19 40.4328H1067.02L1066.41 41.0439L1063.1 44.3539L1059.79 41.0439L1059.8 41.0541ZM1070.97 45.6779H1064.36L1064.4 45.6372L1067.71 42.3272L1070.98 45.5964L1070.94 45.6372L1070.98 45.6779H1070.97ZM1068.99 41.0541L1068.37 40.4328H1076.12L1075.51 41.0439L1072.24 44.3132L1068.98 41.0439L1068.99 41.0541ZM1073.54 45.6779L1073.58 45.6372L1073.54 45.5964L1076.81 42.3272L1080.12 45.6372L1080.16 45.6779H1073.55H1073.54ZM1078.09 41.0541L1077.48 40.4328H1085.31L1084.7 41.0439L1081.39 44.3539L1078.08 41.0439L1078.09 41.0541ZM1082.63 45.6779L1082.67 45.6372L1085.98 42.3272L1089.33 45.6779H1082.64H1082.63ZM1087.27 41.0541L1086.66 40.4328H1094.52L1093.91 41.0439L1090.58 44.3743L1087.25 41.0439L1087.27 41.0541ZM1091.85 45.6779L1095.2 42.3272L1098.51 45.6372L1098.55 45.6779H1091.86H1091.85ZM1096.48 41.0541L1095.87 40.4328H1103.7L1103.09 41.0439L1099.79 44.3539L1096.47 41.0439L1096.48 41.0541ZM1101.04 45.6779L1101.08 45.6372L1104.39 42.3272L1107.7 45.6372L1107.73 45.6779H1101.04ZM1105.67 41.0541L1105.06 40.4328H1112.89L1112.28 41.0439L1108.97 44.3539L1105.66 41.0439L1105.67 41.0541ZM1110.22 45.6779L1110.25 45.6372L1113.56 42.3272L1116.86 45.6372L1116.9 45.6779H1110.21H1110.22ZM1114.85 41.0541L1114.24 40.4328H1122.07L1121.46 41.0439L1118.15 44.3539L1114.84 41.0439L1114.85 41.0541ZM1119.4 45.6779L1119.44 45.6372L1122.75 42.3272L1126.1 45.6779H1119.41H1119.4ZM1124.03 41.0541L1123.42 40.4328H1131.28L1130.67 41.0439L1127.34 44.3743L1124.01 41.0541H1124.03ZM1128.62 45.6779L1131.97 42.3272L1135.28 45.6372L1135.32 45.6779H1128.63H1128.62ZM1133.25 41.0541L1132.64 40.4328H1140.47L1139.86 41.0439L1136.55 44.3539L1133.24 41.0439L1133.25 41.0541ZM1137.8 45.6779L1137.84 45.6372L1141.15 42.3272L1144.45 45.627L1144.49 45.6677H1137.81L1137.8 45.6779ZM1142.43 41.0541L1141.82 40.4328H1149.64L1149.03 41.0439L1145.73 44.3539L1142.43 41.0541ZM1146.98 45.6779L1147.02 45.6372L1150.32 42.3272L1153.63 45.6372L1153.67 45.6779H1146.99H1146.98ZM1151.59 41.0541L1150.98 40.4328H1158.81L1158.2 41.0439L1154.89 44.3539L1151.58 41.0439L1151.59 41.0541ZM1156.16 45.6779L1156.2 45.6372L1159.51 42.3272L1162.86 45.6779H1156.17H1156.16ZM1160.78 41.0541L1160.17 40.4328H1168.04L1167.43 41.0439L1164.11 44.3743L1160.78 41.0439V41.0541ZM1165.36 45.6779L1168.71 42.3272L1172.01 45.6372L1172.05 45.6779H1165.36ZM1170 41.0541L1169.39 40.4328H1177.22L1176.61 41.0439L1173.3 44.3539L1169.99 41.0439L1170 41.0541ZM1174.55 45.6779L1174.59 45.6372L1177.9 42.3272L1181.21 45.6372L1181.25 45.6779H1174.56H1174.55ZM1179.18 41.0541L1178.57 40.4328H1186.4L1185.79 41.0439L1182.48 44.3539L1179.18 41.0439V41.0541ZM1183.74 45.6779L1183.78 45.6372L1187.09 42.3272L1190.4 45.6372L1190.44 45.6779H1183.75H1183.74ZM1188.36 41.0541L1187.75 40.4328H1195.58L1194.97 41.0439L1191.66 44.3539L1188.35 41.0439L1188.36 41.0541ZM1192.91 45.6779L1192.95 45.6372L1196.26 42.3272L1199.61 45.6779H1192.92H1192.91ZM1197.55 41.0541L1196.93 40.4328H1204.81L1204.2 41.0439L1200.87 44.3743L1197.54 41.0541H1197.55ZM1202.13 45.6779L1205.48 42.3272L1208.79 45.6372L1208.83 45.6779H1202.14H1202.13ZM1206.76 41.0541L1206.15 40.4328H1213.98L1213.37 41.0439L1210.06 44.3539L1206.75 41.0439L1206.76 41.0541ZM1217.92 45.6779H1211.32L1211.36 45.6372L1214.67 42.3272L1217.94 45.5964L1217.89 45.6372L1217.94 45.6779H1217.92ZM1215.94 41.0541L1215.33 40.4328H1223.08L1222.47 41.0439L1219.2 44.3132L1215.93 41.0439L1215.94 41.0541ZM1220.49 45.6779L1220.52 45.6372L1220.48 45.5964L1223.75 42.3272L1227.06 45.6372L1227.1 45.6779H1220.49ZM1225.04 41.0541L1224.43 40.4328H1232.26L1231.65 41.0439L1228.34 44.3539L1225.03 41.0439L1225.04 41.0541ZM1229.6 45.6779L1229.64 45.6372L1232.95 42.3272L1236.3 45.6779H1229.61H1229.6ZM1234.22 41.0541L1233.61 40.4328H1241.48L1240.87 41.0439L1237.54 44.3743L1234.21 41.0439L1234.22 41.0541ZM1238.81 45.6779L1242.16 42.3272L1245.47 45.6372L1245.51 45.6779H1238.82H1238.81ZM1243.44 41.0541L1242.83 40.4328H1250.66L1250.05 41.0439L1246.74 44.3539L1243.43 41.0439L1243.44 41.0541ZM1247.99 45.6779L1248.03 45.6372L1251.34 42.3272L1254.65 45.6372L1254.69 45.6779H1248H1247.99ZM1252.62 41.0541L1252.01 40.4328H1259.84L1259.23 41.0439L1255.92 44.3539L1252.61 41.0439L1252.62 41.0541ZM1257.18 45.6779L1257.22 45.6372L1260.53 42.3272L1263.84 45.6372L1263.88 45.6779H1257.19H1257.18ZM1261.8 41.0541L1261.19 40.4328H1269.02L1268.41 41.0439L1265.1 44.3539L1261.79 41.0439L1261.8 41.0541ZM1266.35 45.6779L1266.39 45.6372L1269.7 42.3272L1273.05 45.6779H1266.36H1266.35ZM1270.99 41.0541L1270.38 40.4328H1278.25L1277.64 41.0439L1274.31 44.3743L1270.98 41.0439L1270.99 41.0541ZM1275.57 45.6779L1278.92 42.3272L1282.23 45.6372L1282.27 45.6779H1275.58H1275.57ZM1280.2 41.0541L1279.59 40.4328H1287.42L1286.81 41.0439L1283.5 44.3539L1280.19 41.0439L1280.2 41.0541ZM1291.19 45.6779H1284.76L1284.8 45.6372L1288.11 42.3272L1291.2 45.4233V45.6779H1291.19ZM1293.63 401.355L1293.02 401.966V394.134L1293.63 394.745L1296.94 398.045L1293.63 401.355ZM1293.63 54.9561L1296.94 58.2559L1293.63 61.5659L1293.02 62.177V54.345L1293.63 54.9561ZM1293.02 53.0006V47.4908H1293.89V46.0344L1296.94 49.0796L1293.63 52.3896L1293.02 53.0006ZM1293.63 64.1426L1296.94 67.4424L1293.63 70.7524L1293.02 71.3635V63.5315L1293.63 64.1426ZM1293.63 73.3189L1296.96 76.6493L1293.63 79.9796L1293.02 80.5907V72.718L1293.63 73.3291V73.3189ZM1293.63 82.536L1296.94 85.8358L1293.63 89.1458L1293.02 89.7568V81.9249L1293.63 82.536ZM1293.63 91.7225L1296.9 94.9917L1293.63 98.261L1293.02 98.8619V91.1114L1293.63 91.7225ZM1293.63 100.827L1296.94 104.127L1293.63 107.437L1293.02 108.048V100.216L1293.63 100.827ZM1293.63 110.004L1296.96 113.324L1293.63 116.654L1293.02 117.265V109.393L1293.63 110.004ZM1293.63 119.221L1296.94 122.531L1293.63 125.841L1293.02 126.442V118.61L1293.63 119.221ZM1293.63 128.407L1296.94 131.707L1293.63 135.017L1293.02 135.628V127.796L1293.63 128.407ZM1293.63 137.584L1296.94 140.884L1293.63 144.194L1293.02 144.805V136.973L1293.63 137.584ZM1293.63 146.77L1296.96 150.09L1293.63 153.421L1293.02 154.032V146.159L1293.63 146.77ZM1293.63 155.987L1296.94 159.287L1293.63 162.597L1293.02 163.208V155.376L1293.63 155.987ZM1293.63 165.164L1296.93 168.463L1293.63 171.763L1293.02 172.374V164.553L1293.63 165.164ZM1293.63 174.34L1296.94 177.64L1293.63 180.95L1293.02 181.561V173.729L1293.63 174.34ZM1293.63 183.516L1296.96 186.836L1293.63 190.167L1293.02 190.768V182.905L1293.63 183.516ZM1293.63 192.733L1296.94 196.033L1293.63 199.343L1293.02 199.954V192.122L1293.63 192.733ZM1293.63 201.91L1296.94 205.22L1293.63 208.53L1293.02 209.141V201.309L1293.63 201.92V201.91ZM1293.63 211.096L1296.94 214.396L1293.63 217.706L1293.02 218.317V210.485L1293.63 211.096ZM1293.63 220.283L1296.96 223.603L1293.63 226.933L1293.02 227.544V219.672L1293.63 220.283ZM1293.63 229.5L1296.94 232.799L1293.63 236.109L1293.02 236.71V228.878L1293.63 229.489V229.5ZM1293.63 238.676L1296.9 241.945L1293.63 245.215L1293.02 245.815V238.065L1293.63 238.676ZM1293.63 247.781L1296.94 251.091L1293.63 254.401L1293.02 255.012V247.18L1293.63 247.791V247.781ZM1293.63 256.957L1296.96 260.278L1293.63 263.608L1293.02 264.219V256.346L1293.63 256.957ZM1293.63 266.174L1296.94 269.474L1293.63 272.784L1293.02 273.395V265.563L1293.63 266.174ZM1293.63 275.361L1296.94 278.661L1293.63 281.971L1293.02 282.582V274.75L1293.63 275.361ZM1293.63 284.537L1296.94 287.847L1293.63 291.157L1293.02 291.768V283.936L1293.63 284.547V284.537ZM1293.63 293.724L1296.96 297.044L1295.93 298.073L1293.64 300.364L1293.03 300.975V293.102L1293.64 293.714L1293.63 293.724ZM1293.63 302.941L1296.94 306.241L1293.63 309.551L1293.02 310.162V302.33L1293.63 302.941ZM1293.63 312.117L1296.94 315.417L1293.63 318.727L1293.02 319.328V311.496L1293.63 312.107V312.117ZM1293.63 321.304L1296.94 324.614L1293.63 327.924L1293.02 328.525V320.693L1293.63 321.293V321.304ZM1293.63 330.48L1296.96 333.8L1293.63 337.13L1293.02 337.742V329.869L1293.63 330.48ZM1293.63 339.697L1296.94 343.007L1293.63 346.317L1293.02 346.928V339.096L1293.63 339.707V339.697ZM1293.63 348.884L1296.9 352.143L1293.63 355.412L1293.02 356.023V348.272L1293.63 348.884ZM1293.63 357.989L1296.94 361.299L1293.63 364.609L1293.02 365.22V357.388L1293.63 357.999V357.989ZM1293.63 367.165L1296.96 370.485L1293.63 373.815L1293.02 374.426V366.554L1293.63 367.165ZM1293.63 376.382L1296.94 379.692L1293.63 383.002L1293.02 383.613V375.781L1293.63 376.392V376.382ZM1293.63 385.568L1296.94 388.868L1293.63 392.178L1293.02 392.779V384.947L1293.63 385.558V385.568ZM1298.26 405.989L1294.91 402.648L1298.22 399.338L1298.26 399.297V405.989ZM1298.26 396.802L1298.22 396.761L1294.91 393.451L1298.22 390.141L1298.26 390.101V396.792V396.802ZM1298.26 387.626L1298.22 387.585L1294.91 384.275L1298.22 380.975L1298.26 380.934V387.626ZM1298.26 378.439L1298.22 378.398L1294.91 375.088L1298.26 371.738V378.429V378.439ZM1298.26 369.232L1294.91 365.882L1298.22 362.572L1298.26 362.531V369.232ZM1298.26 360.046L1298.22 360.005L1294.91 356.695L1298.18 353.426L1298.22 353.467L1298.26 353.436V360.046ZM1298.26 350.859L1298.22 350.819L1298.18 350.87L1294.91 347.6L1298.22 344.29L1298.26 344.25V350.859ZM1298.26 341.754L1298.22 341.714L1294.91 338.404L1298.26 335.053V341.744V341.754ZM1298.26 332.547L1294.91 329.197L1298.22 325.887L1298.26 325.846V332.537V332.547ZM1298.26 323.361L1298.22 323.33L1294.91 320.02L1298.22 316.71L1298.26 316.68V323.371V323.361ZM1298.26 314.185L1298.22 314.144L1294.91 310.834L1298.22 307.524L1298.26 307.483V314.174V314.185ZM1298.26 304.998L1298.22 304.957L1294.91 301.647L1297.2 299.346L1298.25 298.297V304.988L1298.26 304.998ZM1298.26 295.781L1294.91 292.44L1298.22 289.13L1298.26 289.09V295.781ZM1298.26 286.605L1298.22 286.564L1294.91 283.254L1298.22 279.944L1298.26 279.903V286.595V286.605ZM1298.26 277.418L1298.22 277.377L1294.91 274.067L1298.22 270.757L1298.26 270.717V277.408V277.418ZM1298.26 268.242L1298.22 268.201L1294.91 264.891L1298.26 261.54V268.232V268.242ZM1298.26 259.025L1294.91 255.674L1298.22 252.364L1298.26 252.334V259.025ZM1298.26 249.838L1298.22 249.798L1294.91 246.488L1298.18 243.218L1298.22 243.259L1298.26 243.218V249.828V249.838ZM1298.26 240.662L1298.22 240.621L1298.18 240.662L1294.91 237.393L1298.22 234.083L1298.26 234.052V240.662ZM1298.26 231.557L1298.22 231.516L1294.91 228.206L1298.26 224.855V231.547V231.557ZM1298.26 222.34L1294.91 218.989L1298.22 215.679L1298.26 215.638V222.33V222.34ZM1298.26 213.153L1298.22 213.113L1294.91 209.813L1298.22 206.503L1298.26 206.462V213.153ZM1298.26 203.977L1298.22 203.936L1294.91 200.626L1298.22 197.316L1298.26 197.286V203.977ZM1298.26 194.801L1298.22 194.76L1294.91 191.46L1298.26 188.109V194.811V194.801ZM1298.26 185.584L1294.91 182.233L1298.22 178.923L1298.26 178.882V185.574V185.584ZM1298.26 176.397L1298.22 176.356L1294.91 173.046L1298.21 169.747L1298.25 169.716V176.397H1298.26ZM1298.26 167.211L1298.22 167.17L1294.92 163.87L1298.23 160.56L1298.27 160.519V167.201L1298.26 167.211ZM1298.26 158.045L1298.22 158.004L1294.91 154.694L1298.26 151.353V158.045ZM1298.26 148.827L1294.91 145.477L1298.22 142.167L1298.26 142.136V148.827ZM1298.26 139.641L1298.22 139.6L1294.91 136.3L1298.22 132.99L1298.26 132.95V139.641ZM1298.26 130.465L1298.22 130.424L1294.91 127.114L1298.22 123.804L1298.26 123.773V130.465ZM1298.26 121.278L1298.22 121.237L1294.91 117.927L1298.26 114.577V121.268V121.278ZM1298.26 112.061L1294.91 108.71L1298.22 105.4L1298.26 105.37V112.061ZM1298.26 102.885L1298.22 102.844L1294.91 99.5341L1298.18 96.2648L1298.22 96.3055L1298.26 96.2648V102.875V102.885ZM1298.26 93.6983L1298.22 93.6575L1298.18 93.6983L1294.91 90.429L1298.22 87.119L1298.26 87.0885V93.6983ZM1298.26 84.6034L1298.22 84.5627L1294.91 81.2527L1298.26 77.902V84.5932V84.6034ZM1298.26 75.3864L1294.91 72.0356L1298.22 68.7257L1298.26 68.6849V75.3762V75.3864ZM1298.26 66.1999L1298.22 66.1591L1294.91 62.8491L1298.22 59.5391L1298.26 59.4984V66.1897V66.1999ZM1298.26 57.0236L1298.22 56.9828L1294.91 53.6728L1298.22 50.3628L1298.26 50.3323V57.0236ZM1298.26 47.837L1298.22 47.7963L1294.91 44.4863L1298.26 41.1356V47.8269V47.837ZM1298.08 38.7626L1293.63 43.2132L1292.59 44.2521L1289.39 41.0541L1288.12 39.7708V38.62H1211.64L1300.1 3.85996L1298.09 38.7626H1298.08ZM1303.28 3.75812L1380.95 34.5665H1309.39V36.3488L1308.19 38.1006L1305.06 42.6633L1301.25 38.844L1303.27 3.74793L1303.28 3.75812ZM1300.98 41.1458L1304.03 44.191L1303.61 44.802L1303.65 44.853H1303.61V45.2196L1301.02 47.7963L1300.98 47.837V41.1458ZM1300.98 50.3323L1301.02 50.373L1304.33 53.683L1301.02 56.993L1300.98 57.0337V50.3425V50.3323ZM1300.98 59.5086L1301.02 59.5493L1304.33 62.8593L1301.02 66.1693L1300.98 66.1999V59.5086ZM1300.98 68.6951L1301.02 68.7358L1304.33 72.0458L1300.98 75.3966V68.7053V68.6951ZM1300.98 77.902L1304.33 81.2527L1301.02 84.5627L1300.98 84.6034V77.9122V77.902ZM1300.98 87.0885L1301.02 87.1292L1304.33 90.4392L1301.06 93.7085L1301.02 93.6677L1300.98 93.7085V87.0987V87.0885ZM1300.98 96.275L1301.02 96.3157L1301.06 96.275L1304.33 99.5442L1301.02 102.854L1300.98 102.895V96.2852V96.275ZM1300.98 105.37L1301.02 105.411L1304.33 108.721L1300.98 112.071V105.38V105.37ZM1300.98 114.587L1304.33 117.938L1301.02 121.248L1300.98 121.278V114.587ZM1300.98 123.773L1301.02 123.814L1304.33 127.124L1301.02 130.434L1300.98 130.475V123.784V123.773ZM1300.98 132.95L1301.02 132.99L1304.33 136.3L1301.02 139.6L1300.98 139.641V132.95ZM1300.98 142.136L1301.02 142.177L1304.33 145.487L1300.98 148.838V142.146V142.136ZM1300.98 151.353L1304.33 154.694L1301.02 158.004L1300.98 158.045V151.353ZM1300.98 160.53L1301.02 160.57L1304.33 163.88L1301.03 167.19L1300.99 167.221V160.54L1300.98 160.53ZM1300.98 169.716L1301.02 169.757L1304.32 173.057L1301.01 176.367L1300.97 176.407V169.726L1300.98 169.716ZM1300.98 178.882L1301.02 178.923L1304.33 182.233L1300.98 185.584V178.892V178.882ZM1300.98 188.099L1304.33 191.45L1301.02 194.76L1300.98 194.801V188.099ZM1300.98 197.286L1301.02 197.316L1304.33 200.626L1301.02 203.936L1300.98 203.977V197.286ZM1300.98 206.462L1301.02 206.503L1304.33 209.813L1301.02 213.123L1300.98 213.164V206.472V206.462ZM1300.98 215.649L1301.02 215.689L1304.33 218.999L1300.98 222.35V215.659V215.649ZM1300.98 224.866L1304.33 228.216L1301.02 231.526L1300.98 231.567V224.876V224.866ZM1300.98 234.052L1301.02 234.093L1304.33 237.403L1301.06 240.672L1301.02 240.631L1300.98 240.672V234.062V234.052ZM1300.98 243.229L1301.02 243.269L1301.06 243.229L1304.33 246.498L1301.02 249.808L1300.98 249.849V243.239V243.229ZM1300.98 252.334L1301.02 252.374L1304.33 255.684L1300.98 259.035V252.344V252.334ZM1300.98 261.54L1304.33 264.891L1301.02 268.201L1300.98 268.232V261.54ZM1300.98 270.727L1301.02 270.768L1304.33 274.078L1301.02 277.388L1300.98 277.428V270.737V270.727ZM1300.98 279.913L1301.02 279.954L1304.33 283.264L1301.02 286.574L1300.98 286.615V279.924V279.913ZM1300.98 295.781V289.09L1301.02 289.13L1304.33 292.44L1300.98 295.791V295.781ZM1300.98 298.307L1302.03 299.356L1304.33 301.658L1301.02 304.968L1300.98 305.008V298.317V298.307ZM1300.98 307.493L1301.02 307.534L1304.33 310.844L1301.02 314.154L1300.98 314.195V307.503V307.493ZM1300.98 316.67L1301.02 316.71L1304.33 320.02L1301.02 323.33L1300.98 323.361V316.67ZM1300.98 325.856L1301.02 325.897L1304.33 329.207L1300.98 332.558V325.866V325.856ZM1300.98 335.063L1304.33 338.414L1301.02 341.724L1300.98 341.764V335.073V335.063ZM1300.98 344.25L1301.02 344.29L1304.33 347.6L1301.06 350.87L1301.02 350.819L1300.98 350.859V344.25ZM1300.98 353.436L1301.02 353.467L1301.06 353.426L1304.33 356.695L1301.02 360.005L1300.98 360.046V353.436ZM1300.98 362.531L1301.02 362.572L1304.33 365.871L1300.98 369.222V362.521V362.531ZM1300.98 371.748L1304.33 375.099L1301.02 378.409L1300.98 378.449V371.758V371.748ZM1300.98 380.934L1301.02 380.975L1304.33 384.275L1301.02 387.585L1300.98 387.616V380.924V380.934ZM1300.98 390.111L1301.02 390.151L1304.33 393.451L1301.02 396.761L1300.98 396.802V390.111ZM1300.98 405.989V399.297L1301.02 399.338L1304.33 402.648L1300.98 405.989ZM1306.23 401.966L1305.61 401.355L1302.3 398.045L1305.61 394.735L1306.23 394.124V401.955V401.966ZM1306.23 392.779L1305.61 392.168L1302.3 388.858L1305.61 385.548L1306.23 384.937V392.769V392.779ZM1306.23 383.603L1305.61 382.992L1302.3 379.692L1305.61 376.382L1306.23 375.781V383.613V383.603ZM1306.23 374.426L1305.61 373.815L1302.28 370.495L1305.61 367.165L1306.23 366.554V374.426ZM1306.23 365.199L1305.61 364.588L1302.3 361.288L1305.61 357.978L1306.23 357.367V365.199ZM1306.23 356.023L1305.61 355.412L1302.35 352.143L1305.61 348.873L1306.23 348.272V356.023ZM1306.23 346.918L1305.61 346.307L1302.3 343.007L1305.61 339.697L1306.23 339.086V346.918ZM1306.23 337.742L1305.61 337.13L1302.28 333.81L1305.61 330.49L1306.23 329.879V337.752V337.742ZM1306.23 328.525L1305.61 327.913L1302.3 324.614L1305.61 321.304L1306.23 320.703V328.535V328.525ZM1306.23 319.338L1305.61 318.727L1302.3 315.427L1305.61 312.117L1306.23 311.516V319.348V319.338ZM1306.23 310.162L1305.61 309.551L1302.3 306.251L1305.61 302.941L1306.23 302.34V310.172V310.162ZM1306.23 300.975L1305.61 300.364L1303.31 298.073L1302.28 297.044L1305.61 293.714L1306.23 293.113V300.985V300.975ZM1306.23 291.758L1305.61 291.147L1302.3 287.847L1305.61 284.537L1306.23 283.926V291.758ZM1306.23 282.582L1305.61 281.971L1302.3 278.671L1305.61 275.361L1306.23 274.75V282.582ZM1306.23 273.395L1305.61 272.784L1302.3 269.484L1305.61 266.174L1306.23 265.563V273.395ZM1306.23 264.219L1305.61 263.608L1302.28 260.288L1305.61 256.957L1306.23 256.346V264.219ZM1306.23 255.002L1305.61 254.391L1302.3 251.091L1305.61 247.781L1306.23 247.17V255.002ZM1306.23 245.815L1305.61 245.204L1302.35 241.945L1305.61 238.676L1306.23 238.065V245.815ZM1306.23 236.721L1305.61 236.109L1302.3 232.799L1305.61 229.489L1306.23 228.878V236.71V236.721ZM1306.23 227.534L1305.61 226.923L1302.28 223.603L1305.61 220.272L1306.23 219.672V227.544V227.534ZM1306.23 218.317L1305.61 217.706L1302.3 214.396L1305.61 211.096L1306.23 210.485V218.317ZM1306.23 209.13L1305.61 208.519L1302.3 205.22L1305.61 201.91L1306.23 201.299V209.13ZM1306.23 199.954L1305.61 199.343L1302.3 196.033L1305.61 192.723L1306.23 192.112V199.944V199.954ZM1306.23 190.768L1305.61 190.157L1302.28 186.836L1305.61 183.506L1306.23 182.895V190.757V190.768ZM1306.23 181.561L1305.61 180.95L1302.3 177.64L1305.61 174.33L1306.23 173.729V181.561ZM1306.23 172.374L1305.61 171.763L1302.31 168.463L1305.61 165.164L1306.23 164.553V172.374ZM1306.23 163.208L1305.61 162.597L1302.3 159.287L1305.61 155.977L1306.23 155.366V163.198V163.208ZM1306.23 154.022L1305.61 153.411L1302.28 150.09L1305.61 146.76L1306.23 146.159V154.032V154.022ZM1306.23 144.805L1305.61 144.194L1302.3 140.894L1305.61 137.584L1306.23 136.973V144.805ZM1306.23 135.628L1305.61 135.017L1302.3 131.717L1305.61 128.407L1306.23 127.806V135.638V135.628ZM1306.23 126.442L1305.61 125.831L1302.3 122.531L1305.61 119.221L1306.23 118.61V126.442ZM1306.23 117.265L1305.61 116.654L1302.28 113.334L1305.61 110.004L1306.23 109.393V117.265ZM1306.23 108.048L1305.61 107.437L1302.3 104.127L1305.61 100.827L1306.23 100.216V108.048ZM1306.23 98.8619L1305.61 98.2508L1302.35 94.9815L1305.61 91.7123L1306.23 91.1012V98.8517V98.8619ZM1306.23 89.767L1305.61 89.156L1302.3 85.846L1305.61 82.536L1306.23 81.9249V89.7568V89.767ZM1306.23 80.5805L1305.61 79.9694L1302.28 76.6493L1305.61 73.3189L1306.23 72.7078V80.5805ZM1306.23 71.3635L1305.61 70.7524L1302.3 67.4526L1305.61 64.1426L1306.23 63.5315V71.3635ZM1306.23 62.177L1305.61 61.5659L1302.3 58.2559L1305.61 54.9459L1306.23 54.3348V62.1668V62.177ZM1306.23 53.0006L1305.61 52.3896L1302.3 49.0796L1303.89 47.4908H1306.23V53.0006ZM1308.04 44.853V44.415H1306.82L1306.59 44.191L1309.48 39.9847L1312.78 44.802L1312.83 44.8631H1308.04V44.853ZM1310.76 38.1108L1310.15 37.2145H1317.98L1317.37 38.1108L1314.06 42.9281L1310.75 38.1108H1310.76ZM1315.31 44.853L1315.35 44.802L1318.66 39.9847L1321.97 44.802L1322.01 44.8631H1315.32L1315.31 44.853ZM1319.93 38.1108L1319.32 37.2145H1327.15L1326.54 38.1108L1323.23 42.9383L1319.92 38.1209L1319.93 38.1108ZM1324.5 44.853L1324.54 44.802L1327.85 39.9847L1331.16 44.802L1331.2 44.8631H1324.51L1324.5 44.853ZM1329.12 38.1108L1328.51 37.2145H1336.34L1335.73 38.1108L1332.42 42.9281L1329.11 38.1108H1329.12ZM1333.67 44.853L1333.71 44.802L1337.02 39.9847L1340.36 44.8631H1333.67V44.853ZM1338.3 38.1108L1337.69 37.2145H1345.56L1344.95 38.1108L1341.63 42.9586L1338.3 38.1108ZM1342.89 44.853L1346.24 39.9745L1349.55 44.7919L1349.59 44.853H1342.89ZM1347.52 38.1108L1346.91 37.2145H1354.74L1354.13 38.1108L1350.82 42.9281L1347.51 38.1108H1347.52ZM1358.69 44.853H1352.08L1352.12 44.802L1355.43 39.9847L1358.7 44.7409L1358.66 44.802L1358.69 44.853ZM1356.7 38.1108L1356.09 37.2145H1363.84L1363.23 38.1108L1359.96 42.8771L1356.69 38.1209L1356.7 38.1108ZM1361.25 44.853L1361.29 44.802L1361.25 44.7409L1364.52 39.9847L1367.83 44.802L1367.87 44.8631H1361.26L1361.25 44.853ZM1365.81 38.1108L1365.19 37.2145H1373.03L1372.42 38.1108L1369.11 42.9281L1365.8 38.1108H1365.81ZM1370.36 44.853L1370.4 44.802L1373.71 39.9847L1377.06 44.8631H1370.37L1370.36 44.853ZM1374.98 38.1108L1374.37 37.2145H1382.24L1381.63 38.1108L1378.3 42.9586L1374.98 38.1108ZM1379.57 44.853L1382.93 39.9745L1386.24 44.7919L1386.28 44.853H1379.59H1379.57ZM1384.2 38.1108L1383.59 37.2145H1391.42L1390.81 38.1108L1387.5 42.9281L1384.19 38.1108H1384.2ZM1388.75 44.853L1388.79 44.802L1392.1 39.9847L1395.41 44.802L1395.45 44.8631H1388.76L1388.75 44.853ZM1393.39 38.1108L1392.77 37.2145H1400.61L1399.99 38.1108L1396.68 42.9383L1393.38 38.1209L1393.39 38.1108ZM1397.94 44.853L1397.98 44.802L1401.04 40.331V44.853H1397.94Z" fill="url(#paint0_linear_17_2566)"/>
<path d="M1440 160.825H1334.85V410.266H1440V160.825Z" fill="url(#paint1_linear_17_2566)"/>
<path d="M402.271 198.986H292.349V410.276H402.271V198.986Z" fill="url(#paint2_linear_17_2566)"/>
<path d="M176.937 162.435H94.2279V128.52H295.526V132.686H296.137V134.213H297.645V153.758C297.645 154.002 297.492 154.684 297.105 154.969C296.657 155.316 296.494 155.947 296.738 156.446C296.881 156.731 297.186 156.996 297.645 156.996C297.757 156.996 297.879 156.976 298.011 156.945C298.49 156.813 298.806 156.599 298.938 156.293C299.05 156.039 298.847 155.805 298.765 155.662L298.266 155.591C298.266 155.591 298.307 155.988 298.286 156.018C298.225 156.141 298.185 156.171 297.828 156.273C297.594 156.334 297.441 156.293 297.37 156.141C297.288 155.978 297.329 155.693 297.533 155.54C298.011 155.173 298.144 154.542 298.164 154.114V154.073C298.174 153.87 298.164 153.717 298.164 153.666V134.223H299.702V132.696H300.313V128.53H308.023V127.125H307.992L308.023 127.094L304.458 123.53L303.521 122.593V121.645H275.463L85.4895 91.6519L17.7925 118.498H6.69128V120.26H4.46085V121.32H2.23043V123.082H0V143.39H2.23043V141.628H4.46085V140.568H6.69128V138.807H8.92171V128.54H81.1509V179.413H14.676V410.287H269.148V146.129H176.947V162.435H176.937ZM86.5996 164.38L86.5691 164.411L84.0331 161.875L86.5996 159.308L86.6302 159.278V164.411L86.5996 164.38ZM86.6302 166.407V171.54L86.5996 171.509L84.0331 168.943L86.5691 166.407L86.5996 166.437L86.6302 166.407ZM86.5996 157.312L84.0331 154.745L86.6302 152.148V157.342L86.5996 157.312ZM86.5996 143.023L84.0331 140.456L86.5996 137.89L86.6302 137.859V143.054L86.5996 143.023ZM86.6302 144.989V150.193L84.0331 147.596L86.5996 145.029L86.6302 144.999V144.989ZM86.5996 135.894L84.0331 133.327L86.5996 130.761L86.6302 130.73V135.924L86.5996 135.894ZM83.035 132.329L82.5563 132.808V128.53H84.3692L85.6015 129.763L83.035 132.329ZM83.035 134.325L85.6015 136.892L83.035 139.458L82.5563 139.927V133.847L83.035 134.325ZM83.035 141.455L85.6015 144.021L83.035 146.588L82.5563 147.056V140.976L83.035 141.455ZM83.035 148.584L85.6219 151.171L83.035 153.758L82.5563 154.226V148.115L83.035 148.584ZM83.035 155.744L85.6015 158.31L83.035 160.877L82.5563 161.345V155.265L83.035 155.744ZM83.035 162.873L85.571 165.409L83.035 167.945L82.5563 168.413V162.394L83.035 162.873ZM83.035 169.941L85.6015 172.507L83.035 175.074L82.5563 175.542V169.462L83.035 169.941ZM86.5996 173.505L86.6302 173.485V178.679L84.0331 176.082L86.5996 173.505ZM92.8122 128.52V132.798L92.3335 132.319L89.767 129.752L92.1299 127.39V128.52H92.8122ZM92.3437 160.877L89.7772 158.31L92.3437 155.744L92.8224 155.275V161.355L92.3437 160.877ZM92.3437 153.747L89.7568 151.171L92.3437 148.584L92.8224 148.115V154.226L92.3437 153.747ZM92.3437 146.588L89.7772 144.021L92.3437 141.455L92.8224 140.976V147.056L92.3437 146.577V146.588ZM92.3437 139.458L89.767 136.892L92.3437 134.325L92.8224 133.857V139.937L92.3437 139.458ZM88.7791 128.765L88.7486 128.795V123.591L91.3456 126.188L88.7791 128.754V128.765ZM88.7689 130.761L91.3355 133.327L88.7689 135.894L88.7384 135.924V130.73L88.7689 130.761ZM88.7689 137.89L91.3355 140.456L88.7689 143.023L88.7384 143.054V137.859L88.7689 137.89ZM88.7689 145.019L91.3355 147.586L88.7384 150.183V144.978L88.7689 145.009V145.019ZM91.3456 154.745L88.7791 157.312L88.7486 157.342V152.148L91.3456 154.745ZM88.7689 159.308L91.3355 161.875L90.7753 162.435H89.1967V164.013L88.8097 164.4L88.7791 164.37L88.7486 164.4V159.267L88.7791 159.298L88.7689 159.308ZM88.7689 166.437L88.7995 166.407L89.1865 166.794V171.092L88.7689 171.509L88.7384 171.54V166.407L88.7689 166.437ZM88.7689 173.505L89.1865 173.923V178.221L88.7384 178.669V173.475L88.7689 173.505ZM92.7715 162.435L92.8122 162.394V162.435H92.7715ZM94.2279 127.115V126.921L96.6314 124.518L99.198 127.084L99.2285 127.115H94.2279ZM97.6295 123.519L97.1509 123.041H103.231L102.752 123.519L100.186 126.096L97.6193 123.53L97.6295 123.519ZM101.164 127.115L101.194 127.084L103.761 124.518L106.358 127.115H101.164ZM104.759 123.519L104.29 123.041H110.401L109.922 123.519L107.335 126.106L104.749 123.519H104.759ZM108.323 127.115L110.92 124.518L113.487 127.084L113.518 127.115H108.323ZM111.919 123.519L111.44 123.041H117.52L117.041 123.519L114.475 126.096L111.908 123.53L111.919 123.519ZM115.453 127.115L115.483 127.084L118.05 124.518L120.616 127.084L120.647 127.115H115.453ZM119.048 123.519L118.569 123.041H124.649L124.171 123.519L121.604 126.096L119.038 123.53L119.048 123.519ZM122.582 127.115L122.612 127.084L125.179 124.518L127.745 127.084L127.776 127.115H122.582ZM126.177 123.519L125.698 123.041H131.778L131.3 123.519L128.723 126.096L126.157 123.53L126.177 123.519ZM129.711 127.115L129.742 127.084L132.308 124.518L134.905 127.115H129.701H129.711ZM133.306 123.519L132.827 123.041H138.938L138.46 123.519L135.873 126.106L133.286 123.519H133.306ZM136.871 127.115L139.468 124.518L142.034 127.084L142.065 127.115H136.871ZM140.466 123.519L139.987 123.041H146.067L145.589 123.519L143.022 126.096L140.456 123.53L140.466 123.519ZM149.133 127.115H144L144.031 127.084L146.597 124.518L149.133 127.054L149.102 127.084L149.133 127.115ZM147.595 123.519L147.116 123.041H153.136L152.657 123.519L150.121 126.055L147.585 123.519H147.595ZM151.129 127.115L151.16 127.084L151.129 127.054L153.665 124.518L156.232 127.084L156.262 127.115H151.129ZM154.663 123.519L154.185 123.041H160.265L159.786 123.519L157.22 126.096L154.653 123.53L154.663 123.519ZM158.208 127.115L158.238 127.084L160.805 124.518L163.402 127.115H158.197H158.208ZM161.792 123.519L161.324 123.041H167.435L166.956 123.519L164.369 126.106L161.782 123.519H161.792ZM165.357 127.115L167.954 124.518L170.521 127.084L170.551 127.115H165.347H165.357ZM168.952 123.519L168.474 123.041H174.554L174.075 123.519L171.509 126.096L168.942 123.53L168.952 123.519ZM172.496 127.115L172.527 127.084L175.094 124.518L177.66 127.084L177.691 127.115H172.496ZM176.081 123.519L175.603 123.041H181.683L181.204 123.519L178.638 126.096L176.071 123.53L176.081 123.519ZM179.626 127.115L179.656 127.084L182.223 124.518L184.789 127.084L184.82 127.115H179.626ZM183.221 123.519L182.742 123.041H188.822L188.344 123.519L185.777 126.096L183.211 123.53L183.221 123.519ZM186.755 127.115L186.785 127.084L189.352 124.518L191.949 127.115H186.745H186.755ZM190.35 123.519L189.871 123.041H195.982L195.514 123.519L192.927 126.106L190.34 123.519H190.35ZM193.915 127.115L196.512 124.518L199.078 127.084L199.109 127.115H193.915ZM197.51 123.519L197.031 123.041H203.111L202.633 123.519L200.066 126.096L197.5 123.53L197.51 123.519ZM201.044 127.115L201.074 127.084L203.641 124.518L206.208 127.084L206.238 127.115H201.054H201.044ZM204.639 123.519L204.16 123.041H210.23L209.752 123.519L207.185 126.086L204.619 123.519H204.639ZM208.173 127.115L208.204 127.084L210.77 124.518L213.337 127.084L213.367 127.115H208.173ZM211.758 123.519L211.279 123.041H217.36L216.881 123.519L214.304 126.096L211.738 123.53L211.758 123.519ZM215.292 127.115L215.323 127.084L217.889 124.518L220.486 127.115H215.292ZM218.887 123.519L218.409 123.041H224.519L224.041 123.519L221.454 126.106L218.867 123.519H218.887ZM222.452 127.115L225.049 124.518L227.616 127.084L227.646 127.115H222.452ZM226.047 123.519L225.568 123.041H231.649L231.17 123.519L228.603 126.096L226.037 123.53L226.047 123.519ZM229.581 127.115L229.612 127.084L232.178 124.518L234.745 127.084L234.775 127.115H229.581ZM233.176 123.519L232.698 123.041H238.778L238.299 123.519L235.733 126.096L233.166 123.53L233.176 123.519ZM236.721 127.115L236.751 127.084L239.318 124.518L241.884 127.084L241.915 127.115H236.721ZM240.306 123.519L239.827 123.041H245.907L245.428 123.519L242.852 126.096L240.285 123.53L240.306 123.519ZM243.85 127.115L243.88 127.084L246.447 124.518L249.044 127.115H243.84H243.85ZM247.445 123.519L246.966 123.041H253.077L252.609 123.519L250.022 126.106L247.435 123.519H247.445ZM250.999 127.115L253.596 124.518L256.163 127.084L256.194 127.115H250.999ZM306.088 127.115H300.884L300.914 127.084L303.481 124.518L306.078 127.115H306.088ZM302.961 123.041L302.482 123.519L299.916 126.096L297.349 123.53L296.871 123.051H302.951L302.961 123.041ZM298.928 127.084L298.959 127.115H293.764L293.795 127.084L296.362 124.518L298.928 127.084ZM295.832 123.041L295.353 123.519L292.777 126.096L290.21 123.53L289.731 123.051H295.812L295.832 123.041ZM291.789 127.084L291.819 127.115H286.625L286.656 127.084L289.222 124.518L291.789 127.084ZM288.703 123.041L288.224 123.519L285.658 126.096L283.091 123.53L282.623 123.051H288.703V123.041ZM284.659 127.084L284.69 127.115H279.496L282.093 124.518L284.659 127.084ZM281.574 123.041L281.095 123.519L278.508 126.106L275.921 123.519L275.442 123.041H281.553H281.574ZM277.53 127.115H272.326L272.356 127.084L274.923 124.518L277.52 127.115H277.53ZM274.404 123.041L273.925 123.519L271.348 126.096L268.782 123.53L268.303 123.051H274.383L274.404 123.041ZM270.37 127.084L270.401 127.115H265.268L265.299 127.084L265.268 127.054L267.804 124.518L270.37 127.084ZM267.274 123.041L266.796 123.519L264.26 126.055L261.724 123.519L261.245 123.041H267.264H267.274ZM263.272 127.054L263.241 127.084L263.272 127.115H258.139L258.169 127.084L260.736 124.518L263.272 127.054ZM259.738 123.519L257.171 126.086L254.605 123.519L254.126 123.041H260.206L259.728 123.519H259.738ZM259.809 121.635H162.831L95.6537 95.5729L259.809 121.635ZM156.018 121.635H96.6213V122.521L95.6232 123.509L93.1381 125.994L92.3335 125.19L88.881 121.737L87.3125 94.6258L156.018 121.625V121.635ZM86.6302 128.795L86.5996 128.765L84.5932 126.758V126.473H84.5627L84.5932 126.432L84.2673 125.954L86.6302 123.591V128.795ZM84.8377 94.5545L86.4163 121.808L83.4526 124.772L81.0185 121.228L80.0917 119.863V118.478H24.5245L84.8377 94.5443V94.5545ZM8.92171 126.473V122.959L11.3049 126.422L11.3355 126.463H8.92171V126.473ZM9.72629 121.238L9.24761 120.546H15.3278L14.8491 121.238L12.2826 124.986L9.7161 121.248L9.72629 121.238ZM13.2603 126.473L13.2909 126.432L15.8574 122.684L18.4239 126.422L18.4545 126.463H13.2603V126.473ZM16.8555 121.238L16.3768 120.546H22.457L21.9784 121.238L19.4118 124.986L16.8453 121.248L16.8555 121.238ZM20.3896 126.473L20.4201 126.432L22.9866 122.684L25.5837 126.473H20.3896ZM23.9847 121.238L23.506 120.546H29.6168L29.1381 121.238L26.5512 125.006L23.9644 121.248L23.9847 121.238ZM27.5493 126.473L30.1464 122.684L32.7129 126.422L32.7435 126.463H27.5493V126.473ZM31.1445 121.238L30.6658 120.546H36.746L36.2673 121.238L33.7008 124.986L31.1343 121.248L31.1445 121.238ZM39.8218 126.473H34.6887L34.7193 126.432L37.2858 122.684L39.8218 126.381L39.7912 126.432L39.8218 126.473ZM38.2737 121.238L37.795 120.546H43.8141L43.3355 121.238L40.7995 124.935L38.2635 121.238H38.2737ZM41.818 126.473L41.8485 126.432L41.818 126.381L44.3539 122.684L46.9204 126.422L46.951 126.463H41.818V126.473ZM45.3418 121.238L44.8631 120.546H50.9433L50.4647 121.238L47.8982 124.986L45.3316 121.248L45.3418 121.238ZM48.8759 126.473L48.9064 126.432L51.4729 122.684L54.07 126.473H48.8657H48.8759ZM52.4812 121.238L52.0025 120.546H58.1133L57.6346 121.238L55.0477 125.006L52.471 121.248L52.4812 121.238ZM56.0356 126.473L58.6327 122.684L61.1992 126.422L61.2298 126.463H56.0255L56.0356 126.473ZM59.6308 121.238L59.1521 120.546H65.2323L64.7537 121.238L62.1871 124.986L59.6206 121.248L59.6308 121.238ZM63.175 126.473L63.2056 126.432L65.7721 122.684L68.3386 126.422L68.3692 126.463H63.175V126.473ZM66.7702 121.238L66.2915 120.546H72.3717L71.8931 121.238L69.3265 124.986L66.76 121.248L66.7702 121.238ZM70.3043 126.473L70.3348 126.432L72.9013 122.684L75.4678 126.422L75.4984 126.463H70.3043V126.473ZM73.8994 121.238L73.4207 120.546H79.501L79.0223 121.238L76.4558 124.986L73.8892 121.248L73.8994 121.238ZM77.4335 126.473L77.464 126.432L80.0306 122.684L82.2712 125.954L82.098 126.127H81.1509V126.473H77.4335ZM82.5563 176.591L83.035 177.07L85.3673 179.392H82.5563V176.591Z" fill="url(#paint3_linear_17_2566)"/>
<path d="M1171.91 168.545H1123.36V129.762H990.849V263.292H989.148V109.81H845.484V209.242H813.647V178.454H749.861V410.276H791.863H813.647H845.484H921.319H926.931H989.148H990.849H1037.09H1120.11H1123.36H1171.91H1189.5H1266.4V117.428H1171.91V168.545Z" fill="url(#paint4_linear_17_2566)"/>
<path d="M526.554 182.896H421.408V410.277H447.155H526.554H531.901V193.518H526.554V182.896Z" fill="url(#paint5_linear_17_2566)"/>
<path d="M685.963 148.074H536.402V410.277H636.741H685.963H721.487V193.518H685.963V148.074Z" fill="url(#paint6_linear_17_2566)"/>
</g>
<defs>
<linearGradient id="paint0_linear_17_2566" x1="1214.21" y1="0" x2="1214.21" y2="410.276" gradientUnits="userSpaceOnUse">
<stop stop-color="#F80559"/>
<stop offset="0.04" stop-color="#F82967"/>
<stop offset="0.09" stop-color="#F95177"/>
<stop offset="0.15" stop-color="#F97486"/>
<stop offset="0.21" stop-color="#FA9292"/>
<stop offset="0.28" stop-color="#FAAA9C"/>
<stop offset="0.36" stop-color="#FABDA3"/>
<stop offset="0.45" stop-color="#FACAA9"/>
<stop offset="0.57" stop-color="#FAD1AC"/>
<stop offset="0.81" stop-color="#FBD4AD"/>
<stop offset="1" stop-color="white"/>
</linearGradient>
<linearGradient id="paint1_linear_17_2566" x1="1387.43" y1="160.825" x2="1387.43" y2="-0.000228839" gradientUnits="userSpaceOnUse">
<stop stop-color="#F80559"/>
<stop offset="0.04" stop-color="#F82967"/>
<stop offset="0.09" stop-color="#F95177"/>
<stop offset="0.15" stop-color="#F97486"/>
<stop offset="0.21" stop-color="#FA9292"/>
<stop offset="0.28" stop-color="#FAAA9C"/>
<stop offset="0.36" stop-color="#FABDA3"/>
<stop offset="0.45" stop-color="#FACAA9"/>
<stop offset="0.57" stop-color="#FAD1AC"/>
<stop offset="0.81" stop-color="#FBD4AD"/>
<stop offset="1" stop-color="white"/>
</linearGradient>
<linearGradient id="paint2_linear_17_2566" x1="347.315" y1="198.986" x2="347.315" y2="-0.0002883" gradientUnits="userSpaceOnUse">
<stop stop-color="#F80559"/>
<stop offset="0.04" stop-color="#F82967"/>
<stop offset="0.09" stop-color="#F95177"/>
<stop offset="0.15" stop-color="#F97486"/>
<stop offset="0.21" stop-color="#FA9292"/>
<stop offset="0.28" stop-color="#FAAA9C"/>
<stop offset="0.36" stop-color="#FABDA3"/>
<stop offset="0.45" stop-color="#FACAA9"/>
<stop offset="0.57" stop-color="#FAD1AC"/>
<stop offset="0.81" stop-color="#FBD4AD"/>
<stop offset="1" stop-color="white"/>
</linearGradient>
<linearGradient id="paint3_linear_17_2566" x1="154.022" y1="91.6417" x2="154.022" y2="0.000683555" gradientUnits="userSpaceOnUse">
<stop stop-color="#F80559"/>
<stop offset="0.04" stop-color="#F82967"/>
<stop offset="0.09" stop-color="#F95177"/>
<stop offset="0.15" stop-color="#F97486"/>
<stop offset="0.21" stop-color="#FA9292"/>
<stop offset="0.28" stop-color="#FAAA9C"/>
<stop offset="0.36" stop-color="#FABDA3"/>
<stop offset="0.45" stop-color="#FACAA9"/>
<stop offset="0.57" stop-color="#FAD1AC"/>
<stop offset="0.81" stop-color="#FBD4AD"/>
<stop offset="1" stop-color="white"/>
</linearGradient>
<linearGradient id="paint4_linear_17_2566" x1="1008.13" y1="109.81" x2="1008.13" y2="-0.000241489" gradientUnits="userSpaceOnUse">
<stop stop-color="#F80559"/>
<stop offset="0.04" stop-color="#F82967"/>
<stop offset="0.09" stop-color="#F95177"/>
<stop offset="0.15" stop-color="#F97486"/>
<stop offset="0.21" stop-color="#FA9292"/>
<stop offset="0.28" stop-color="#FAAA9C"/>
<stop offset="0.36" stop-color="#FABDA3"/>
<stop offset="0.45" stop-color="#FACAA9"/>
<stop offset="0.57" stop-color="#FAD1AC"/>
<stop offset="0.81" stop-color="#FBD4AD"/>
<stop offset="1" stop-color="white"/>
</linearGradient>
<linearGradient id="paint5_linear_17_2566" x1="476.649" y1="182.896" x2="476.649" y2="0.000539894" gradientUnits="userSpaceOnUse">
<stop stop-color="#F80559"/>
<stop offset="0.04" stop-color="#F82967"/>
<stop offset="0.09" stop-color="#F95177"/>
<stop offset="0.15" stop-color="#F97486"/>
<stop offset="0.21" stop-color="#FA9292"/>
<stop offset="0.28" stop-color="#FAAA9C"/>
<stop offset="0.36" stop-color="#FABDA3"/>
<stop offset="0.45" stop-color="#FACAA9"/>
<stop offset="0.57" stop-color="#FAD1AC"/>
<stop offset="0.81" stop-color="#FBD4AD"/>
<stop offset="1" stop-color="white"/>
</linearGradient>
<linearGradient id="paint6_linear_17_2566" x1="628.939" y1="148.074" x2="628.939" y2="0.000382494" gradientUnits="userSpaceOnUse">
<stop stop-color="#F80559"/>
<stop offset="0.04" stop-color="#F82967"/>
<stop offset="0.09" stop-color="#F95177"/>
<stop offset="0.15" stop-color="#F97486"/>
<stop offset="0.21" stop-color="#FA9292"/>
<stop offset="0.28" stop-color="#FAAA9C"/>
<stop offset="0.36" stop-color="#FABDA3"/>
<stop offset="0.45" stop-color="#FACAA9"/>
<stop offset="0.57" stop-color="#FAD1AC"/>
<stop offset="0.81" stop-color="#FBD4AD"/>
<stop offset="1" stop-color="white"/>
</linearGradient>
</defs>
</svg>
