<svg xmlns="http://www.w3.org/2000/svg" viewBox="0 0 2040.7 307.53"><defs><style>.cls-1{fill:#ffa904;}</style></defs><title>asfa资源 6</title><g id="图层_2" data-name="图层 2"><g id="图层_1-2" data-name="图层 1"><rect class="cls-1" x="234.23" width="60.55" height="36.33"/><polygon class="cls-1" points="307.53 60.55 307.53 96.88 359.63 96.88 359.63 271.2 307.53 271.2 307.53 307.53 395.96 307.53 395.96 275.9 395.96 271.2 395.96 96.88 395.96 94.2 395.96 60.55 307.53 60.55"/><polygon class="cls-1" points="88.43 60.55 88.43 96.88 36.33 96.88 36.33 271.2 88.43 271.2 88.43 307.53 0 307.53 0 275.9 0 271.2 0 96.88 0 94.2 0 60.55 88.43 60.55"/><path class="cls-1" d="M198.22,75.42A107.72,107.72,0,1,0,305.94,183.13,107.71,107.71,0,0,0,198.22,75.42Zm0,186a78.26,78.26,0,1,1,78.25-78.26A78.25,78.25,0,0,1,198.22,261.39Z"/><path d="M1103.83,223.46V76.25h41.78V279.87h-40c-13.93,0-13.73-.11-20.35-12.14-12.6-22.88-25.51-45.59-38.18-68.43-9.17-16.53-18.12-33.18-27.25-49.74-2.57-4.67-5.41-9.2-8.86-15.05V279.62H967.93v-4.75q0-96.49-.11-193c0-4.91,1.47-6.2,6.23-6.12,15.16.28,30.33.16,45.49.06,3.07,0,5.22.57,6.76,3.66,3.33,6.69,7.17,13.13,10.68,19.73,9.36,17.58,18.61,35.22,28,52.78q18.71,35,37.56,70A13,13,0,0,0,1103.83,223.46Z"/><path d="M1391.94,178.58a142.16,142.16,0,0,1,6.16-46.65c7.13-23.08,22.05-39.76,44.53-48.72,11.8-4.7,24.44-6.43,37.26-7.6a140,140,0,0,1,57.69,6.64c26,8.67,42,27.12,49.15,53.11,2.82,10.32,3.63,21.2,5.15,31.86a87,87,0,0,1,1,13.29c-.2,17.62-2.12,35.17-9.18,51.38-8.41,19.28-22.38,33.45-42.42,41.39-18.71,7.4-38.15,8.48-57.74,7.43a118.11,118.11,0,0,1-45.74-11.51c-20.58-10.05-33.33-26.67-40-48.42A132.77,132.77,0,0,1,1391.94,178.58Zm48-1.26a187.58,187.58,0,0,0,4.11,30.68c3.39,16.45,11.59,29.77,28.78,34.67a68.76,68.76,0,0,0,37.64.3c12.6-3.47,21.31-11.2,26.29-22.95,4.69-11.07,6.44-23,7-34.86.75-15.47-.7-30.83-5.85-45.61-4.59-13.15-13.32-22.5-26.73-26.37a68.4,68.4,0,0,0-32.25-1.27c-15.12,3-26.33,10.88-32.08,25.69A99.13,99.13,0,0,0,1440,177.32Z"/><path d="M856.31,180.12c-.34,20.91-3,41.21-13.41,59.8-10.24,18.34-25.9,29.83-45.8,36-16.15,5-32.77,5.86-49.39,4.85-21.3-1.29-41.76-6.46-59.27-19.23-12.11-8.84-20.36-21.09-25.5-35.24-4.26-11.74-6.32-23.82-7.23-36.36A161.35,161.35,0,0,1,661,134.4c6.89-24.75,21.93-42.41,46.28-51.46,11.54-4.29,23.57-6,35.85-7.28a140.51,140.51,0,0,1,50.23,4.25c31.29,8.18,50.87,27.92,57.66,59.83,1.42,6.68,3,13.37,3.87,20.13S855.85,173.37,856.31,180.12Zm-49.4-2.79a101,101,0,0,0-6-38.66c-3.88-10.75-10.34-19.22-21.35-23.5-13.08-5.08-26.35-5.51-40.05-2.43-14.66,3.29-25,11.73-29.36,25.72a140.44,140.44,0,0,0-6,32.58c-1.07,16.26.67,32.43,6.68,47.9,4.84,12.47,13.72,20.3,26.43,23.93a68.25,68.25,0,0,0,28.1,1.95c14.54-2,26.37-8.17,33.18-22.06C805.55,208.51,807.22,193.36,806.91,177.33Z"/><path d="M2040.7,76.87v37h-5.33c-19.17,0-38.34-.4-57.48.18a109,109,0,0,0-27,4c-12.51,3.65-18.4,13.84-20.87,26.07-1,4.95-1.47,10-2.25,15.56h112.88v38.13H1927.9c2,12,3.8,23.36,12.58,32.11,6,5.94,13.48,8.52,21.43,9.88,24.07,4.1,48.37,1.2,72.56,2,2,.06,3.93,0,6.17,0v38h-5.11c-21.49,0-43,.62-64.47-.19-16.77-.64-33.72-1.68-49.16-9.78-12.75-6.69-22.2-16.57-29.42-28.89-9.67-16.48-13.2-34.43-14.73-53.25-1.73-21.37,1-41.86,9.31-61.46a89.12,89.12,0,0,1,25-33.56c13.76-11.65,29.62-16,47.24-15.91C1986.27,77,2013.19,76.87,2040.7,76.87Z"/><path d="M1274,226.57c11-28.09,21.64-55.34,32.34-82.56,8.22-20.89,16.53-41.74,24.78-62.61,1.51-3.83,3.51-5.85,8.34-5.69,14.29.46,28.61.16,44.11.16-1.71,4.44-3,8.29-4.67,12q-15.59,35.85-31.3,71.66c-8.09,18.34-16.48,36.56-24.52,54.92q-12.84,29.31-25.24,58.81c-2,4.66-4.27,7.07-10,6.78-12.29-.63-24.64-.2-37.21-.2l-85.87-204c16.5,0,32-.07,47.48.12a5.09,5.09,0,0,1,3.67,2.74c12.46,31.63,24.73,63.34,37.12,95C1259.79,191.11,1266.77,208.41,1274,226.57Z"/><path d="M637.56,113.87c-22.33,0-44.31-.24-66.28.12-9.28.15-18.47,1.68-27.08,5.79-13.15,6.29-19,17.64-21.1,31.09a157.05,157.05,0,0,0-2,29c.42,13.37,1.58,26.85,7,39.35,4.93,11.27,13.69,18.86,25.84,20.37,13.39,1.67,27,1.84,40.53,2.16,14.28.34,28.58.07,43.13.07v38h-5.17c-26.16,0-52.33.52-78.47-.15-22.2-.58-42.76-6.64-58.41-23.74-11.22-12.24-17.38-27-20.68-43.17A172.06,172.06,0,0,1,472,168.45c1.35-23.33,6.39-45.74,21.47-64.42A66.37,66.37,0,0,1,524.8,82.71a107.94,107.94,0,0,1,34.67-5.86c25.91.05,51.82,0,78.09,0Z"/><path d="M1859.71,76.87v37h-5.37c-20.17,0-40.35-.41-60.49.21a89.84,89.84,0,0,0-23.9,4.47c-13.52,4.28-20.91,14.66-23.91,28.1a101.92,101.92,0,0,0-2,18c-.33,8.52-.41,17.07,0,25.59.56,11.84,3,23.34,9,33.75,6.39,11.09,16.93,16.11,29,16.65,22.07,1,44.19.86,66.28,1.18,3.65,0,7.3,0,11.32,0v38h-5.32c-26.17,0-52.34.38-78.49-.14-15.65-.31-30.57-4-44.25-12.47-14.53-9-23.69-21.94-29.42-37.47-4.53-12.3-5.54-19.35-7.24-38.38a139,139,0,0,1-.84-17.3c.75-21.6,4.07-42.65,15.65-61.49,8.78-14.29,21-24.42,37-29.84a106.78,106.78,0,0,1,34.65-5.94C1807.29,76.93,1833.21,76.87,1859.71,76.87Z"/><path d="M1665.58,279.64h-44.65v-5.08q0-96.21-.12-192.43c0-5.14,1.48-6.51,6.49-6.37,12.64.35,25.28.11,38.28.11Z"/><path d="M885.27,76.11h43.41V279.48H885.27Z"/></g></g></svg>