<?xml version="1.0" encoding="utf-8"?>
<!-- Generator: Adobe Illustrator 15.0.2, SVG Export Plug-In . SVG Version: 6.00 Build 0)  -->
<!DOCTYPE svg PUBLIC "-//W3C//DTD SVG 1.1//EN" "http://www.w3.org/Graphics/SVG/1.1/DTD/svg11.dtd">
<svg version="1.1" xmlns="http://www.w3.org/2000/svg" xmlns:xlink="http://www.w3.org/1999/xlink" x="0px" y="0px" width="900px"
	 height="128.571px" viewBox="0 0 900 128.571" enable-background="new 0 0 900 128.571" xml:space="preserve">
<g id="レイヤー_1">
</g>
<g id="レイヤー_2">
	<g>
		<g>
			<path d="M268.141,4.797c0.513,0.714,0.489,2.898,0.489,2.898l-0.574,14.033c-0.073,1.825-1.536,2.996-3.246,2.602
				c0,0-14.836-3.419-23.747-3.419c-14.672,0-25.441,4.372-32.306,13.133c-6.873,8.756-9.458,19.047-7.774,30.883
				c1.312,9.24,5.149,16.595,11.524,22.083c6.365,5.489,14.302,8.225,23.773,8.225c10.56,0,21.844-3.615,33.848-10.848
				c1.24-0.749,2.495-1.087,3.109-0.369c0.57,0.664,0.668,1.578,0.668,1.578l0.16,18.321c0.016,1.823-1.324,3.815-2.978,4.421
				c0,0-21.335,7.811-33.868,7.811c-15.732,0-29.149-4.778-40.25-14.348c-11.089-9.556-17.738-22.041-19.931-37.441
				c-2.685-18.862,1.698-34.295,13.151-46.327C201.656,6.01,217.831,0,238.721,0c8.366,0,17.49,1.165,27.357,3.478
				C266.972,3.688,267.58,4.022,268.141,4.797z"/>
			<path d="M301.762,71.444c-0.001-0.966,1.024-2.76,3.073-5.37c2.045-2.619,4.294-3.931,6.718-3.931
				c2.817,0,7.134-0.821,13.953,14.446l4.33-28.792c-2.175-3.801-10.267-4.069-15.145-3.738c-4.488,0.306-8.637,3.846-13.104,10.857
				v-6.174c0-1.827-1.435-3.321-3.187-3.321h-11.814c-1.751,0-3.184,1.494-3.184,3.321v57.375c0,1.827,1.433,3.322,3.184,3.322
				h11.993c1.752,0,3.185-1.495,3.185-3.322V71.444z"/>
			<path d="M372.963,45.42c1.752,0,2.729,1.417,2.167,3.149l-24.999,76.852c-0.557,1.736-2.45,3.149-4.202,3.149H333.12
				c-1.752,0-2.725-1.413-2.162-3.145l6.349-18.98c0.562-1.729,0.382-4.482-0.402-6.115l-24.938-51.939
				c-0.784-1.632,0.01-2.971,1.762-2.971h11.892c1.751,0,3.809,1.347,4.57,2.992l14.548,31.395c0.761,1.648,1.807,1.565,2.321-0.184
				l9.168-31.029c0.516-1.746,2.372-3.174,4.123-3.174H372.963z"/>
			<path d="M402.992,33.099c1.751,0,3.185,1.496,3.185,3.321v5.755c0,1.827,1.422,3.107,3.155,2.847c0,0,4.187-0.632,8.056-0.632
				c8.009,0,14.854,2.555,20.521,7.67c5.663,5.112,9.068,11.825,10.231,20.171c1.487,10.688-0.984,19.76-7.438,27.229
				c-6.429,7.486-14.982,11.213-25.667,11.213c-2.417,0-5.664-0.407-8.857-1.234v15.81c0,1.83-1.434,3.322-3.185,3.322h-11.666
				c-1.752,0-3.185-1.492-3.185-3.322V72.568c0-1.828-1.015-2.268-2.258-0.978c0,0-3.771,3.915-6.19,8.043
				c-1.267,2.2-2.415,3.303-3.423,3.303c-0.704,0-1.116-0.417-1.23-1.23c-0.272-1.936,0.617-5.437,2.652-10.505
				c2.041-5.071,5.368-9.989,10.281-14.77V36.42c0-1.826,1.435-3.321,3.186-3.321H402.992z M406.177,59.332v31.298
				c0,1.827,1.38,3.732,3.064,4.236c0,0,1.102,0.327,3.04,0.327c6.416,0,11.083-2.198,13.986-6.604
				c2.91-4.393,3.932-9.712,3.064-15.941c-1.323-9.482-6.687-14.208-16.06-14.208C411.126,58.44,408.648,58.729,406.177,59.332z"/>
			<path d="M477.334,31.932c1.752,0,3.109,1.49,3.021,3.315l-0.343,6.857c-0.092,1.826,1.266,3.316,3.02,3.316h7.119
				c1.751,0,3.138,1.493,3.071,3.319l-0.255,7.474c-0.063,1.827-1.549,3.32-3.3,3.32h-7.049c-1.752,0-3.234,1.494-3.296,3.319
				l-0.462,14.091c-0.062,1.827-0.105,4.811-0.099,6.641c0,0,0,0.116,0.209,1.618c0.784,5.654,3.006,8.467,6.645,8.467
				c1.929,0,3.983-0.592,7.701-2.597c0.49-0.264,1.373-0.583,1.793-0.295c0.736,0.512,0.842,1.602,0.842,1.602l1.521,10.946
				c0.248,1.806-0.882,3.828-2.514,4.487c0,0-7.058,2.86-12.16,2.86c-5.928,0-10.89-1.966-14.834-5.887
				c-3.957-3.92-6.365-9-7.235-15.241c-0.264-1.921-0.347-3.812-0.257-5.652l0.78-21.041c0.065-1.825-1.312-3.319-3.065-3.319
				h-6.038c-1.751,0-3.146-1.494-3.103-3.321l0.185-7.472c0.044-1.826,1.514-3.32,3.268-3.32h6.04c1.751,0,3.221-1.494,3.261-3.32
				l0.153-6.85c0.042-1.827,1.51-3.319,3.264-3.319H477.334z"/>
			<path d="M531.058,44.39c8.928,0,16.62,2.794,23.064,8.356c6.449,5.575,10.288,12.826,11.519,21.761
				c1.401,10.172-0.773,18.743-6.524,25.712c-5.739,6.978-13.511,10.454-23.321,10.454c-8.701,0-16.436-2.978-23.231-8.938
				c-6.783-5.958-10.767-13.253-11.958-21.855c-1.345-9.68,0.974-18.001,6.959-24.995C513.541,47.893,521.37,44.39,531.058,44.39z
				 M533.793,95.193c4.614,0,8.091-2.208,10.424-6.638c2.336-4.415,3.136-9.279,2.401-14.598c-0.582-4.207-2.173-7.611-4.766-10.201
				c-2.608-2.581-5.746-3.878-9.457-3.878c-4.871,0-8.397,2.277-10.56,6.842c-2.151,4.555-2.892,9.306-2.209,14.252
				c0.592,4.294,2.292,7.746,5.12,10.33C527.57,93.895,530.583,95.193,533.793,95.193z"/>
			<path d="M652.746,0c1.002,0,1.824,0.842,1.826,1.872l0.031,15.302c0.002,1.03-0.818,1.872-1.82,1.872h-23.344
				c-1.002,0-1.823,0.842-1.823,1.871v90.449c0,1.029-0.819,1.871-1.821,1.871h-19.408c-1.002,0-1.822-0.842-1.822-1.871V20.917
				c0-1.029-0.819-1.871-1.821-1.871H574.93c-1.002,0-1.825-0.842-1.828-1.872l-0.043-15.302C573.054,0.842,573.871,0,574.873,0
				H652.746z"/>
			<path d="M679.452,45.42c1.751,0,3.186,1.494,3.186,3.321v57.375c0,1.827-1.435,3.322-3.186,3.322h-11.888
				c-1.751,0-3.186-1.495-3.186-3.322V48.742c0-1.827,1.435-3.321,3.186-3.321H679.452z"/>
			<path d="M663.737,27.667c-0.372-2.706,0.229-5.024,1.814-6.95c1.58-1.923,3.681-2.887,6.278-2.887
				c2.641,0,5.01,0.964,7.123,2.887c2.113,1.926,3.347,4.244,3.716,6.95c0.376,2.749-0.22,5.104-1.809,7.025
				s-3.696,2.887-6.337,2.887c-2.595,0-4.957-0.967-7.064-2.887C665.35,32.771,664.11,30.416,663.737,27.667z"/>
			<path d="M705.775,45.42c1.751,0,3.186,1.494,3.186,3.321v1.618c0,1.828,0,3.384,0,3.461c0,0.077,1.132-0.777,2.519-1.897
				c0,0,9.318-7.533,15.699-7.533c8.488,0,14.223,3.9,17.169,11.707c6.685-7.807,13.588-11.707,20.712-11.707
				c5.632,0,10.303,1.825,14.005,5.468c3.703,3.652,5.981,8.569,6.818,14.758c0.213,1.556,0.418,3.254,0.392,5.089v36.412
				c0,1.827-1.439,3.322-3.19,3.322h-11.789c-1.753,0-3.186-1.495-3.186-3.322V75.993c0-1.826-0.042-4.814-0.097-6.64
				c0,0-0.009-0.344-0.22-1.914c-0.809-5.961-2.981-8.935-6.495-8.935c-4.329,0-8.844,3.35-13.537,10.042v37.57
				c0,1.827-1.439,3.322-3.19,3.322h-11.812c-1.752,0-3.187-1.495-3.187-3.322v-29.93c0-1.827-0.143-4.811-0.313-6.628
				c0,0-0.084-0.875-0.311-2.536c-0.771-5.683-3.047-8.519-6.849-8.519c-3.907,0-8.272,3.316-13.101,9.965v37.647
				c0,1.827-1.435,3.322-3.186,3.322h-11.927c-1.753,0-3.187-1.495-3.187-3.322V48.742c0-1.827,1.434-3.321,3.187-3.321H705.775z"/>
			<path d="M850.762,79.519c-0.545,0.52-2.32,0.662-2.32,0.662h-33.954c-1.754,0-2.888,1.461-2.514,3.246
				c0,0,1.201,5.788,4.24,8.751c3.037,2.96,6.822,4.459,11.355,4.459c4.226,0,10.074-1.563,17.534-4.672
				c1.373-0.569,2-0.853,3.32,0.114c0.877,0.647,0.652,2.467,0.652,2.467l-0.556,8.204c-0.123,1.822-1.596,3.754-3.271,4.29
				c0,0-11.387,3.633-17.636,3.633c-9.274,0-17.063-2.824-23.365-8.461c-6.307-5.634-10.097-13.175-11.373-22.625
				c-1.318-9.755,0.795-18.064,6.332-24.917c5.542-6.852,12.916-10.28,22.109-10.28c7.963,0,14.664,2.47,20.096,7.402
				c5.447,4.938,8.697,11.437,9.787,19.515c0.266,1.995,0.382,4.065,0.34,6.178C851.52,78.373,851.407,78.904,850.762,79.519z
				 M812.547,68.841c0.452,0.278,1.519,0.33,1.519,0.33h15.776c1.751,0,3.179-0.701,3.173-1.562c0,0,0,0-0.105-0.782
				c-0.378-2.792-1.485-5.056-3.355-6.774c-1.851-1.72-4.148-2.58-6.875-2.58c-5.357,0-8.599,2.949-10.336,9.51
				C812.185,67.572,811.886,68.424,812.547,68.841z"/>
			<path d="M896.902,50.514c0.382,0.625,0.431,2.627,0.431,2.627l0.334,8.79c0.07,1.825-1.198,2.745-2.817,2.046
				c0,0-3.92-1.692-7.478-2.648c-3.557-0.978-6.244-1.45-8.048-1.45c-2.672,0-3.898,0.935-3.646,2.804
				c0.253,1.892,3.048,4.693,8.385,8.455c6.124,4.308,10.182,7.905,12.166,10.792c2.002,2.89,3.184,5.766,3.573,8.673
				c0.773,5.776-0.726,10.534-4.507,14.29c-3.788,3.763-9.042,5.64-15.768,5.64c-6.025,0-12.292-1.427-18.809-4.297
				c-1.037-0.458-1.896-0.77-2.496-1.811c-0.494-0.865-0.471-3.688-0.471-3.688l0.288-6.842c0.079-1.827,1.508-2.87,3.18-2.324
				c0,0,10.619,3.481,14.315,3.481c3.994,0,5.842-1.171,5.528-3.52c-0.267-1.979-3.34-5.061-9.211-9.248
				c-5.88-4.19-9.768-7.539-11.631-10.028c-1.896-2.505-2.977-4.89-3.287-7.179c-0.821-6.089,0.653-11.061,4.419-14.907
				c3.772-3.856,9.031-5.78,15.759-5.78c5.46,0,11.149,1.415,17.082,4.239C895.197,49.106,896.289,49.503,896.902,50.514z"/>
		</g>
		<g>
			<path d="M121.729,32.297c3.506,0,6.373,2.988,6.373,6.644v75.63c0,3.658-2.867,6.646-6.373,6.646H97.916
				c-3.507,0-6.374-2.987-6.374-6.646v-75.63c0-3.655,2.867-6.644,6.374-6.644H121.729z"/>
			<path fill="#FFDE00" d="M62.128,60.957c1.173,1.017,3.92,0.67,3.92,0.67l21.907-0.098c0,0,1.49-0.092,2.45-1.356
				c1.114-1.466,1.084-3.721,1.084-3.721s0-23.266,0-39.244C91.489,4.765,69.237,0.006,51.059,0
				C15.463-0.013,0.899,17.589,0.016,64.422c-0.888,47.243,34.603,58.45,71.654,58.367c16.072-0.04,50.983,0,50.983,0
				s2.558,0,4.267-1.28c1.441-1.081,1.364-4.203,1.364-4.203V92.559c0,0,0.032-2.681-1.093-4.314
				c-1.453-2.113-4.391-1.974-4.391-1.974l-76.593,5.816c0,0-6.81-0.356-9.012-2.544c-4.25-4.229-7.929-25.907-8.103-36.838
				c-0.182-11.46,0.946-13.613,17.751-13.518c17.624,0.099,15.286,4.101,15.286,8.86C62.128,51.084,60.847,59.848,62.128,60.957z"/>
			<path d="M152.476,31.463c0,3.655-2.867,6.644-6.374,6.644h-72.56c-3.505,0-6.373-2.988-6.373-6.644V6.643
				C67.169,2.989,70.037,0,73.542,0h72.56c3.507,0,6.374,2.989,6.374,6.643V31.463z"/>
		</g>
	</g>
</g>
</svg>
