<svg width="500" height="134" viewBox="0 0 500 134" fill="none" xmlns="http://www.w3.org/2000/svg">
<path d="M25.5438 0.702042C18.546 2.11226 12.2873 6.18737 8.29187 11.5907C4.25025 16.971 2.07931 23.2549 0.926872 29.5788C-0.207092 35.9258 -0.1147 42.3568 0.231725 48.6828C0.968455 61.4399 3.81145 74.0288 8.65909 86.0083C11.1095 91.998 14.0194 97.8007 17.4837 103.368C20.9941 108.918 25.105 114.128 29.6316 119.006C34.2275 123.796 39.1468 128.588 45.7519 131.551C47.4148 132.308 49.2393 132.77 51.1331 133.024C53.1193 133.214 55.0361 132.919 56.7914 132.434C60.3249 131.448 63.4427 129.767 66.3758 127.936C70.4405 125.374 74.1819 122.411 77.6923 119.322C79.1935 117.953 80.6947 116.587 82.1496 115.202C82.4037 114.971 82.6346 114.717 82.9118 114.467C87.4384 110.074 91.6648 105.407 95.7295 100.678C104.298 90.6109 112.173 80.1236 119.286 69.195C126.377 58.2685 133.12 47.1087 138.178 35.1692C140.765 29.2635 142.174 22.4121 140.418 15.8991C139.564 12.6604 137.832 9.48907 134.922 7.19616C132.035 4.90746 128.039 3.91759 124.321 4.12776C120.557 4.31691 117.185 5.53798 113.951 6.81999C110.695 8.18607 107.577 9.82323 104.76 11.7799C99.0552 15.6238 94.2052 20.4597 90.1613 25.6697C82.0573 36.199 76.5607 48.0523 72.2627 60.1158C68.1079 72.1583 64.0663 84.5812 64.5721 97.5463C64.736 100.762 65.1517 103.956 66.2372 107.09C66.6067 108.139 67.0917 109.192 67.646 110.177C64.572 112.933 61.4335 115.476 58.3849 117.449C56.1909 118.838 52.1954 120.538 52.1954 120.538C52.1954 120.538 51.7797 120.457 51.5257 120.309C50.1169 119.868 47.946 118.5 45.8674 116.884C43.7866 115.284 41.6641 113.351 39.611 111.249C37.574 109.192 35.4054 106.836 33.6502 104.631C31.7795 102.443 30.0935 100.049 28.4307 97.6536C25.2205 92.7546 22.2874 87.6076 19.8163 82.2253C14.8762 71.4879 11.7099 59.9288 10.4628 48.1574C10.024 45.2382 9.88774 42.2119 9.70067 39.3305C9.58519 36.4933 9.67988 33.6581 9.95471 30.8839C10.5783 25.3566 12.1025 20.0163 14.897 15.71C17.6684 11.4016 21.7124 8.14399 27.1143 6.58666C32.4954 4.94946 38.0844 5.38877 43.5348 7.82669C48.9414 10.2667 53.7867 14.5331 57.8999 19.3038C62.0801 24.0935 65.7522 29.4968 68.6391 35.1692L68.6645 35.2533C68.8239 35.5496 69.2395 35.7177 69.586 35.6126C69.9786 35.4634 70.1633 35.0851 70.0248 34.751C67.7384 28.6961 64.6436 22.9397 60.8561 17.5573C56.9992 12.2611 52.3109 7.24027 46.237 3.81458C43.2115 2.09122 39.7957 0.849182 36.2599 0.323761C34.8742 0.103088 33.4747 0.00012207 32.0751 0.00012207C29.8811 0.00012207 27.687 0.252289 25.5438 0.702042ZM73.2581 101.226C73.1403 99.9233 73.0964 98.5783 73.1403 97.2101C73.2581 91.7269 74.4359 86.0083 76.1218 80.3338C76.9764 77.4546 77.9463 74.6593 79.078 71.759C80.1612 68.8819 81.1335 65.9585 82.3806 63.1422L84.1104 58.8969L86.0527 54.7566C87.2536 51.9614 88.801 49.3554 90.1613 46.6863C93.166 41.4952 96.4455 36.5374 100.141 32.1869C103.33 28.4313 106.924 24.9258 111.085 22.0486C114.305 19.8208 120.621 14.9366 124.998 16.8659C128.044 18.2089 127.875 21.5106 127.18 24.0662C126.956 24.8858 126.7 25.6676 126.492 26.3527C124.323 33.4837 120.589 40.085 116.769 46.5833C113.649 51.8984 110.323 57.1757 106.815 62.3878C99.7711 72.7468 92.3115 82.9609 84.2975 92.6075C80.9025 96.6658 77.4152 100.617 73.7431 104.314C73.5352 103.41 73.3505 102.34 73.2581 101.226Z" fill="url(#paint0_linear_2_41)"/>
<path d="M162.128 83.4725L162.1 83.5273C158.081 88.7961 152.78 93.0602 147.21 96.8799C141.61 100.643 135.684 104.047 129.609 107.083C123.504 110.095 117.193 112.853 110.905 114.86C110.133 115.114 109.359 115.335 108.644 115.53C107.87 115.729 107.243 115.839 106.38 116.005C104.771 116.34 103.163 116.563 101.556 116.758C98.341 117.148 95.1842 117.204 92.114 116.983C88.9292 116.732 85.8894 116.033 83.2985 114.889C83.032 115.169 82.7934 115.418 82.5269 115.67C81.0654 117.121 79.5478 118.544 78.0302 119.965C82.3164 122.027 87.2012 122.975 91.9363 123.088C95.5093 123.172 99.115 122.863 102.597 122.248C106.083 121.637 109.626 120.884 112.93 119.573C119.512 117.038 125.737 113.886 131.784 110.456C137.828 107.002 143.634 103.237 149.085 98.9704C154.508 94.7063 159.626 89.9672 163.382 84.2234C163.588 83.9169 163.499 83.5273 163.171 83.3019C163.047 83.2187 162.9 83.1771 162.753 83.1771C162.517 83.1771 162.278 83.2821 162.128 83.4725Z" fill="url(#paint1_linear_2_41)"/>
<path d="M201.255 103.176V33.5763H213.863V92.607H244.517V103.176H201.255Z" fill="black"/>
<path d="M262.167 33.5763L277.494 59.0645H278.038L293.432 33.5763H307.808L286.364 68.3762L308.148 103.176H293.534L278.038 77.8578H277.494L261.997 103.176H247.452L269.439 68.3762L247.724 33.5763H262.167Z" fill="black"/>
<path d="M337.463 103.176H313.878V33.5763H337.939C344.849 33.5763 350.785 34.9697 355.746 37.7564C360.731 40.5204 364.56 44.4966 367.233 49.6849C369.906 54.8731 371.243 61.0809 371.243 68.3082C371.243 75.5582 369.895 81.7887 367.199 86.9996C364.526 92.2105 360.663 96.2093 355.61 98.996C350.581 101.783 344.531 103.176 337.463 103.176ZM326.486 92.2672H336.851C341.699 92.2672 345.744 91.3836 348.983 89.6164C352.223 87.8265 354.659 85.1644 356.29 81.6301C357.921 78.0731 358.737 73.6324 358.737 68.3082C358.737 62.984 357.921 58.5661 356.29 55.0544C354.659 51.52 352.246 48.8806 349.051 47.136C345.88 45.3689 341.937 44.4853 337.225 44.4853H326.486V92.2672Z" fill="black"/>
<path d="M384.594 103.176H371.136L395.639 33.5763H411.204L435.74 103.176H422.283L403.693 47.8497H403.15L384.594 103.176ZM385.036 75.8867H421.739V86.014H385.036V75.8867Z" fill="black"/>
<path d="M500 68.3762C500 75.8754 498.595 82.2984 495.786 87.6453C492.999 92.9695 489.193 97.0476 484.367 99.8796C479.564 102.712 474.115 104.128 468.021 104.128C461.926 104.128 456.466 102.712 451.64 99.8796C446.837 97.0249 443.031 92.9355 440.222 87.6113C437.435 82.2644 436.042 75.8527 436.042 68.3762C436.042 60.877 437.435 54.4653 440.222 49.1411C443.031 43.7943 446.837 39.7048 451.64 36.8728C456.466 34.0408 461.926 32.6248 468.021 32.6248C474.115 32.6248 479.564 34.0408 484.367 36.8728C489.193 39.7048 492.999 43.7943 495.786 49.1411C498.595 54.4653 500 60.877 500 68.3762ZM487.324 68.3762C487.324 63.0973 486.497 58.6454 484.843 55.0204C483.212 51.3727 480.946 48.62 478.046 46.7622C475.146 44.8818 471.804 43.9415 468.021 43.9415C464.237 43.9415 460.895 44.8818 457.995 46.7622C455.095 48.62 452.818 51.3727 451.165 55.0204C449.533 58.6454 448.718 63.0973 448.718 68.3762C448.718 73.6551 449.533 78.1184 451.165 81.766C452.818 85.391 455.095 88.1437 457.995 90.0242C460.895 91.882 464.237 92.8109 468.021 92.8109C471.804 92.8109 475.146 91.882 478.046 90.0242C480.946 88.1437 483.212 85.391 484.843 81.766C486.497 78.1184 487.324 73.6551 487.324 68.3762Z" fill="black"/>
<defs>
<linearGradient id="paint0_linear_2_41" x1="146.816" y1="66.5408" x2="-5.52701" y2="66.5408" gradientUnits="userSpaceOnUse">
<stop stop-color="#00FB8C"/>
<stop offset="0.0971267" stop-color="#64CCEB"/>
<stop offset="0.276683" stop-color="#64CCEB"/>
<stop offset="0.319606" stop-color="#64CCEB"/>
<stop offset="0.697546" stop-color="#0F39D9"/>
<stop offset="0.806149" stop-color="#0F39D9"/>
<stop offset="1" stop-color="#64CCEB"/>
</linearGradient>
<linearGradient id="paint1_linear_2_41" x1="144.634" y1="114.621" x2="98.7696" y2="86.3347" gradientUnits="userSpaceOnUse">
<stop stop-color="#00FB8C"/>
<stop offset="0.0958371" stop-color="#64CCEB"/>
<stop offset="0.477009" stop-color="#64CCEB"/>
<stop offset="0.646695" stop-color="#64CCEB"/>
<stop offset="1" stop-color="#0F39D9"/>
</linearGradient>
</defs>
</svg>
