<svg id="圖層_1" data-name="圖層 1" xmlns="http://www.w3.org/2000/svg" xmlns:xlink="http://www.w3.org/1999/xlink" viewBox="0 0 400 240"><defs><style>.cls-1{fill:none;}.cls-2{clip-path:url(#clip-path);}.cls-3{fill:#fbe700;}.cls-4{fill:#00323c;}</style><clipPath id="clip-path"><rect class="cls-1" width="400" height="240"/></clipPath></defs><title>logo_svg</title><g class="cls-2"><rect class="cls-3" width="400" height="240"/><polygon class="cls-4" points="41.2 206.77 41.2 170.68 49.6 170.68 69.45 194.71 65.48 194.71 65.48 170.68 75.48 170.68 75.48 206.77 67.08 206.77 47.18 182.75 51.15 182.75 51.15 206.77 41.2 206.77"/><g class="cls-2"><path class="cls-4" d="M100.38,207.49a22.33,22.33,0,0,1-8-1.39,18.43,18.43,0,0,1-10.56-9.92,18.22,18.22,0,0,1-1.53-7.5,17.9,17.9,0,0,1,1.53-7.43,18.49,18.49,0,0,1,4.2-5.95,18.74,18.74,0,0,1,6.34-4,23.63,23.63,0,0,1,16,0,19.13,19.13,0,0,1,6.35,3.92,18.6,18.6,0,0,1,4.2,5.93,18.18,18.18,0,0,1,1.52,7.48,18.64,18.64,0,0,1-1.5,7.55,17.59,17.59,0,0,1-4.2,6,19.16,19.16,0,0,1-6.37,3.92,22.23,22.23,0,0,1-8,1.39m0-8.45a10.08,10.08,0,0,0,3.83-.72,8.89,8.89,0,0,0,3.1-2.09,10.07,10.07,0,0,0,2.06-3.25,12.45,12.45,0,0,0,0-8.51,10,10,0,0,0-2.06-3.24,8.89,8.89,0,0,0-3.1-2.09,10.57,10.57,0,0,0-7.67,0,9.07,9.07,0,0,0-3.12,2.09,9.57,9.57,0,0,0-2.07,3.24,12.93,12.93,0,0,0,0,8.51,9.61,9.61,0,0,0,2.07,3.25,9.07,9.07,0,0,0,3.12,2.09,10.09,10.09,0,0,0,3.84.72"/><polygon class="cls-4" points="125.32 206.77 125.32 170.68 133.72 170.68 153.57 194.71 149.6 194.71 149.6 170.68 159.6 170.68 159.6 206.77 151.2 206.77 131.3 182.75 135.27 182.75 135.27 206.77 125.32 206.77"/><path class="cls-4" d="M176.4,198.83h18.87v7.94H166.35V170.68H194.6v7.94H176.4Zm-.72-14.18h16.75v7.58H175.68Z"/><polygon class="cls-4" points="214.96 206.77 214.96 170.68 225.16 170.68 225.16 198.68 245.85 198.68 242.33 206.77 214.96 206.77"/><path class="cls-4" d="M236.54,206.77l15.92-36.09h10l16,36.09H267.88L255.4,175.69h4L247,206.77Zm8.71-7.06,2.63-7.48H265.5l2.63,7.48Z"/><polygon class="cls-4" points="280.92 206.77 280.92 170.68 289.32 170.68 309.16 194.71 305.19 194.71 305.19 170.68 315.19 170.68 315.19 206.77 306.79 206.77 286.9 182.75 290.87 182.75 290.87 206.77 280.92 206.77"/><path class="cls-4" d="M321.94,206.77V170.68H339a23.54,23.54,0,0,1,10.47,2.22,17.16,17.16,0,0,1,7.09,6.24,17.43,17.43,0,0,1,2.55,9.54,17.65,17.65,0,0,1-2.55,9.61,17,17,0,0,1-7.09,6.26A23.54,23.54,0,0,1,339,206.77Zm10.21-8.15h6.34a11.7,11.7,0,0,0,5.44-1.18,8.58,8.58,0,0,0,3.58-3.43,11.57,11.57,0,0,0,0-10.62,8.77,8.77,0,0,0-3.58-3.38,11.83,11.83,0,0,0-5.44-1.18h-6.34Z"/><path class="cls-4" d="M145.43,114.68s-.16-43.67-.16-44.19a38,38,0,0,0-22.56-34.7l-1-.45c-.58-.26-1.19-.47-1.82-.69s-1.16-.41-1.74-.58l-.88-.25a38.37,38.37,0,0,0-21.17.37l-.07,0a38.13,38.13,0,0,0-17.06,11,9.07,9.07,0,0,1-5.72,3c-1.09.13-1.92.24-2.48.33l-1.59.25A37.88,37.88,0,0,0,44.89,64.12c-.34.49-.67,1-1,1.45s-.52.82-.74,1.24A33.17,33.17,0,0,0,40,74.45c-.11.38-.23.77-.31,1.17a44.94,44.94,0,0,0-1,5.34c-.16,1.32-.3,2.63-.39,4s-.15,2.66-.18,4C38,90,38,91,38,92s0,2,0,3.07v37.84a6,6,0,0,0,8.62,5.34l31.73-15.41A4.73,4.73,0,0,0,81,118.62V71.28a2.24,2.24,0,0,0-1.23-1.71,11.64,11.64,0,0,0-8-.11,2.36,2.36,0,0,0-1.48,2.2v41A3.76,3.76,0,0,1,68.16,116L50.9,124.2a1.5,1.5,0,0,1-2.16-1.34V97.18c0-2.31,0-4.61,0-6.89,0-1.19,0-2.42,0-3.63C49.23,76.52,53.69,67.11,63,62.14a25.88,25.88,0,0,1,8-2.7A27.33,27.33,0,0,1,89.67,63a26.09,26.09,0,0,1,12.68,20.55c.27,4.59.05,9.25.05,13.84v38a4.47,4.47,0,0,0,6.47,4l.36-.18.07,0,30.16-14.7,3.48-1.73a4.53,4.53,0,0,0,2.51-4v-4ZM91.67,51.9h0s0,0,0,0,0,0-.06,0"/><path class="cls-4" d="M261.82,76.26V68.85a1.34,1.34,0,0,1,1.35-1.34h28.42a1.34,1.34,0,0,1,1.35,1.34v7.41a1.34,1.34,0,0,1-1.35,1.34H263.17a1.34,1.34,0,0,1-1.35-1.34"/><path class="cls-4" d="M261.82,93.36V86a1.35,1.35,0,0,1,1.35-1.35h28.42A1.35,1.35,0,0,1,292.94,86v7.4a1.34,1.34,0,0,1-1.35,1.35H263.17a1.34,1.34,0,0,1-1.35-1.35"/><path class="cls-4" d="M295.67,126.42c3.87-23.41,5.36-46.2,2.74-67.49a.76.76,0,0,1,.75-.86h12.69a.73.73,0,0,1,.75.7c2.53,21.14,1,47.32-2.64,67.65Z"/><rect class="cls-4" x="271.32" y="68.84" width="12.11" height="57.59"/><path class="cls-4" d="M297.46,53.76A55.87,55.87,0,0,0,294.06,38a.76.76,0,0,1,.72-1h17.14a.76.76,0,0,1,.76.67,74,74,0,0,1,0,16.16.77.77,0,0,1-.76.69H298.22a.77.77,0,0,1-.76-.73"/><path class="cls-4" d="M269.46,139.37c3.57.14,10-.56,17.51-5.59a8.5,8.5,0,0,1,7.6-.91c10.83,3.9,36.93,13.93,66.9,4.32a.78.78,0,0,0,.52-.88c-1.33-6.81-2.4-12.93-3.24-19.48a.77.77,0,0,0-1-.63c-30.93,10-55.62,5.18-64.54,4.26a7.58,7.58,0,0,0-4.78,1.09c-9.87,6.17-27,2.77-32.41,1.71a.76.76,0,0,0-.79,1.15c2.91,4.58,9.61,13,14.22,15"/><path class="cls-4" d="M284.24,62.52h16.1a.76.76,0,0,0,.62-1.19,126.77,126.77,0,0,1-10.61-18.39.76.76,0,0,0-.69-.44H273.4a.76.76,0,0,0-.69,1.08,128.31,128.31,0,0,0,10.91,18.61.74.74,0,0,0,.62.33"/><path class="cls-4" d="M273.35,62.52H255.81a.76.76,0,0,1-.62-1.2,138.62,138.62,0,0,0,14.66-25.38.75.75,0,0,1,.69-.46h16a.76.76,0,0,1,.69,1.07C283.42,45.1,280,53.65,274,62.19a.74.74,0,0,1-.62.33"/><path class="cls-4" d="M271.63,106.08a39.83,39.83,0,0,1-8.54-6,.76.76,0,0,0-1.27.56v12.11a.74.74,0,0,0,.33.62A43.43,43.43,0,0,0,271,118a.76.76,0,0,0,1-.71V106.76a.76.76,0,0,0-.41-.68"/><path class="cls-4" d="M283.13,106.08a39.83,39.83,0,0,0,8.54-6,.76.76,0,0,1,1.27.56v12.11a.74.74,0,0,1-.33.62,43.35,43.35,0,0,1-8.85,4.64.77.77,0,0,1-1-.71V106.76a.76.76,0,0,1,.41-.68"/><path class="cls-4" d="M325.65,50.29V38.51A1.35,1.35,0,0,1,327,37.16h17.5a1.35,1.35,0,0,1,1.35,1.35V50.29a1.35,1.35,0,0,1-1.35,1.35H327a1.35,1.35,0,0,1-1.34-1.35"/><rect class="cls-4" x="328.72" y="52.51" width="14.13" height="7.41"/><rect class="cls-4" x="328.72" y="100.72" width="14.13" height="22.28"/><path class="cls-4" d="M315.68,112.22l.83-9.06s21.55-5.39,39.78-5.44V106l-.13,4.56c-17.8-2.27-40.48,1.63-40.48,1.63"/><path class="cls-4" d="M316.16,54.65c.25-2.66.38-5.34.36-7.7a.76.76,0,0,1,.53-.73c3.3-1,21.15-5.65,37.47-5.83a.78.78,0,0,1,.76.63,39.92,39.92,0,0,1,.79,5.45,66,66,0,0,1,.25,6.69.76.76,0,0,1-.85.74c-15.45-1.79-34,.88-38.44,1.57a.75.75,0,0,1-.87-.82"/><path class="cls-4" d="M317.31,80.92s9.43-7.38,19.8-8.08c13.95-1,12.34,7.75,9.15,13.4-3.48,6.13-13.8,12.77-19.84,16.28l-9.91.64s31.94-23.78,14.78-18.51c-3.88,1.19-14.24,9.11-14.24,9.11.28-5.44.34-7.84.26-12.84"/><path class="cls-4" d="M344.71,58.07h11.82c2.79,19.1,1.62,34.82-.54,52.52l-10.2-10.65a182.31,182.31,0,0,0-1.08-41.87"/><path class="cls-4" d="M356.72,58.07c-23.16-2.39-40.13,2.76-40.13,2.76.23,2.5.48,8.41.6,11.31a46.93,46.93,0,0,1,33.29-3.28Z"/><path class="cls-4" d="M159,39.26V60.31a.76.76,0,0,0,.33.63A64.91,64.91,0,0,0,185,71.36a.76.76,0,0,0,.89-.75V53.54a.76.76,0,0,0-.56-.73A60,60,0,0,1,160.31,38.7a.76.76,0,0,0-1.28.56"/><path class="cls-4" d="M159,70.27V88.94a.76.76,0,0,0,.33.63c7.61,5.06,18,5.16,25.8,5.16a.76.76,0,0,0,.76-.76V78.18a.76.76,0,0,0-.75-.76c-8.79-.26-17.71-2.21-24.92-7.75a.76.76,0,0,0-1.22.6"/><path class="cls-4" d="M159.89,138.14A41,41,0,0,0,185.6,123.8a1.36,1.36,0,0,0,.32-.87V102a.76.76,0,0,0-1.25-.58,41,41,0,0,1-24.91,9.68.75.75,0,0,0-.73.76v25.57a.76.76,0,0,0,.86.76"/><path class="cls-4" d="M249,98v12.88a5.39,5.39,0,0,1-4.29,5.27c-14.65,3.15-30.23-5.31-30.23-5.31,9.75-2.6,25.51-6.78,33.26-13.41A.76.76,0,0,1,249,98"/><path class="cls-4" d="M256.41,138.49c-7.17-5.86-21.11-17-24.7-24.35l-17.26-3.32c2.66,8.54,6.75,18.72,11.3,25.61a7.63,7.63,0,0,0,6.34,3.41h23.84a.76.76,0,0,0,.48-1.35"/><rect class="cls-4" x="199.87" y="66.82" width="43.36" height="10.1"/><rect class="cls-4" x="208.5" y="45.35" width="26.6" height="11.4"/><path class="cls-4" d="M201.45,36.85a18.46,18.46,0,0,1,5.75,11.44h29.1a20.56,20.56,0,0,0-3.22-7.43c-2.77-4-5.59-5.39-8.42-5.39H202a.79.79,0,0,0-.54,1.38"/><path class="cls-4" d="M247.88,89.06l-1.39-13.44c-12.33,6.89-24,11.66-38.88,13v15.51a79,79,0,0,0,40.27-15"/><path class="cls-4" d="M206.25,134.7l-12.05,6.05a1.14,1.14,0,0,1-1.66-1V58.67a6.89,6.89,0,0,1,3.79-6.15l12-6.05a1.15,1.15,0,0,1,1.66,1v81.06a6.87,6.87,0,0,1-3.79,6.14"/><path class="cls-4" d="M247.59,45.35H230.87a180.69,180.69,0,0,1,0,49.6L241,93.58a77.32,77.32,0,0,0,7.59-5,324.09,324.09,0,0,0-.22-42.49.76.76,0,0,0-.76-.71"/></g></g></svg>