<svg width="306" height="49" viewBox="0 0 306 49" fill="none" xmlns="http://www.w3.org/2000/svg">
<path d="M30.9409 16.7823H17.0733C16.4841 16.7823 16.0065 17.2599 16.0065 17.849V31.7166C16.0065 32.3057 16.4841 32.7833 17.0733 32.7833H30.9409C31.53 32.7833 32.0076 32.3057 32.0076 31.7166V17.849C32.0076 17.2599 31.53 16.7823 30.9409 16.7823Z" fill="black"/>
<path d="M14.932 0.778076H1.06442C0.475276 0.778076 -0.00231934 1.25567 -0.00231934 1.84481V15.7124C-0.00231934 16.3015 0.475276 16.7791 1.06442 16.7791H14.932C15.5212 16.7791 15.9988 16.3015 15.9988 15.7124V1.84481C15.9988 1.25567 15.5212 0.778076 14.932 0.778076Z" fill="black"/>
<path d="M46.9357 0.778137H33.0681C32.4789 0.778137 32.0013 1.25573 32.0013 1.84487V15.7124C32.0013 16.3016 32.4789 16.7792 33.0681 16.7792H46.9357C47.5248 16.7792 48.0024 16.3016 48.0024 15.7124V1.84487C48.0024 1.25573 47.5248 0.778137 46.9357 0.778137Z" fill="black"/>
<path d="M14.932 32.7771H1.06442C0.475276 32.7771 -0.00231934 33.2547 -0.00231934 33.8438V47.7114C-0.00231934 48.3005 0.475276 48.7781 1.06442 48.7781H14.932C15.5212 48.7781 15.9988 48.3005 15.9988 47.7114V33.8438C15.9988 33.2547 15.5212 32.7771 14.932 32.7771Z" fill="black"/>
<path d="M46.9357 32.7771H33.0681C32.4789 32.7771 32.0013 33.2547 32.0013 33.8438V47.7114C32.0013 48.3005 32.4789 48.7781 33.0681 48.7781H46.9357C47.5248 48.7781 48.0024 48.3005 48.0024 47.7114V33.8438C48.0024 33.2547 47.5248 32.7771 46.9357 32.7771Z" fill="black"/>
<path d="M89.3939 46.1765H83.3361L66.9621 3.11223H73.1398L86.4549 38.9791L99.7701 3.11223H105.648L89.3939 46.1765ZM119.468 46.8362C110.771 46.8362 104.774 40.1787 104.774 30.5222C104.774 21.1656 110.711 14.2082 119.228 14.2082C127.985 14.2082 132.603 20.8657 132.603 29.5625V31.3619H109.932C110.232 37.9595 114.01 42.1579 119.468 42.1579C123.667 42.1579 126.666 39.8788 127.625 36.1601L132.363 37.8395C130.444 43.4175 125.706 46.8362 119.468 46.8362ZM119.168 18.8265C114.61 18.8265 111.191 21.8854 110.232 27.2234H127.145C127.025 22.785 124.626 18.8265 119.168 18.8265ZM139.323 46.1765V14.808H144.721V19.0664C146.521 16.4873 149.639 14.2082 154.078 14.2082C160.735 14.2082 164.514 18.8265 164.514 25.484V46.1765H159.116V26.9235C159.116 22.5451 157.257 19.2463 152.578 19.2463C148.68 19.2463 144.721 22.2452 144.721 27.4633V46.1765H139.323ZM174.018 38.6792V19.4263H169.159V14.808H174.018V5.63131H179.356V14.808H186.493V19.4263H179.356V37.8395C179.356 41.1383 180.975 41.7381 183.734 41.7381C184.994 41.7381 185.893 41.6781 187.153 41.3782V45.9965C185.773 46.2964 184.214 46.4763 182.415 46.4763C177.077 46.4763 174.018 44.677 174.018 38.6792ZM218.159 14.808V46.1765H212.761V41.858C210.962 44.4971 207.903 46.8362 203.465 46.8362C196.747 46.8362 192.968 42.2179 192.968 35.5603V14.808H198.366V34.4208C198.366 38.8591 200.286 41.858 204.904 41.858C208.803 41.858 212.761 38.9191 212.761 33.701V14.808H218.159ZM243.377 14.688V20.146C242.477 19.9661 241.758 19.9061 240.738 19.9061C236.18 19.9061 232.521 23.5048 232.521 29.0227V46.1765H227.123V14.808H232.521V20.146C233.901 16.9672 236.959 14.568 241.218 14.568C242.058 14.568 242.837 14.628 243.377 14.688ZM260.569 46.8362C251.872 46.8362 245.874 40.1787 245.874 30.5222C245.874 21.1656 251.812 14.2082 260.329 14.2082C269.086 14.2082 273.704 20.8657 273.704 29.5625V31.3619H251.032C251.332 37.9595 255.111 42.1579 260.569 42.1579C264.767 42.1579 267.766 39.8788 268.726 36.1601L273.464 37.8395C271.545 43.4175 266.806 46.8362 260.569 46.8362ZM260.269 18.8265C255.711 18.8265 252.292 21.8854 251.332 27.2234H268.246C268.126 22.785 265.727 18.8265 260.269 18.8265ZM276.945 39.5189L281.144 36.46C282.823 40.1187 286.662 42.3379 290.74 42.3379C294.399 42.3379 297.638 40.7784 297.638 37.3597C297.638 33.9409 294.639 33.4611 289.481 32.3815C284.322 31.2419 278.924 30.1023 278.924 23.6847C278.924 18.1067 283.783 14.2082 290.44 14.2082C296.078 14.2082 300.696 16.9672 302.556 20.6858L298.717 23.7447C297.098 20.6258 294.159 18.6465 290.2 18.6465C286.602 18.6465 284.202 20.4459 284.202 23.2648C284.202 26.2038 286.961 26.7436 291.34 27.7032C296.738 28.9628 302.916 30.0424 302.916 36.8799C302.916 42.8777 297.458 46.8362 290.74 46.8362C285.042 46.8362 279.344 44.3771 276.945 39.5189Z" fill="black"/>
</svg>
