<?xml version="1.0" encoding="utf-8"?>
<!-- Generator: Adobe Illustrator 27.5.0, SVG Export Plug-In . SVG Version: 6.00 Build 0)  -->
<svg version="1.1" id="Layer_1" xmlns="http://www.w3.org/2000/svg" xmlns:xlink="http://www.w3.org/1999/xlink" x="0px" y="0px"
	 viewBox="0 0 3000 1080" style="enable-background:new 0 0 3000 1080;" xml:space="preserve">
<style type="text/css">
	.st0{fill:#231F20;}
</style>
<path class="st0" d="M338.57,356.57l140.08,81.47c4.47,2.6,10-0.95,9.51-6.1L452.23,58.91c-0.76-7.88,10.69-9.76,12.5-2.05
	l93.12,397.76c5.03,21.49-7.38,43.21-28.44,49.8c-13.52,4.23-28.27,1.38-39.24-7.59L331.36,366.97
	C325.31,362.02,331.81,352.64,338.57,356.57z"/>
<path class="st0" d="M309.53,735.36l110.59-149.44c2.73-3.69,0.77-8.96-3.71-9.97L73.29,498.77c-7.75-1.74-5.91-13.26,1.99-12.51
	l376.94,35.79c21.54,2.04,39.08,18.17,42.93,39.45c3.06,16.88-3.08,34.12-16.11,45.27L318.76,743.96
	C313.02,748.87,305.04,741.43,309.53,735.36z"/>
<path class="st0" d="M625.32,898.2l-72.56-182.75c-1.92-4.83-8.5-5.43-11.27-1.04L346,1025.03c-4.17,6.63-14.29,1.31-11.2-5.89
	l161.66-376.29c7.65-17.81,26.7-27.86,45.72-24.12c15.53,3.05,27.93,14.75,31.89,30.08l63.31,245.46
	C639.35,901.97,628.26,905.59,625.32,898.2z"/>
<path class="st0" d="M987.84,915.17l-370.6-279.39c-14.1-10.63-17.17-30.55-6.92-44.92c7.7-10.81,21.19-15.87,34.1-12.78L902,639.57
	c7.63,1.82,5.82,13.15-2,12.5l-164.78-13.72c-5.95-0.49-9.23,6.75-4.93,10.89l265.78,256.3
	C1001.8,911.06,994.2,919.97,987.84,915.17z"/>
<path class="st0" d="M1030.92,295.09c-40.34,24.55-293.99,178.88-382.35,232.29c-15.12,9.14-34.71,5-44.86-9.46
	c-6.93-9.87-8.04-22.7-2.9-33.62l105.56-224.25c3.39-7.21,14.27-2.87,11.77,4.7l-62.69,189.2c-1.75,5.27,3.62,10.1,8.66,7.77
	c54.61-25.26,323.9-158.31,361.26-176.78c2.5-1.24,5.52-0.5,7.19,1.74C1034.59,289.42,1033.84,293.31,1030.92,295.09z"/>
<g>
	<g>
		<path class="st0" d="M1188.38,659.93c11.34,49.05,44.38,77.9,105.99,77.9c67.57,0,93.78-32.86,93.78-72.58
			c0-41.52-19.1-66.75-102.09-86.58c-84.12-20.29-117.46-47.85-117.46-101.97c0-52.25,39.09-98.02,120.98-98.02
			c87.52,0,122.57,52.03,127.45,98.25h-35.94c-8.2-38.1-32.78-67.52-93.13-67.52c-52.86,0-82.4,23.96-82.4,64.77
			c0,39.7,23.4,55.86,93.87,72.72c108.79,26.16,125.72,68.69,125.72,115.32c0,57.2-42.13,105.49-132.43,105.49
			c-95.24,0-132.71-53.83-140.32-107.78H1188.38z"/>
	</g>
</g>
<g>
	<g>
		<path class="st0" d="M2931.67,572.24c0,105.7-69.07,195.74-189.18,195.74c-115.59,0-189.17-86.17-189.17-195.59
			c0-104.5,74.05-193.18,190.27-193.18C2856.22,379.22,2931.67,466.76,2931.67,572.24z M2592.43,570.85
			c0,84.45,52.81,164.18,150.83,164.18c97.28,0,149.32-72.92,149.32-161.83c0-82.72-53.32-161.03-151.72-161.03
			C2647.74,412.17,2592.43,485.8,2592.43,570.85z"/>
	</g>
</g>
<path class="st0" d="M2153.69,761.45H1929c-9.38,0-16.99-7.61-16.99-16.99V388.4h33.98v339.08h207.7V761.45z"/>
<path class="st0" d="M1509.54,761.9l144.33-325.02C1687.83,512.7,1769,697.9,1796.99,761.9h37.02
	c-7.3-16.96-26.91-61.84-80.06-182.72c-24.31-55.29-43.77-99.36-57.82-130.96c-8.35-18.79-14.87-33.33-19.37-43.23
	c-2.42-5.31-4.34-9.47-5.68-12.31c-2.4-5.04-7.39-15.53-19.89-13.77c-6.11,0.86-11.07,4.91-13.32,10.3l-165.5,372.69H1509.54z"/>
<path class="st0" d="M2475.52,386.82l-143.79,322.17c-30.46-67.87-99.23-221.41-144.35-322.17h-37.23
	c9.36,20.91,45.57,101.78,81.83,182.7c21.05,46.99,42.11,93.97,57.91,129.21c7.9,17.62,14.5,32.31,19.12,42.59l5.38,11.96
	c2.75,6.09,6.17,13.68,16.55,14.2c0.29,0.01,0.58,0.02,0.86,0.02c6.67,0,12.77-3.92,15.51-10.06l165.41-370.62H2475.52z"/>
</svg>
