<svg width="550" height="130" viewBox="0 0 550 130" fill="none" xmlns="http://www.w3.org/2000/svg">
<path d="M110.453 13.1019L83.1284 58.9005C79.2922 65.3278 70.0047 65.3951 66.0675 59.0216L37.5654 12.8461C44.8542 8.01387 53.1659 4.60177 62.1035 3L68.0597 31.6502C69.5134 38.6698 79.5749 38.5687 80.894 31.529L86.2176 3.13457C95.0475 4.8171 103.258 8.26297 110.453 13.1019Z" fill="black"/>
<path d="M69.7691 83.1156L45.6282 127.918C37.8683 124.237 30.943 119.075 25.2089 112.809L45.0628 95.0751C50.4133 90.3034 45.2984 81.6484 38.5413 84.0241L12.7784 93.0897C9.69598 85.478 8 77.1594 8 68.4372C8 68.168 7.99997 67.8988 8.0067 67.6431L61.1277 68.4035C68.6116 68.5044 73.3092 76.5268 69.7624 83.1156H69.7691Z" fill="black"/>
<path d="M104.591 94.7922L123.779 111.254C118.341 117.607 111.698 122.917 104.207 126.814L79.7636 83.0414C76.1158 76.5131 80.7058 68.4235 88.1897 68.2081L139.594 66.6938C139.601 67.2726 139.615 67.8515 139.615 68.4437C139.615 76.6276 138.114 84.4615 135.388 91.6897L110.904 83.6202C104.1 81.3656 99.1531 90.1349 104.591 94.7922Z" fill="black"/>
<path d="M163.615 71.2622V33.0244H180V70.677C180 83.6485 185.87 89.0127 195.781 89.0127C205.796 89.0127 211.563 83.6485 211.563 70.677V33.0244H227.747V71.2622C227.747 91.3778 215.812 102.472 195.678 102.472C175.544 102.472 163.615 91.3534 163.615 71.2622Z" fill="black"/>
<path d="M283.509 101.301L266.411 77.6016L249.618 101.301H230.782L256.993 66.5564L232.105 33H250.715L267.002 55.1454L282.985 33H300.662L275.981 65.9712L302.406 101.301H283.509Z" fill="black"/>
<path d="M304.844 33.0244H321.229V88.4275H356.736V101.301H304.844V33.0244Z" fill="black"/>
<path d="M361.893 33.0244H378.278V101.295H361.893V33.0244Z" fill="black"/>
<path d="M455.967 33.0244V101.295H442.514L407.208 59.8451V101.295H391.024V33.0244H404.581L439.783 74.4746V33.0244H455.967Z" fill="black"/>
<path d="M494.515 74.4807L485.006 84.0386V101.301H468.719V33.0305H485.006V64.9289L516.362 33.0244H534.57L505.238 63.4598L536.289 101.301H517.173L494.515 74.4807Z" fill="black"/>
</svg>
