<svg width="1296" height="260" viewBox="0 0 1296 260" fill="none" xmlns="http://www.w3.org/2000/svg">
<g clip-path="url(#clip0_17_2575)">
<path d="M695.769 38.253V31.8471L693.143 14.3039H689.009V31.8471H684.756V24.0946H667.9V11.0464H665.392V24.0946H654.888V0H652.38V24.0946H636.959V31.8471H632.707V14.3039H628.581L625.955 31.8471V38.253H623.511V260H625.955H695.769H698.205V38.253H695.769Z" fill="url(#paint0_linear_17_2575)"/>
<path d="M597.659 73.4304V70.1637V68.444V65.1774V63.4576V60.191V58.4713V55.2047V53.4849V50.2183V48.4986V44.9954H598.858V42.5477H600.058V40.1001H591.398V28.7261H580.839V40.1001H571.625V28.7261H561.066V40.1001H551.843V28.7261H541.293V40.1001H532.634V42.5477H533.833V44.9954H535.032V48.4986V50.2183V53.4849V55.2047V58.4713V60.191V63.4576V65.1774V68.444V70.1637V73.4304V75.1592V79.6633H532.634V81.5013V87.3794V89.2174V95.0864V96.9244V102.793V104.631V110.51V112.348V118.217V120.055V125.924V127.762V133.64V135.478V141.347V143.185V149.054V150.892V156.77V158.608V164.477V166.315V172.184V174.022V179.9V181.738V187.607V189.445V195.323V197.152V203.03V204.868V209.154V214.668V254.486V260H600.058V254.486V214.668V209.154V204.868V203.03V197.152V195.323V189.445V187.607V181.738V179.9V174.022V172.184V166.315V164.477V158.608V156.77V150.892V149.054V143.185V141.347V135.478V133.64V127.762V125.924V120.055V118.217V112.348V110.51V104.631V102.793V96.9244V95.0864V89.2174V87.3794V81.5013V79.6633H597.659V75.1592V73.4304Z" fill="url(#paint1_linear_17_2575)"/>
<path d="M636.832 90.901V87.0884H630.599V84.2222H586.201V87.0884H579.967V90.901H575.669V91.9383V95.9965V97.0338V101.092V102.129V106.178V107.216V111.274V112.311V116.37V117.407V121.456V122.493V126.552V127.589V131.647V132.684V136.743V137.771V141.829V142.866V146.925V147.962V152.011V153.057V157.107V158.144V162.202V163.239V167.298V168.335V172.384V173.421V177.48V178.517V182.575V183.613V187.662V188.699V192.757V193.795V197.853V198.89V202.948V203.977V208.035V209.072V213.13V214.168V218.226V219.263V223.312V224.35V228.408V229.445V233.503V234.541V238.59V239.627V243.685V244.723V248.781V249.818V253.867V254.905V258.963V260H579.967H584.22H585.692H590.917H592.389H597.623H599.086H604.32H605.783H611.017H612.489H617.714H619.186H624.42H625.883H631.117H632.58H636.832H641.13V258.963V254.905V253.867V249.818V248.781V244.723V243.685V239.627V238.59V234.541V233.503V229.445V228.408V224.35V223.312V219.263V218.226V214.168V213.13V209.072V208.035V203.977V202.948V198.89V197.853V193.795V192.757V188.699V187.662V183.613V182.575V178.517V177.48V173.421V172.384V168.335V167.298V163.239V162.202V158.144V157.107V153.057V152.011V147.962V146.925V142.866V141.829V137.771V136.743V132.684V131.647V127.589V126.552V122.493V121.456V117.407V116.37V112.311V111.274V107.216V106.178V102.129V101.092V97.0338V95.9965V91.9383V90.901H636.832Z" fill="url(#paint2_linear_17_2575)"/>
<path d="M542.311 69.9546H539.785H538.558H536.032H534.796H532.27H531.043H528.517H527.291H524.764H523.529H521.002H519.776H517.25H516.023H513.497H512.261H509.744H508.508H505.982H504.755H502.229H501.002H498.476H497.24H494.714H493.488H490.961H489.735H487.209H485.973V75.8236V77.88V83.749V85.7963V91.6652V93.7126V99.5815V101.629V107.498V109.554V115.423V117.471V123.339V125.387V131.256V133.303V139.172V141.228V147.088V149.145V155.014V157.061V162.93V164.977V170.846V172.894V178.763V180.819V186.688V188.735V194.604V196.652V202.521V204.568V210.437V212.493V218.362V220.41V226.279V228.326V234.195V236.242V242.111V244.158V250.036V252.084V257.953V260H543.538V257.953V252.084V250.036V244.158V242.111V236.242V234.195V228.326V226.279V220.41V218.362V212.493V210.437V204.568V202.521V196.652V194.604V188.735V186.688V180.819V178.763V172.894V170.846V164.977V162.93V157.061V155.014V149.145V147.088V141.228V139.172V133.303V131.256V125.387V123.339V117.471V115.423V109.554V107.498V101.629V99.5815V93.7126V91.6652V85.7963V83.749V77.88V75.8236V69.9546H542.311Z" fill="url(#paint3_linear_17_2575)"/>
<path d="M488.154 185.569V161.447H490.062V159.563V155.732H448.317V138.99H450.225V137.106V133.276H408.48V119.117H410.388V117.243V113.403L378.267 94.7861L346.145 113.403V117.243V119.117H348.044V133.276H306.335V137.106V138.99H308.234V155.732H266.499V159.563V161.447H268.398V185.569H226.662V189.399V191.283H228.561V260H268.398H298.13H300.947H303.764H308.234H329.052H334.686H359.984H365.618H390.906H396.549H421.838H427.472H448.317H452.76H455.586H458.403H488.154H527.99V191.283H529.898V189.399V185.569H488.154Z" fill="url(#paint4_linear_17_2575)"/>
<path d="M935.934 148.471L933.363 142.712C933.363 142.712 932.881 142.966 931.991 143.376C931.991 143.376 931.973 143.376 931.963 143.385C931.909 143.412 931.854 143.44 931.8 143.458C931.664 143.522 931.518 143.585 931.355 143.658C930.628 143.976 929.728 144.359 928.665 144.777C928.429 144.868 928.174 144.968 927.92 145.059C927.874 145.077 927.82 145.096 927.774 145.114C927.547 145.196 927.311 145.287 927.075 145.369C926.221 145.678 925.303 145.987 924.312 146.306C924.076 146.379 923.831 146.461 923.585 146.533C923.495 146.561 923.404 146.588 923.322 146.615C923.149 146.67 922.977 146.715 922.804 146.77C921.904 147.034 920.95 147.289 919.96 147.543C919.469 147.662 918.978 147.78 918.47 147.898C917.252 148.171 915.989 148.426 914.671 148.644C914.571 148.663 914.471 148.681 914.362 148.69C913.354 148.854 912.318 148.999 911.255 149.118C910.709 149.181 910.155 149.236 909.592 149.281C908.701 149.363 907.793 149.418 906.875 149.463C906.857 149.463 906.838 149.463 906.82 149.463C906.548 149.472 906.275 149.481 906.002 149.491C905.757 149.491 905.521 149.5 905.275 149.509C904.34 149.527 903.404 149.509 902.449 149.481C902.259 149.481 902.068 149.463 901.886 149.463C901.677 149.454 901.468 149.445 901.259 149.436C901.141 149.436 901.032 149.427 900.914 149.418C899.96 149.363 899.006 149.272 898.033 149.163C897.561 149.108 897.079 149.045 896.598 148.972C895.671 148.835 894.735 148.681 893.799 148.49C893.617 148.453 893.435 148.417 893.244 148.371C893.035 148.326 892.836 148.28 892.627 148.235C892.481 148.199 892.336 148.171 892.19 148.135C891.291 147.926 890.391 147.68 889.483 147.407C889.01 147.27 888.528 147.116 888.056 146.952C887.075 146.624 886.093 146.26 885.103 145.86C884.876 145.769 884.657 145.678 884.43 145.578C882.931 144.932 881.423 144.204 879.932 143.367C879.66 143.212 879.378 143.057 879.105 142.894C878.206 142.366 877.306 141.802 876.416 141.201C876.261 141.101 876.107 140.992 875.943 140.883H874.598V137.289H873.817V135.369H871.936V121.347H868.174V124.568H857.86V97.2795H859.369V95.0593H871.273L872.145 94.1858L873.29 93.0393L874.762 91.5652L881.604 87.4251C881.386 87.507 881.159 87.5798 880.932 87.6617C880.75 87.7253 880.568 87.7799 880.387 87.8345C879.651 88.062 878.896 88.2713 878.133 88.4442C877.87 88.4988 877.606 88.5534 877.343 88.608C877.297 88.6171 877.252 88.6262 877.197 88.6353C877.043 88.6626 876.888 88.6899 876.725 88.7172C875.843 88.8718 874.935 88.9992 874.026 89.0993C873.726 89.1266 873.417 89.163 873.108 89.1812C873.081 89.1812 873.063 89.1812 873.035 89.1812C872.745 89.2085 872.454 89.2267 872.163 89.2449C871.409 89.2904 870.655 89.3177 869.891 89.3177C869.591 89.3177 869.292 89.3177 868.992 89.3177C868.974 89.3177 868.964 89.3177 868.946 89.3177C868.665 89.3177 868.374 89.3177 868.092 89.3086C867.32 89.2904 866.547 89.254 865.775 89.2085C865.157 89.1721 864.539 89.1175 863.921 89.0629C863.167 88.9901 862.404 88.9082 861.65 88.8173C861.041 88.7445 860.432 88.6626 859.832 88.5716C859.069 88.4624 858.315 88.335 857.561 88.2076C856.952 88.0984 856.334 87.9892 855.734 87.8709C854.971 87.7253 854.207 87.5616 853.462 87.3978C852.835 87.2613 852.227 87.1157 851.618 86.9701C850.836 86.779 850.064 86.5879 849.31 86.3969C849.064 86.3332 848.828 86.2695 848.592 86.2058C848.51 86.1876 848.428 86.1603 848.346 86.1421C848.101 86.0784 847.856 86.0056 847.62 85.9419C846.802 85.7144 846.011 85.4869 845.248 85.2595C844.957 85.1685 844.675 85.0866 844.385 84.9956C844.33 84.9774 844.276 84.9592 844.23 84.9501C844.003 84.8773 843.776 84.8045 843.549 84.7408C842.631 84.4496 841.759 84.1676 840.941 83.8946C840.741 83.8309 840.55 83.7672 840.359 83.6944C840.241 83.6489 840.114 83.6125 839.996 83.567C839.787 83.4942 839.578 83.4214 839.378 83.3486C838.369 82.9938 837.469 82.6662 836.706 82.375C836.661 82.3568 836.615 82.3386 836.57 82.3204C836.479 82.284 836.388 82.2476 836.297 82.2203C836.216 82.193 836.134 82.1567 836.061 82.1294C836.007 82.1112 835.952 82.0839 835.898 82.0657C835.788 82.0202 835.679 81.9838 835.57 81.9383C835.552 81.9383 835.525 81.9201 835.507 81.911C835.389 81.8655 835.271 81.82 835.161 81.7745C834.244 81.4105 833.726 81.1921 833.726 81.1921H823.012V78.1803H825.339C825.339 78.1803 825.239 78.1803 825.339 76.2513C807.419 72.0475 797.197 62.284 793.98 58.7536V38.8354H791.754V58.7445C788.537 62.2749 778.314 72.0384 760.395 76.2422C760.495 78.1712 760.395 78.1712 760.395 78.1712H762.721V81.183H752.008C752.008 81.183 751.472 81.4105 750.518 81.7927C750.445 81.82 750.363 81.8564 750.281 81.8837C750.218 81.911 750.145 81.9383 750.072 81.9656C750 81.9929 749.936 82.0202 749.863 82.0475C749.8 82.0748 749.727 82.1021 749.663 82.1294C749.564 82.1658 749.464 82.2021 749.364 82.2476C749.309 82.2658 749.255 82.284 749.2 82.3113C749.091 82.3568 748.973 82.4023 748.855 82.4387C748.155 82.7026 747.365 82.9938 746.474 83.3032C746.229 83.385 745.974 83.476 745.72 83.567C745.602 83.6034 745.493 83.6489 745.375 83.6853C745.202 83.749 745.02 83.8036 744.838 83.8673C743.893 84.1858 742.876 84.5133 741.794 84.85C741.703 84.8773 741.622 84.9046 741.531 84.9319C741.458 84.9501 741.394 84.9774 741.322 84.9956C741.049 85.0775 740.767 85.1594 740.495 85.2413C739.75 85.4597 738.986 85.6871 738.187 85.9055C737.914 85.9783 737.642 86.0602 737.369 86.133C737.305 86.1512 737.233 86.1694 737.16 86.1876C736.924 86.2513 736.688 86.315 736.451 86.3787C735.688 86.5789 734.906 86.7699 734.107 86.961C733.516 87.0975 732.916 87.2431 732.308 87.3705C731.535 87.5434 730.763 87.6981 729.972 87.8527C729.364 87.971 728.755 88.0893 728.137 88.1894C727.401 88.3168 726.656 88.4351 725.901 88.5534C725.284 88.6444 724.666 88.7263 724.039 88.8082C723.266 88.8991 722.494 88.981 721.731 89.0538C721.131 89.1084 720.531 89.1539 719.94 89.1903C719.168 89.2358 718.405 89.2722 717.642 89.2904C717.351 89.2904 717.051 89.2995 716.76 89.3086H716.724C716.424 89.3086 716.124 89.3086 715.833 89.3086C715.061 89.3086 714.298 89.2722 713.534 89.2267C713.234 89.2085 712.935 89.1903 712.635 89.163C712.635 89.163 712.626 89.163 712.616 89.163C712.317 89.1357 712.026 89.1084 711.735 89.0811C710.881 88.9901 710.027 88.8809 709.2 88.7354C708.655 88.6444 708.118 88.5352 707.582 88.4169C706.81 88.244 706.065 88.0347 705.329 87.8072C705.156 87.7526 704.974 87.6981 704.802 87.6344C704.575 87.5616 704.347 87.4797 704.12 87.3978C704.375 87.5525 704.62 87.6981 704.856 87.8436C705.029 87.9437 705.193 88.0438 705.356 88.1439C706.228 88.6717 706.955 89.1175 707.573 89.4906C707.655 89.5452 707.737 89.5907 707.819 89.6453C709.909 90.9131 710.957 91.547 710.963 91.547L711.69 92.2749L712.662 93.2486L714.461 95.0502H726.365V97.2704H727.873V124.559H717.56V121.338H713.798V135.36H711.917V137.279H711.135V140.874H709.79C708.745 141.602 707.691 142.266 706.628 142.885C706.292 143.085 705.956 143.276 705.62 143.458C704.511 144.077 703.393 144.641 702.276 145.15C702.276 145.15 702.185 145.187 702.139 145.214C701.867 145.332 701.594 145.451 701.331 145.569C701.094 145.669 700.858 145.769 700.613 145.869C699.65 146.26 698.686 146.615 697.723 146.943C697.233 147.107 696.742 147.261 696.251 147.407C695.351 147.68 694.452 147.916 693.561 148.126C693.398 148.162 693.243 148.199 693.08 148.235C692.88 148.28 692.68 148.326 692.489 148.362C692.307 148.399 692.126 148.435 691.953 148.471C691.026 148.663 690.099 148.817 689.182 148.954C688.691 149.027 688.191 149.09 687.7 149.145C686.737 149.254 685.783 149.345 684.838 149.4C684.72 149.4 684.602 149.409 684.475 149.418C684.266 149.427 684.066 149.436 683.857 149.445C683.666 149.445 683.484 149.463 683.293 149.463C682.339 149.5 681.394 149.5 680.458 149.491C680.213 149.491 679.977 149.481 679.74 149.472C679.459 149.472 679.186 149.454 678.904 149.445C678.895 149.445 678.877 149.445 678.868 149.445C677.95 149.409 677.042 149.345 676.151 149.263C675.588 149.218 675.033 149.163 674.488 149.099C673.425 148.981 672.38 148.835 671.362 148.663C671.271 148.644 671.171 148.635 671.081 148.617C669.763 148.399 668.5 148.144 667.282 147.871C667.055 147.816 666.828 147.762 666.601 147.716C666.328 147.653 666.056 147.58 665.783 147.516C664.774 147.27 663.811 147.007 662.902 146.734C662.766 146.688 662.621 146.652 662.484 146.606C662.357 146.57 662.23 146.533 662.103 146.488C661.876 146.415 661.658 146.351 661.439 146.279C660.413 145.951 659.459 145.633 658.586 145.314C658.386 145.241 658.195 145.168 658.005 145.105C657.932 145.077 657.85 145.05 657.777 145.023C657.532 144.932 657.296 144.841 657.06 144.75C655.996 144.331 655.088 143.949 654.37 143.631C654.179 143.549 654.006 143.467 653.843 143.394C653.843 143.394 653.834 143.394 653.825 143.394C653.77 143.367 653.725 143.349 653.67 143.321C652.816 142.93 652.362 142.684 652.362 142.684L649.79 148.444C649.79 148.444 653.379 152.339 658.704 156.087C658.704 156.087 658.722 156.097 658.732 156.106C660.076 157.052 661.521 157.989 663.057 158.845C663.066 158.845 663.075 158.854 663.084 158.863C664.202 159.491 665.365 160.082 666.555 160.61C666.583 160.619 666.601 160.628 666.628 160.646C667.773 161.147 668.936 161.583 670.126 161.947C670.126 161.947 670.154 161.947 670.163 161.956C672.116 162.548 674.116 162.921 676.124 162.976C676.124 162.976 676.142 162.976 676.151 162.976C676.315 162.976 676.478 162.976 676.651 162.976H683.739V166.388H696.705V182.411H678.259V249.318H675.933V252.876H673.498V256.424H671.28V259.973H914.508V256.424H912.29V252.876H909.855V249.318H907.529V182.411H889.083V166.388H902.05V162.976H909.137C909.301 162.976 909.464 162.976 909.637 162.976C909.637 162.976 909.655 162.976 909.664 162.976C911.673 162.921 913.681 162.548 915.634 161.956C915.634 161.956 915.643 161.956 915.653 161.956C916.561 161.683 917.461 161.356 918.342 161.001C918.342 161.001 918.351 161.001 918.361 161.001C918.624 160.892 918.888 160.783 919.142 160.664C919.178 160.646 919.206 160.637 919.242 160.619C920.432 160.091 921.586 159.509 922.695 158.881C922.695 158.881 922.704 158.881 922.713 158.881C924.249 158.017 925.703 157.079 927.048 156.133C932.381 152.375 935.98 148.471 935.98 148.471H935.934ZM868.174 128.162V135.369H857.86V128.162H868.174ZM717.542 128.162H727.855V135.369H717.542V128.162ZM701.549 167.416V166.415H715.306V182.439H701.549V167.416ZM884.158 167.416V182.439H870.4V166.415H884.158V167.416Z" fill="url(#paint5_linear_17_2575)"/>
<path d="M1007.06 239.864V237.543H1002.7V217.407H925.512V217.37H1002.7V215.059V210.4H1002.15V203.112H1002.7V199.636H995.426V201.374H978.561V199.636H971.282V201.374H954.417V199.636H947.138V201.374H930.273V199.636H922.995V201.374H919.287V117.352V114.331L925.775 94.1492V92.1292H926.784V90.3367L902.831 64.5132L902.731 64.6133L902.686 64.5132L902.595 64.677L902.568 64.5132L902.495 64.8681L878.197 90.3367H878.869V92.1292H879.878V94.1492L886.375 114.331V117.352V177.079L869.691 171.802L845.139 179.572H843.267V181.001H844.394V182.42H845.139V201.374H833.698V199.636H826.42V201.374H809.555V199.636H802.276V203.112H802.84V210.4H802.276V215.059V217.37H879.469V217.407H802.276V237.543H797.924V239.864H789.073V260H864.812H940.169H1015.91V239.864H1007.06Z" fill="url(#paint6_linear_17_2575)"/>
<path d="M1127.38 232.129V195.823H1128.84V193.612H1131.85V191.401H1135.89L1136.89 191.219L1139.22 190.801L1141.98 190.3L1144.32 189.882L1147.08 189.381L1149.43 188.963L1152.2 188.462L1154.54 188.044L1157.3 187.543L1159.64 187.125L1160.06 187.052V181.774C1160.06 181.774 1159.92 181.774 1159.64 181.774C1159.19 181.774 1158.37 181.783 1157.3 181.774C1156.51 181.774 1155.56 181.756 1154.53 181.738C1153.8 181.72 1153.02 181.701 1152.2 181.665C1151.32 181.629 1150.38 181.592 1149.43 181.538C1148.67 181.492 1147.88 181.447 1147.08 181.392C1146.18 181.328 1145.25 181.247 1144.32 181.156C1143.54 181.083 1142.75 180.992 1141.98 180.901C1141.04 180.782 1140.12 180.655 1139.22 180.51C1138.42 180.382 1137.64 180.237 1136.89 180.082C1135.91 179.873 1134.96 179.645 1134.1 179.39C1133.25 179.136 1132.47 178.863 1131.78 178.553C1131.5 178.435 1131.24 178.307 1130.98 178.171H1125.54V168.408H1127.85V166.442H1129.94V164.477H1113.01C1129.08 164.477 1145.4 160.218 1152.69 154.122L1156.64 150.819L1151.5 150.455C1138.22 149.499 1130.74 145.068 1126.27 142.411C1125.64 142.038 1125.07 141.701 1124.53 141.401V126.369V121.119H1120.86V126.369H1054.93V121.119H1051.26V126.369H986.721V121.119H983.049V126.369V141.401C982.513 141.701 981.932 142.047 981.314 142.411C976.843 145.059 969.374 149.499 956.08 150.455L950.955 150.819L954.898 154.122C962.186 160.218 978.506 164.477 994.581 164.477H977.652V166.442H979.742V168.408H982.05V178.171H976.607C976.307 178.335 975.98 178.48 975.635 178.626C975.553 178.662 975.462 178.699 975.38 178.735C975.298 178.772 975.217 178.799 975.135 178.835C975.044 178.872 974.953 178.908 974.862 178.935C974.79 178.963 974.708 178.99 974.635 179.017C974.471 179.072 974.308 179.136 974.135 179.19C974.09 179.208 974.035 179.217 973.99 179.236C973.845 179.281 973.699 179.327 973.554 179.372C972.654 179.645 971.691 179.882 970.664 180.091C970.328 180.164 969.992 180.227 969.646 180.291C969.601 180.291 969.556 180.309 969.501 180.318C969.147 180.382 968.792 180.446 968.429 180.5C967.493 180.655 966.539 180.792 965.566 180.91C964.812 181.001 964.049 181.083 963.286 181.156C962.331 181.247 961.386 181.328 960.45 181.392C960.087 181.419 959.714 181.447 959.351 181.465C959.333 181.465 959.306 181.465 959.287 181.465C958.906 181.492 958.524 181.51 958.152 181.529C957.179 181.583 956.234 181.629 955.335 181.656C954.535 181.683 953.763 181.711 953.054 181.72C952.018 181.747 951.082 181.756 950.291 181.756C949.21 181.756 948.392 181.756 947.938 181.756C947.665 181.756 947.52 181.756 947.52 181.756V187.034L971.7 191.374H975.744V193.585H978.751V195.796H980.214V232.102H934.617V259.973H1172.99V232.102H1127.39L1127.38 232.129Z" fill="url(#paint7_linear_17_2575)"/>
<path d="M1293.46 257.798V255.596H1291.41V253.394H1289V251.192H1284.05L1251.51 210.491V176.779H1254.02V174.577H1166.12V176.779H1168.63V210.491L1136.09 251.192H1131.14V253.394H1128.73V255.596H1126.68V257.798H1124.14V260H1296V257.798H1293.46Z" fill="url(#paint8_linear_17_2575)"/>
<path d="M407.026 253.995V233.139H407.217V232.293H407.599V231.547H406.19V230.974H406.081V230.674H405.963V230.319H405.854V230.018H405.754V208.353H405.854V208.053H405.963V207.698H406.081V207.398H406.19V206.379H406.408V205.942H406.19V205.369H406.408V204.795H406.599V204.222H406.817V203.649H406.599V202.83H406.817V200.983H405.2C405.118 199.755 404.918 198.563 404.618 197.416C404.482 196.906 404.328 196.415 404.146 195.933C403.9 195.269 403.619 194.623 403.301 194.004C403.301 194.004 403.301 194.004 403.301 193.995C403.119 193.64 402.928 193.294 402.719 192.957C402.665 192.866 402.61 192.785 402.556 192.694C402.283 192.266 402.001 191.856 401.701 191.456C401.592 191.31 401.474 191.165 401.356 191.019C401.356 191.019 401.356 191.01 401.347 191.001C400.911 190.473 400.438 189.973 399.948 189.509C399.548 189.136 399.13 188.79 398.703 188.472C398.494 188.317 398.294 188.171 398.076 188.035C398.076 188.035 398.067 188.035 398.058 188.026C397.312 187.534 396.522 187.107 395.695 186.77C395.677 186.77 395.65 186.752 395.631 186.743C395.45 186.67 395.277 186.606 395.095 186.533C394.623 186.361 394.132 186.215 393.641 186.106V181.802H393.923V181.119H393.014V180.61H392.396V179.927H391.915V179.418H391.606L391.106 176.515C391.397 176.351 391.606 176.042 391.606 175.678C391.606 175.15 391.179 174.714 390.643 174.714C390.107 174.714 389.68 175.141 389.68 175.678C389.68 176.042 389.879 176.351 390.179 176.515L389.68 179.418H389.371V179.927H388.889V180.61H388.262V181.119H387.353V181.802H387.635V186.106C387.144 186.224 386.654 186.37 386.181 186.533C385.999 186.597 385.818 186.67 385.636 186.743C385.618 186.743 385.6 186.761 385.581 186.77C384.754 187.116 383.964 187.534 383.219 188.035C383.001 188.18 382.792 188.326 382.583 188.481C382.147 188.799 381.729 189.154 381.338 189.518C381.183 189.664 381.029 189.809 380.874 189.964C380.547 190.291 380.229 190.646 379.938 191.001C379.938 191.001 379.938 191.001 379.938 191.01C379.82 191.156 379.702 191.301 379.593 191.447C379.266 191.884 378.948 192.33 378.657 192.803C378.63 192.848 378.594 192.894 378.566 192.939C378.366 193.276 378.167 193.622 377.985 193.977C377.985 193.977 377.985 193.995 377.976 194.004C377.73 194.477 377.512 194.968 377.312 195.478C377.258 195.623 377.194 195.769 377.14 195.924C377.013 196.27 376.903 196.615 376.794 196.961C376.794 196.961 376.794 196.961 376.794 196.97C376.749 197.116 376.713 197.261 376.676 197.407C376.676 197.407 376.676 197.407 376.676 197.416C376.422 198.371 376.24 199.372 376.14 200.401C376.122 200.592 376.104 200.783 376.095 200.974H374.477V202.821H374.695V203.203H367.635V202.885H365.563V203.203H356.476V202.885H354.404V203.203H345.318V202.885H343.246V203.203H334.159V202.885H332.087V203.203H323V202.885H320.929V203.203H311.842V202.885H309.77V203.203H302.71V202.821H302.928V200.974H270.515V202.821H270.733V203.64H270.515V204.213H270.733V204.786H270.924V205.36H271.142V205.933H270.924V206.37H271.142V207.389H271.251V207.689H271.36V208.044H271.469V208.344H271.569V209.509H267.262L267.198 204.759C268.207 204.75 269.016 203.931 269.016 202.921C269.016 201.911 268.198 201.083 267.18 201.083H267.907V199.636H268.834V198.381H269.47V197.307H267.898V192.721H268.734V191.265H269.043V189.809H270.606V189.09H270.987V187.571H270.151L252.123 181.065C250.569 161.702 237.839 145.969 221.228 142.084V130.592H221.982V128.772H219.565V127.407H217.902V125.587H216.612V124.222H215.785L214.467 116.479C215.258 116.042 215.785 115.196 215.785 114.231C215.785 112.812 214.631 111.656 213.213 111.656C211.796 111.656 210.642 112.812 210.642 114.231C210.642 115.196 211.178 116.042 211.959 116.479L210.642 124.222H209.815V125.587H208.524V127.407H206.862V128.772H204.445V130.592H205.199V142.084C188.588 145.969 175.857 161.702 174.304 181.065L156.266 187.571H155.439V189.09H155.83V189.809H157.375V191.265H157.684V192.721H158.52V197.307H156.948V198.381H157.584V199.636H158.52V201.083H159.238C158.229 201.083 157.402 201.911 157.402 202.921C157.402 203.931 158.22 204.75 159.219 204.759L159.156 209.509H154.84V208.344H154.939V208.044H155.049V207.689H155.158V207.389H155.267V206.37H155.485V205.933H155.267V205.36H155.485V204.786H155.676V204.213H155.894V203.64H155.676V202.821H155.894V200.974H123.481V202.821H123.699V203.203H116.638V202.885H114.567V203.203H105.48V202.885H103.408V203.203H94.3212V202.885H92.2494V203.203H83.1626V202.885H81.0908V203.203H72.004V202.885H69.9322V203.203H60.8453V202.885H58.7736V203.203H51.7131V202.821H51.9312V200.974H50.3137C50.3046 200.783 50.2865 200.592 50.2683 200.401C50.2047 199.745 50.1138 199.099 49.9775 198.472C49.9048 198.117 49.823 197.771 49.7322 197.434C49.6958 197.289 49.6504 197.143 49.614 196.997C49.5141 196.643 49.3959 196.297 49.2687 195.96C49.2142 195.815 49.1597 195.66 49.0961 195.514C48.9598 195.159 48.8053 194.814 48.6417 194.477C48.3964 193.967 48.1329 193.467 47.8421 192.994C47.8421 192.994 47.833 192.976 47.8239 192.967C47.515 192.457 47.1788 191.966 46.8244 191.502C46.7062 191.356 46.5972 191.21 46.4791 191.065C46.4791 191.065 46.4791 191.065 46.4791 191.056C46.1792 190.692 45.8703 190.346 45.5431 190.018C45.3887 189.864 45.2342 189.718 45.0797 189.573C44.4891 189.027 43.8621 188.526 43.1987 188.08C43.1987 188.08 43.1987 188.08 43.1896 188.08C42.4445 187.58 41.654 187.161 40.8271 186.815C40.8089 186.815 40.7907 186.797 40.7725 186.788C40.5908 186.715 40.4091 186.643 40.2273 186.579C39.7548 186.406 39.2732 186.26 38.7734 186.151V181.847H39.0551V181.165H38.1465V180.655H37.5195V179.973H37.0379V179.463H36.7289L36.2291 176.561C36.5199 176.397 36.7289 176.088 36.7289 175.724C36.7289 175.196 36.3018 174.759 35.7657 174.759C35.2296 174.759 34.8025 175.187 34.8025 175.724C34.8025 176.088 35.0024 176.397 35.3023 176.561L34.8025 179.463H34.4935V179.973H34.0119V180.655H33.385V181.165H32.4763V181.847H32.758V186.151C32.2673 186.27 31.7766 186.415 31.3041 186.579C31.1223 186.643 30.9406 186.715 30.7589 186.788C30.7407 186.788 30.7225 186.806 30.7043 186.815C29.8774 187.161 29.0869 187.58 28.3418 188.08C28.3418 188.08 28.3327 188.08 28.3236 188.089C27.6602 188.526 27.0333 189.027 26.4426 189.573C25.9428 190.037 25.4794 190.537 25.0432 191.065C25.0432 191.065 25.0432 191.065 25.0432 191.074C23.553 192.885 22.4171 195.068 21.772 197.489C21.463 198.626 21.2631 199.827 21.1904 201.056H19.573V202.903H19.7911V203.722H19.573V204.295H19.7911V204.868H19.9819V205.442H20.2V206.015H19.9819V206.452H20.2V207.471H20.309V207.771H20.4271V208.126H20.5362V208.426H20.6361V230.091H20.5362V230.391H20.4271V230.746H20.309V231.047H20.2V231.62H18.7915V232.366H19.1732V233.212H19.364V255.969H18.7915V256.606H19.1732V257.325H19.364V260.073H407.081V257.325H407.272V256.606H407.653V255.969H407.081V254.068L407.026 253.995Z" fill="url(#paint9_linear_17_2575)"/>
<path d="M153.867 171.92V176.606C153.268 176.643 152.659 176.661 152.059 176.679V174.131H150.478V176.706C149.878 176.706 149.269 176.706 148.67 176.706V173.731H147.089V176.67C146.489 176.652 145.88 176.624 145.28 176.597V173.731H143.699V176.497C143.09 176.451 142.491 176.406 141.891 176.351V173.731H140.31V176.197C139.701 176.133 139.101 176.06 138.501 175.987V173.485H136.92V175.787C136.312 175.705 135.712 175.614 135.112 175.523V173.076H133.531V175.269C114.748 172.129 99.1828 164.987 99.1828 164.987H99.0101V154.714H99.9279V153.358H100.7V152.002H99.0646C99.0646 152.002 82.8355 141.429 79.5461 131.474V130.473H79.3371V128.335C79.3371 126.779 80.7547 123.431 80.7547 120.319C80.7547 117.207 77.756 117.316 77.756 117.316C77.756 117.316 74.7573 117.216 74.7573 120.319C74.7573 123.421 76.1749 126.779 76.1749 128.335V130.473H75.9659V131.474C72.6765 141.438 56.4474 152.002 56.4474 152.002H54.8118V153.358H55.5841V154.714H56.5019V164.987H56.3293C56.3293 164.987 40.7635 172.129 21.981 175.269V173.076H20.3999V175.523C19.8002 175.614 19.1914 175.705 18.5917 175.787V173.485H17.0105V175.987C16.4108 176.06 15.802 176.133 15.2023 176.197V173.731H13.6212V176.351C13.0214 176.406 12.4126 176.451 11.8129 176.497V173.731H10.2318V176.597C9.63204 176.633 9.02322 176.652 8.42349 176.67V173.731H6.84238V176.706C6.24265 176.706 5.63383 176.715 5.0341 176.706V174.131H3.453V176.679C2.85326 176.661 2.24445 176.633 1.64472 176.606V171.92H0V185.068L3.31669 185.833L4.4162 186.088L7.09681 186.706L8.65066 187.07L18.4008 189.327L19.0551 189.482L21.0996 189.955V191.784H22.7716V193.613H23.9074V228.945H10.568V226.333H8.60523V231.174H8.29628V237.953H7.25129V239.272H6.74243V241.911H4.47072V243.503H5.1068V245.096H7.4512V260H10.8497V245.096H27.0424V260H30.4409V245.096H46.6336V260H50.0321V245.096H66.2248V260H69.6233V245.096H85.816V260H89.2145V245.096H105.407V260H108.806V245.096H124.998V260H128.397V245.096H144.59V260H147.988V245.096H150.333V243.503H150.969V241.911H148.697V239.272H148.188V237.953H147.143V231.174H146.834V226.333H144.871V228.945H131.532V193.613H132.668V191.784H134.34V189.955L139.092 188.854L139.428 188.772L143.581 187.816L144.581 187.589L146.625 187.116L148.352 186.715L150.396 186.242L151.741 185.933L155.448 185.078V171.929H153.867V171.92ZM104.844 201.802V198.28H126.398V201.802H104.844ZM99.4554 231.174H99.1464V233.103H79.01V231.174H78.701V229.855H99.4463V231.174H99.4554ZM76.7474 231.174H76.4475V233.103H56.3111V231.174H56.0112V229.855H76.7565V231.174H76.7474ZM99.4554 226.324V228.936H78.7101V226.324H76.7474V228.936H56.0021V226.324H55.7568V209.454H58.8645V206.47H96.6021V209.454H99.7098V226.324H99.4644H99.4554ZM55.7477 201.802V198.28H63.8532V201.802H55.7477ZM99.7007 201.802H91.5953V198.28H99.7007V201.802ZM29.0597 201.802V198.28H50.6136V201.802H29.0597ZM50.6136 233.103H33.594V231.174H33.2941V229.855H50.6136V233.103ZM31.3223 231.174H31.0134V233.103H29.0506V229.855H31.3132V231.174H31.3223ZM124.435 233.103V231.174H124.126V229.855H126.389V233.103H124.426H124.435ZM122.163 231.174H121.854V233.103H104.835V229.855H122.154V231.174H122.163ZM29.0597 209.454H32.1674V206.47H47.515V209.454H50.6227V228.936H33.3032V226.324H31.3405V228.936H29.0779V209.454H29.0597ZM10.5771 231.174V229.855H23.9165V233.103H10.886V231.174H10.5771ZM144.871 229.845V231.165H144.562V233.094H131.532V229.845H144.871ZM124.126 228.936V226.324H122.163V228.936H104.844V209.454H107.952V206.47H123.29V209.454H126.398V228.936H124.135H124.126ZM61.6178 154.704H93.8306V164.977H61.6178V154.704Z" fill="url(#paint10_linear_17_2575)"/>
<path d="M996.543 217.306V202.602H997.061V201.319H997.934V200.036H987.793V198.726H986.393L978.352 189.8L976.934 191.374V175.678H978.552V173.367H983.222V168.617H979.351L986.239 163.248C986.239 163.248 986.23 161.383 985.367 158.116C983.913 158.344 982.159 158.553 980.187 158.744C980.114 157.889 979.924 156.442 979.469 154.504C969.737 156.251 944.994 156.706 936.888 156.806C928.783 156.697 904.04 156.242 894.308 154.504C893.853 156.451 893.671 157.889 893.59 158.744C891.627 158.553 889.864 158.353 888.41 158.116C887.547 161.383 887.529 163.248 887.529 163.248L894.417 168.617H890.546V173.367H895.225V175.678H896.843V191.374L895.425 189.8L887.383 198.726H885.984V200.036H875.843V201.319H876.725V202.602H877.242V217.306H842.649V218.908H844.103V220.509H844.975V259.991H1028.77V220.509H1029.64V218.908H1031.09V217.306H996.498H996.543ZM971.809 180.245V197.07L971.791 197.097V173.367H971.809V180.255V180.245ZM902.004 182.557V173.357H902.022V197.088L902.004 197.061V182.548V182.557Z" fill="url(#paint11_linear_17_2575)"/>
</g>
<defs>
<linearGradient id="paint0_linear_17_2575" x1="660.858" y1="0" x2="660.858" y2="260" gradientUnits="userSpaceOnUse">
<stop stop-color="#9900FF"/>
<stop offset="1" stop-color="#99FFFF"/>
</linearGradient>
<linearGradient id="paint1_linear_17_2575" x1="566" y1="260" x2="566" y2="29" gradientUnits="userSpaceOnUse">
<stop stop-color="#9900FF"/>
<stop offset="1" stop-color="#99FFFF"/>
</linearGradient>
<linearGradient id="paint2_linear_17_2575" x1="608.4" y1="84.2222" x2="608.4" y2="260" gradientUnits="userSpaceOnUse">
<stop stop-color="#FF3366"/>
<stop offset="0.25" stop-color="#FE3566"/>
<stop offset="0.4" stop-color="#FD3D66"/>
<stop offset="0.52" stop-color="#FC4B66"/>
<stop offset="0.62" stop-color="#FA5F67"/>
<stop offset="0.72" stop-color="#F77968"/>
<stop offset="0.81" stop-color="#F4996A"/>
<stop offset="0.89" stop-color="#F0BF6B"/>
<stop offset="0.97" stop-color="#ECEA6D"/>
<stop offset="1" stop-color="#EAFF6E"/>
</linearGradient>
<linearGradient id="paint3_linear_17_2575" x1="515" y1="260" x2="515" y2="70" gradientUnits="userSpaceOnUse">
<stop stop-color="#FF3366"/>
<stop offset="0.25" stop-color="#FE3566"/>
<stop offset="0.4" stop-color="#FD3D66"/>
<stop offset="0.52" stop-color="#FC4B66"/>
<stop offset="0.62" stop-color="#FA5F67"/>
<stop offset="0.72" stop-color="#F77968"/>
<stop offset="0.81" stop-color="#F4996A"/>
<stop offset="0.89" stop-color="#F0BF6B"/>
<stop offset="0.97" stop-color="#ECEA6D"/>
<stop offset="1" stop-color="#EAFF6E"/>
</linearGradient>
<linearGradient id="paint4_linear_17_2575" x1="378" y1="95" x2="378" y2="260" gradientUnits="userSpaceOnUse">
<stop stop-color="#9900FF"/>
<stop offset="1" stop-color="#99FFFF"/>
</linearGradient>
<linearGradient id="paint5_linear_17_2575" x1="787" y1="52" x2="786" y2="260" gradientUnits="userSpaceOnUse">
<stop stop-color="#FF3366"/>
<stop offset="0.25" stop-color="#FE3566"/>
<stop offset="0.4" stop-color="#FD3D66"/>
<stop offset="0.52" stop-color="#FC4B66"/>
<stop offset="0.62" stop-color="#FA5F67"/>
<stop offset="0.72" stop-color="#F77968"/>
<stop offset="0.81" stop-color="#F4996A"/>
<stop offset="0.89" stop-color="#F0BF6B"/>
<stop offset="0.97" stop-color="#ECEA6D"/>
<stop offset="1" stop-color="#EAFF6E"/>
</linearGradient>
<linearGradient id="paint6_linear_17_2575" x1="902" y1="260" x2="902" y2="65" gradientUnits="userSpaceOnUse">
<stop stop-color="#FF3366"/>
<stop offset="0.25" stop-color="#FE3566"/>
<stop offset="0.4" stop-color="#FD3D66"/>
<stop offset="0.52" stop-color="#FC4B66"/>
<stop offset="0.62" stop-color="#FA5F67"/>
<stop offset="0.72" stop-color="#F77968"/>
<stop offset="0.81" stop-color="#F4996A"/>
<stop offset="0.89" stop-color="#F0BF6B"/>
<stop offset="0.97" stop-color="#ECEA6D"/>
<stop offset="1" stop-color="#EAFF6E"/>
</linearGradient>
<linearGradient id="paint7_linear_17_2575" x1="1054" y1="260" x2="1054" y2="133" gradientUnits="userSpaceOnUse">
<stop stop-color="#FF3366"/>
<stop offset="0.25" stop-color="#FE3566"/>
<stop offset="0.4" stop-color="#FD3D66"/>
<stop offset="0.52" stop-color="#FC4B66"/>
<stop offset="0.62" stop-color="#FA5F67"/>
<stop offset="0.72" stop-color="#F77968"/>
<stop offset="0.81" stop-color="#F4996A"/>
<stop offset="0.89" stop-color="#F0BF6B"/>
<stop offset="0.97" stop-color="#ECEA6D"/>
<stop offset="1" stop-color="#EAFF6E"/>
</linearGradient>
<linearGradient id="paint8_linear_17_2575" x1="1210" y1="175" x2="1210" y2="267.5" gradientUnits="userSpaceOnUse">
<stop stop-color="#9900FF"/>
<stop offset="1" stop-color="#99FFFF"/>
</linearGradient>
<linearGradient id="paint9_linear_17_2575" x1="213" y1="260" x2="213" y2="148.5" gradientUnits="userSpaceOnUse">
<stop stop-color="#FF3366"/>
<stop offset="0.25" stop-color="#FE3566"/>
<stop offset="0.4" stop-color="#FD3D66"/>
<stop offset="0.52" stop-color="#FC4B66"/>
<stop offset="0.62" stop-color="#FA5F67"/>
<stop offset="0.72" stop-color="#F77968"/>
<stop offset="0.81" stop-color="#F4996A"/>
<stop offset="0.89" stop-color="#F0BF6B"/>
<stop offset="0.97" stop-color="#ECEA6D"/>
<stop offset="1" stop-color="#EAFF6E"/>
</linearGradient>
<linearGradient id="paint10_linear_17_2575" x1="78" y1="260" x2="78" y2="141" gradientUnits="userSpaceOnUse">
<stop stop-color="#9900FF"/>
<stop offset="1" stop-color="#99FFFF"/>
</linearGradient>
<linearGradient id="paint11_linear_17_2575" x1="937" y1="260" x2="937" y2="155" gradientUnits="userSpaceOnUse">
<stop stop-color="#9900FF"/>
<stop offset="1" stop-color="#99FFFF"/>
</linearGradient>
<clipPath id="clip0_17_2575">
<rect width="1296" height="260" fill="white"/>
</clipPath>
</defs>
</svg>
