<svg width="564" height="472" viewBox="0 0 564 472" fill="none" xmlns="http://www.w3.org/2000/svg">
<rect y="370" width="564" height="50" fill="#FF3366"/>
<path d="M25.4706 436.6H41.3426V440.28H29.8226V446.488H39.8066V450.168H29.8226V459H25.4706V436.6ZM43.4319 455.32V440.28L47.1119 436.6H58.6319L62.3119 440.28V455.32L58.6319 459H47.1119L43.4319 455.32ZM56.3279 455.288L57.9599 453.656V441.944L56.3279 440.312H49.4159L47.7839 441.944V453.656L49.4159 455.288H56.3279ZM83.7581 451.576V459H79.4061V452.568L77.4861 450.424H70.5101V459H66.1581V436.6H80.2061L83.6301 440.056V446.84L81.4541 449.048L83.7581 451.576ZM70.5101 446.84H78.2221L79.3421 445.72V441.368L78.2221 440.248H70.5101V446.84ZM87.7519 436.6H91.7839L98.4399 451.064H98.5039L105.192 436.6H109.224V459H105.032V445.368H104.968L99.8159 455.864H97.1279L92.0079 445.368H91.9439V459H87.7519V436.6ZM113.057 455.32V440.28L116.737 436.6H128.257L131.937 440.28V455.32L128.257 459H116.737L113.057 455.32ZM125.953 455.288L127.585 453.656V441.944L125.953 440.312H119.041L117.409 441.944V453.656L119.041 455.288H125.953ZM135.303 455.544V452.344H139.591V454.232L140.647 455.288H147.271L148.359 454.2V450.488L147.303 449.432H138.823L135.367 445.976V440.056L138.823 436.6H148.935L152.391 440.056V443.288H148.103V441.368L147.047 440.312H140.711L139.655 441.368V444.664L140.711 445.72H149.191L152.647 449.176V455.48L149.127 459H138.759L135.303 455.544ZM161.805 436.6H165.773L173.965 459H169.549L167.725 454.04H159.853L158.029 459H153.613L161.805 436.6ZM166.765 450.456L163.789 441.944H163.725L160.845 450.456H166.765ZM190.827 449.848L182.859 436.6H187.627L192.971 445.784H193.035L198.379 436.6H203.147L195.179 449.848V459H190.827V449.848ZM208.618 436.6H212.586L220.778 459H216.362L214.538 454.04H206.666L204.842 459H200.426L208.618 436.6ZM213.578 450.456L210.602 441.944H210.538L207.658 450.456H213.578ZM222.244 455.32V440.28L225.924 436.6H236.868L240.484 440.216V443.64H236.132V441.816L234.628 440.312H228.228L226.596 441.944V453.656L228.228 455.288H234.628L236.132 453.784V451.96H240.484V455.384L236.868 459H225.924L222.244 455.32ZM243.533 436.6H247.885V445.976H257.357V436.6H261.709V459H257.357V449.688H247.885V459H243.533V436.6ZM270.965 440.28H264.277V436.6H282.005V440.28H275.317V459H270.965V440.28ZM310.883 451.576V459H306.531V452.568L304.611 450.424H297.635V459H293.283V436.6H307.331L310.755 440.056V446.84L308.579 449.048L310.883 451.576ZM297.635 446.84H305.347L306.467 445.72V441.368L305.347 440.248H297.635V446.84ZM314.877 436.6H331.069V440.28H319.229V445.944H330.141V449.56H319.229V455.32H331.069V459H314.877V436.6ZM333.803 455.544V452.344H338.091V454.232L339.147 455.288H345.771L346.859 454.2V450.488L345.803 449.432H337.323L333.867 445.976V440.056L337.323 436.6H347.435L350.891 440.056V443.288H346.603V441.368L345.547 440.312H339.211L338.155 441.368V444.664L339.211 445.72H347.691L351.147 449.176V455.48L347.627 459H337.259L333.803 455.544ZM354.338 455.32V440.28L358.018 436.6H369.538L373.218 440.28V455.32L369.538 459H358.018L354.338 455.32ZM367.234 455.288L368.866 453.656V441.944L367.234 440.312H360.322L358.69 441.944V453.656L360.322 455.288H367.234ZM394.664 451.576V459H390.312V452.568L388.392 450.424H381.416V459H377.064V436.6H391.112L394.536 440.056V446.84L392.36 449.048L394.664 451.576ZM381.416 446.84H389.128L390.248 445.72V441.368L389.128 440.248H381.416V446.84ZM403.277 440.28H396.589V436.6H414.317V440.28H407.629V459H403.277V440.28ZM414.905 459H414.201L412.825 457.624V455.576L414.201 454.2H416.601L417.945 455.608V459L416.121 463.288H413.625L414.905 459ZM435.121 440.28H428.433V436.6H446.161V440.28H439.473V459H435.121V440.28ZM452.118 436.6H456.086L464.278 459H459.862L458.038 454.04H450.166L448.342 459H443.926L452.118 436.6ZM457.078 450.456L454.102 441.944H454.038L451.158 450.456H457.078ZM466.693 436.6H471.045V459H466.693V436.6ZM475.377 436.6H479.281L489.265 451.8H489.329V436.6H493.521V459H489.617L479.633 443.832H479.569V459H475.377V436.6ZM503.961 436.6H507.929L516.121 459H511.705L509.881 454.04H502.009L500.185 459H495.769L503.961 436.6ZM508.921 450.456L505.945 441.944H505.881L503.001 450.456H508.921ZM518.377 436.6H522.281L532.265 451.8H532.329V436.6H536.521V459H532.617L522.633 443.832H522.569V459H518.377V436.6Z" fill="white"/>
<path d="M145.865 401.492L158.825 389.72V387.164L157.637 385.976H151.805L150.617 387.164V389.72H145.721V385.688L149.609 381.8H159.833L163.721 385.688V391.16L150.941 402.536V402.896H163.865V407H145.865V401.492ZM167.113 402.824V385.976L171.289 381.8H182.449L186.625 385.976V402.824L182.449 407H171.289L167.113 402.824ZM180.145 402.824L181.729 401.24V387.56L180.145 385.976H173.593L172.009 387.56V401.24L173.593 402.824H180.145ZM190.021 401.492L202.981 389.72V387.164L201.793 385.976H195.961L194.773 387.164V389.72H189.877V385.688L193.765 381.8H203.989L207.877 385.688V391.16L195.097 402.536V402.896H208.021V407H190.021V401.492ZM221.817 402.32H209.649V397.388L220.845 381.8H226.713V398.144H229.773V402.32H226.713V407H221.817V402.32ZM222.033 398.288V387.272H221.889L214.437 397.784V398.288H222.033ZM231.225 405.452V403.148L232.773 401.6H235.401L236.913 403.184V405.416L235.401 407H232.773L231.225 405.452ZM241.992 387.02L236.556 389.828V385.328L242.964 381.8H246.888V407H241.992V387.02ZM250.806 401.492L263.766 389.72V387.164L262.578 385.976H256.746L255.558 387.164V389.72H250.662V385.688L254.55 381.8H264.774L268.662 385.688V391.16L255.882 402.536V402.896H268.806V407H250.806V401.492ZM271.514 405.452V403.148L273.062 401.6H275.69L277.202 403.184V405.416L275.69 407H273.062L271.514 405.452ZM282.281 387.02L276.845 389.828V385.328L283.253 381.8H287.177V407H282.281V387.02ZM302.219 402.32H290.051V397.388L301.247 381.8H307.115V398.144H310.175V402.32H307.115V407H302.219V402.32ZM302.435 398.288V387.272H302.291L294.839 397.784V398.288H302.435ZM321.788 395.696H334.46V399.8H321.788V395.696ZM352.031 387.02L346.595 389.828V385.328L353.003 381.8H356.927V407H352.031V387.02ZM360.845 401.492L373.805 389.72V387.164L372.617 385.976H366.785L365.597 387.164V389.72H360.701V385.688L364.589 381.8H374.813L378.701 385.688V391.16L365.921 402.536V402.896H378.845V407H360.845V401.492ZM381.553 405.452V403.148L383.101 401.6H385.729L387.241 403.184V405.416L385.729 407H383.101L381.553 405.452ZM392.32 387.02L386.884 389.828V385.328L393.292 381.8H397.216V407H392.32V387.02ZM412.51 386.3V385.976H399.91V381.8H417.622V386.408L407.506 407H402.322L412.51 386.3Z" fill="white"/>
<path d="M51.9304 316.215H64.2046V328.485H51.9304V347H37.535V272.952H51.9304V316.215ZM83.2413 303.945H64.2046V316.215H83.2413V347H97.6368V272.952H83.2413V303.945ZM160.589 272.958L172.759 285.124V334.835L160.589 347H122.498L110.328 334.835V285.124L122.498 272.958H160.589ZM158.364 290.621L152.969 285.228H130.112L124.717 290.621V329.331L130.112 334.724H152.969L158.364 329.331V290.621ZM231.371 329.331L225.976 334.724H205.235L199.84 329.331V285.228H212.059V272.958H199.785V284.824H185.451V334.301L198.148 346.994H233.064L245.761 334.301V272.958H231.371V329.331ZM275.809 303.1L272.32 299.612V288.715L275.809 285.228H296.758L300.247 288.715V295.059H314.428V284.376L302.999 272.952H269.567L258.139 284.376V303.945L269.567 315.37H297.604L301.093 318.857V331.127L297.494 334.724H275.594L272.106 331.237V324.998H257.931V335.576L269.359 347H303.643L315.28 335.368V314.53L303.852 303.106H275.815L275.809 303.1ZM380.452 285.124V272.958H326.916V334.835H341.306V315.799H377.386V303.847H341.306V285.124H380.452ZM380.452 346.994V334.828H341.306V346.994H380.452ZM158.664 196.71L166.175 204.328V223.683L154.747 235.107H119.935V223.052H147.445L151.994 218.504V208.14L147.445 203.593H119.935V223.052H105.865V161.071H152.313L162.895 171.649V192.383L158.664 196.722V196.71ZM148.72 176.822L145.017 173.12H119.941V192.052H144.913L148.72 188.246V176.822ZM251.352 235.101H265.742V161.065H251.352V235.101ZM280.021 161.065V222.941H294.41V161.065H280.021ZM294.41 235.101H329.142V222.935H294.41V235.101ZM339.381 161.065V222.831H353.77V173.329H379.692L385.087 178.722V217.431L379.692 222.825H353.77V235.095H386.779L399.476 222.402V173.745L386.779 161.053H339.381V161.065ZM465.709 235.101V222.935H426.563L426.477 235.101H465.715H465.709ZM412.173 222.831L426.563 222.935V203.899H462.644V191.948H426.563V173.224H465.709V161.059H412.173V222.825V222.831ZM526.865 202.208L534.486 210.561V235.101H520.097V213.84L513.751 206.755H490.687V222.831H476.297V161.065H522.745L534.069 172.489V194.914L526.871 202.214L526.865 202.208ZM519.882 176.822L516.179 173.12H490.68V194.908H516.179L519.882 191.206V176.822ZM502.948 235.101V222.831H490.674V235.101H502.948ZM222.678 161.065V217.438L217.282 222.831H196.541L191.146 217.438V173.335H203.194V161.065H190.919V172.93H176.757V222.408L189.454 235.101H224.37L237.067 222.408V161.065H222.678ZM121.419 49.2083L148.505 123.244H133.901L127.869 106.85H101.843L95.8097 123.244H81.2058L108.292 49.2083H121.413H121.419ZM125.49 92.4592L114.626 67.9195L104.332 92.4592L107.925 96.0568H121.897L125.49 92.4592ZM76.3439 49.2083H42.2742V49.1348H30V61.4046H42.2742V61.3678H52.1144V123.244H66.5037V61.3678H76.3439V49.2022V49.2083ZM156.439 123.244H170.828V49.2083H156.439V123.244ZM254.093 49.2083L245.099 101.456H244.676L230.286 49.2083H219.496L204.788 101.456H204.365L195.37 49.2083H180.877L196.216 123.244H209.656L224.683 71.2046H225.106L239.814 123.244H253.253L268.592 49.2083H254.099H254.093ZM307.211 49.2083L334.298 123.244H319.694L313.661 106.85H287.635L281.602 123.244H266.998L294.085 49.2083H307.205H307.211ZM311.282 92.4592L300.418 67.9195L290.124 92.4592L293.717 96.0568H307.69L311.282 92.4592ZM88.6181 61.4046H76.3439V73.6745H88.6181V61.4046ZM401.696 61.4782H413.97V49.2083H401.696V61.4782ZM341.698 123.244H355.56V49.2083H341.698V123.244ZM387.834 110.974L367.834 49.2083H355.56L381.795 123.244H401.69V61.4782H387.827V110.98L387.834 110.974Z" fill="white"/>
<path d="M415.135 272.793H404.681V268.681H430.352V272.793H419.898V303.357H415.141V272.793H415.135Z" fill="white"/>
<path d="M435.054 267.988H439.665V283.396L444.373 278.689H452.153L457.009 283.543V303.357H452.399V284.928L450.167 282.697H445.36L439.659 288.391V303.351H435.048V267.982L435.054 267.988Z" fill="white"/>
<path d="M463.201 298.65V283.445L467.959 278.689H480.895L485.653 283.445V292.46H467.812V297.216L469.994 299.398H478.866L481.049 297.265V295.58H485.61V298.65L480.951 303.357H467.916L463.208 298.65H463.201ZM481.042 288.844V284.83L478.811 282.648H470.037L467.806 284.83V288.844H481.036H481.042Z" fill="white"/>
<path d="M407.158 312.324H427.378L432.087 317.03V326.64L429.855 328.92L433.619 332.732V341.993L428.617 346.994H407.158V312.317V312.324ZM425.196 327.578L427.427 325.347V318.563L425.196 316.381H411.818V327.578H425.196ZM426.336 342.937L428.96 340.363V334.124L426.336 331.501H411.818V342.943H426.336V342.937Z" fill="white"/>
<path d="M439.567 311.631H444.177V347.001H439.567V311.631Z" fill="white"/>
<path d="M450.866 342.244V327.088L455.624 322.332H468.805L473.514 327.088V342.244L468.805 347H455.624L450.866 342.244ZM466.672 342.986L468.903 340.804V328.516L466.672 326.334H457.702L455.47 328.516V340.804L457.702 342.986H466.672Z" fill="white"/>
<path d="M479.455 342.294V327.033L484.163 322.326H496.603L501.361 327.082V330.6H496.75V328.571L494.518 326.341H486.291L484.059 328.571V340.755L486.291 342.986H494.518L496.75 340.755V338.727H501.361V342.245L496.603 347.001H484.163L479.455 342.294Z" fill="white"/>
<path d="M506.811 311.631H511.421V332.138H516.725L523.665 322.332H528.772L520.495 334.222L529.269 347.001H524.162L516.682 336.202H511.428V347.001H506.817V311.631H506.811Z" fill="white"/>
<path d="M30.1962 27.7389L48.2335 10.3515V6.33717L46.0509 4.15532H36.9341L34.7515 6.33717V9.26061H30V4.80497L34.8067 0H48.1844L52.9911 4.80497V11.7428L35.0519 28.934V30.5704H53.1873V34.6828H30.1962V27.745V27.7389Z" fill="#FF3366"/>
<path d="M58.6438 29.4734V5.20334L63.849 0H78.5204L83.7256 5.20334V29.4795L78.5204 34.6828H63.849L58.6438 29.4795V29.4734ZM76.3316 30.5153L78.9557 27.8921V6.78457L76.3316 4.15532H66.0255L63.4014 6.78457V27.886L66.0255 30.5091H76.3316V30.5153Z" fill="#FF3366"/>
<path d="M89.3661 27.7389L107.403 10.3515V6.33717L105.221 4.15532H96.1041L93.9214 6.33717V9.26061H89.1638V4.80497L93.9705 0H107.348L112.155 4.80497V11.7428L94.2157 28.934V30.5704H112.351V34.6828H89.3539V27.745L89.3661 27.7389Z" fill="#FF3366"/>
<path d="M132.528 27.7879H115.582V21.6469L130.597 0H137.286V23.6265H141.498V27.7879H137.286V34.6706H132.528V27.7879ZM132.632 23.7797V4.60885H132.387L120.248 22.2475V23.7858H132.638L132.632 23.7797Z" fill="#FF3366"/>
<path d="M556.134 14.0213L437.08 27.3122C435.178 27.5224 433.811 29.2388 434.021 31.1353L436.82 56.1608C436.82 56.1608 436.775 56.1408 436.77 56.1358L439.448 80.0954C439.808 83.3231 444.018 84.3239 445.79 81.6017L453.294 70.0822C453.86 69.2165 454.781 68.6461 455.812 68.531L560.92 56.7964C562.822 56.5862 564.189 54.8698 563.979 52.9732L559.969 17.0788C559.759 15.1773 558.042 13.8112 556.144 14.0213H556.134Z" fill="#FF3366"/>
<path d="M450.2 39.1775L443.372 39.9382L443.012 36.7205L460.442 34.7739L460.803 37.9916L453.975 38.7522L456.157 58.2882L452.388 58.7085L450.205 39.1725L450.2 39.1775Z" fill="white"/>
<path d="M466.75 34.0732L470.324 33.6729L481.092 55.5057L477.252 55.9361L474.699 50.7568L466.214 51.7026L464.868 57.3172L461.028 57.7476L466.745 34.0732H466.75ZM473.473 47.7043L469.047 38.4568H468.982L466.775 48.45L473.473 47.6993V47.7043Z" fill="white"/>
<path d="M481.317 32.4472L485.091 32.0269L487.634 54.7805L483.86 55.2008L481.317 32.4472Z" fill="white"/>
<path d="M489.802 31.501L493.246 31.1157L505.826 46.4633H505.891L504.043 29.9097L507.653 29.5044L510.196 52.258L506.747 52.6433L494.172 37.3308H494.107L495.954 53.8493L492.345 54.2547L489.802 31.501Z" fill="white"/>
<path d="M518.515 28.2934L522.094 27.8931L532.862 49.7259L529.023 50.1563L526.47 44.9771L517.985 45.9228L516.638 51.5374L512.799 51.9678L518.515 28.2934ZM525.238 41.9246L520.813 32.677H520.748L518.54 42.6702L525.238 41.9196V41.9246Z" fill="white"/>
<path d="M532.917 26.6871L536.361 26.3017L548.941 41.6493H549.006L547.159 25.0958L550.768 24.6904L553.311 47.4441L549.862 47.8294L537.287 32.5168H537.222L539.069 49.0354L535.46 49.4407L532.917 26.6871Z" fill="white"/>
</svg>
