<svg width="180" height="105" viewBox="0 0 180 105" fill="none" xmlns="http://www.w3.org/2000/svg">
<g clip-path="url(#clip0_17_1856)">
<path d="M7.82485 94.1481H12.2043V98.4733H7.82485V105H2.68849V78.8974H7.82485V94.1481ZM18.9966 89.8228H12.2043V94.1481H18.9966V105H24.133V78.8974H18.9966V89.8228ZM46.5947 78.8996L50.937 83.1881V100.712L46.5947 105H33.0035L28.6612 100.712V83.1881L33.0035 78.8996H46.5947ZM45.8006 85.126L43.8756 83.2248H35.7204L33.7954 85.126V98.7714L35.7204 100.673H43.8756L45.8006 98.7714V85.126ZM71.8499 98.7714L69.9249 100.673H62.5244L60.5994 98.7714V83.2248H64.9592V78.8996H60.5797V83.0822H55.4652V100.524L59.9956 104.998H72.4537L76.9841 100.524V78.8996H71.8499V98.7714ZM87.7053 89.5247L86.4605 88.2954V84.4541L87.7053 83.2248H95.1801L96.4248 84.4541V86.6902H101.485V82.9245L97.407 78.8974H85.4783L81.4008 82.9245V89.8228L85.4783 93.8499H95.482L96.7267 95.0792V99.4044L95.4426 100.673H87.6287L86.384 99.4433V97.244H81.3264V100.973L85.404 105H97.6367L101.789 100.899V93.5539L97.7111 89.5269H87.7075L87.7053 89.5247ZM125.042 83.1859V78.8974H105.941V100.709H111.075V93.999H123.949V89.7861H111.075V83.1859H125.042ZM125.042 104.998V100.709H111.075V104.998H125.042ZM45.9078 52.0215L48.5876 54.7069V61.5296L44.51 65.5567H32.0891V61.3071H41.9046L43.5278 59.704V56.0507L41.9046 54.4476H32.0891V61.3071H27.0687V39.4584H43.6415L47.4172 43.1874V50.4962L45.9078 52.0258V52.0215ZM42.3596 45.0108L41.0384 43.7059H32.0913V50.3795H41.0012L42.3596 49.0379V45.0108ZM78.9791 65.5545H84.1133V39.4563H78.9791V65.5545ZM89.2081 39.4563V61.2682H94.3423V39.4563H89.2081ZM94.3423 65.5545H106.735V61.266H94.3423V65.5545ZM110.388 39.4563V61.2293H115.522V43.7793H124.771L126.696 45.6805V59.3259L124.771 61.2271H115.522V65.5524H127.3L131.83 61.0781V43.9263L127.3 39.452H110.388V39.4563ZM155.462 65.5545V61.266H141.495L141.464 65.5545H155.464H155.462ZM136.361 61.2293L141.495 61.266V54.5557H154.369V50.3428H141.495V43.7426H155.462V39.4541H136.361V61.2271V61.2293ZM177.283 53.9594L180.002 56.9041V65.5545H174.868V58.0599L172.604 55.5624H164.374V61.2293H159.24V39.4563H175.813L179.853 43.4834V51.3884L177.285 53.9615L177.283 53.9594ZM174.791 45.0108L173.47 43.7059H164.372V51.3863H173.47L174.791 50.0814V45.0108ZM168.749 65.5545V61.2293H164.37V65.5545H168.749ZM68.748 39.4563V59.3281L66.823 61.2293H59.4225L57.4974 59.3281V43.7815H61.796V39.4563H57.4165V43.6389H52.3633V61.0802L56.8937 65.5545H69.3518L73.8822 61.0802V39.4563H68.748ZM32.6185 0.0259254L42.2831 26.1242H37.0723L34.9198 20.345H25.6337L23.4811 26.1242H18.2704L27.9371 0.0259254H32.6185ZM34.071 15.2722L30.1947 6.62178L26.5218 15.2722L27.8037 16.5404H32.7891L34.071 15.2722ZM16.5357 0.0259254H4.37947V0H0V4.32522H4.37947V4.31226H7.89048V26.1242H13.0246V4.31226H16.5357V0.0259254ZM45.1138 26.1242H50.2479V0.0259254H45.1138V26.1242ZM79.957 0.0259254L76.7478 18.4438H76.5969L71.4627 0.0259254H67.6127L62.3647 18.4438H62.2138L59.0047 0.0259254H53.8333L59.3065 26.1242H64.1016L69.4633 7.77978H69.6143L74.8622 26.1242H79.6573L85.1305 0.0259254H79.9592H79.957ZM98.9099 0.0259254L108.574 26.1242H103.364L101.211 20.345H91.925L89.7725 26.1242H84.5618L94.2285 0.0259254H98.9099ZM100.362 15.2722L96.4861 6.62178L92.8132 15.2722L94.0951 16.5404H99.0805L100.362 15.2722ZM20.9151 4.32522H16.5357V8.65044H20.9151V4.32522ZM132.622 4.34898H137.002V0.0259254H132.622V4.35114V4.34898ZM111.215 26.1242H116.161V0.0259254H111.215V26.1242ZM127.676 21.7989L120.54 0.0259254H116.161L125.521 26.1242H132.62V4.34898H127.674V21.7989H127.676Z" fill="#FF3366"/>
</g>
<defs>
<clipPath id="clip0_17_1856">
<rect width="180" height="105" fill="white"/>
</clipPath>
</defs>
</svg>
