<svg width="180" height="106" viewBox="0 0 180 106" fill="none" xmlns="http://www.w3.org/2000/svg">
<path d="M7.82485 94.6481H12.2043V98.9733H7.82485V105.5H2.68849V79.3974H7.82485V94.6481ZM18.9966 90.3228H12.2043V94.6481H18.9966V105.5H24.133V79.3974H18.9966V90.3228ZM46.5947 79.3996L50.937 83.6881V101.212L46.5947 105.5H33.0035L28.6612 101.212V83.6881L33.0035 79.3996H46.5947ZM45.8006 85.626L43.8756 83.7248H35.7204L33.7954 85.626V99.2714L35.7204 101.173H43.8756L45.8006 99.2714V85.626ZM71.8499 99.2714L69.9249 101.173H62.5244L60.5994 99.2714V83.7248H64.9592V79.3996H60.5797V83.5822H55.4652V101.024L59.9956 105.498H72.4537L76.9841 101.024V79.3996H71.8499V99.2714ZM87.7053 90.0247L86.4605 88.7954V84.9541L87.7053 83.7248H95.1801L96.4248 84.9541V87.1902H101.485V83.4245L97.407 79.3974H85.4783L81.4008 83.4245V90.3228L85.4783 94.3499H95.482L96.7267 95.5792V99.9044L95.4426 101.173H87.6287L86.384 99.9433V97.744H81.3264V101.473L85.404 105.5H97.6367L101.789 101.399V94.0539L97.7111 90.0269H87.7075L87.7053 90.0247ZM125.042 83.6859V79.3974H105.941V101.209H111.075V94.499H123.949V90.2861H111.075V83.6859H125.042ZM125.042 105.498V101.209H111.075V105.498H125.042ZM45.9078 52.5215L48.5876 55.2069V62.0296L44.51 66.0567H32.0891V61.8071H41.9046L43.5278 60.204V56.5507L41.9046 54.9476H32.0891V61.8071H27.0687V39.9584H43.6415L47.4172 43.6874V50.9962L45.9078 52.5258V52.5215ZM42.3596 45.5108L41.0384 44.2059H32.0913V50.8795H41.0012L42.3596 49.5379V45.5108ZM78.9791 66.0545H84.1133V39.9563H78.9791V66.0545ZM89.2081 39.9563V61.7682H94.3423V39.9563H89.2081ZM94.3423 66.0545H106.735V61.766H94.3423V66.0545ZM110.388 39.9563V61.7293H115.522V44.2793H124.771L126.696 46.1805V59.8259L124.771 61.7271H115.522V66.0524H127.3L131.83 61.5781V44.4263L127.3 39.952H110.388V39.9563ZM155.462 66.0545V61.766H141.495L141.464 66.0545H155.464H155.462ZM136.361 61.7293L141.495 61.766V55.0557H154.369V50.8428H141.495V44.2426H155.462V39.9541H136.361V61.7271V61.7293ZM177.283 54.4594L180.002 57.4041V66.0545H174.868V58.5599L172.604 56.0624H164.374V61.7293H159.24V39.9563H175.813L179.853 43.9834V51.8884L177.285 54.4615L177.283 54.4594ZM174.791 45.5108L173.47 44.2059H164.372V51.8863H173.47L174.791 50.5814V45.5108ZM168.749 66.0545V61.7293H164.37V66.0545H168.749ZM68.748 39.9563V59.8281L66.823 61.7293H59.4225L57.4974 59.8281V44.2815H61.796V39.9563H57.4165V44.1389H52.3633V61.5802L56.8937 66.0545H69.3518L73.8822 61.5802V39.9563H68.748ZM32.6185 0.525925L42.2831 26.6242H37.0723L34.9198 20.845H25.6337L23.4811 26.6242H18.2704L27.9371 0.525925H32.6185ZM34.071 15.7722L30.1947 7.12178L26.5218 15.7722L27.8037 17.0404H32.7891L34.071 15.7722ZM16.5357 0.525925H4.37947V0.5H0V4.82522H4.37947V4.81226H7.89048V26.6242H13.0246V4.81226H16.5357V0.525925ZM45.1138 26.6242H50.2479V0.525925H45.1138V26.6242ZM79.957 0.525925L76.7478 18.9438H76.5969L71.4627 0.525925H67.6127L62.3647 18.9438H62.2138L59.0047 0.525925H53.8333L59.3065 26.6242H64.1016L69.4633 8.27978H69.6143L74.8622 26.6242H79.6573L85.1305 0.525925H79.9592H79.957ZM98.9099 0.525925L108.574 26.6242H103.364L101.211 20.845H91.925L89.7725 26.6242H84.5618L94.2285 0.525925H98.9099ZM100.362 15.7722L96.4861 7.12178L92.8132 15.7722L94.0951 17.0404H99.0805L100.362 15.7722ZM20.9151 4.82522H16.5357V9.15044H20.9151V4.82522ZM132.622 4.84898H137.002V0.525925H132.622V4.85114V4.84898ZM111.215 26.6242H116.161V0.525925H111.215V26.6242ZM127.676 22.2989L120.54 0.525925H116.161L125.521 26.6242H132.62V4.84898H127.674V22.2989H127.676Z" fill="white"/>
</svg>
