<svg width="480" height="320" viewBox="0 0 480 320" fill="none" xmlns="http://www.w3.org/2000/svg">
<g opacity="0.1">
<path d="M450.022 47.3609H452.266V49.1324H454.511V50.1969H456.755V51.9604H459V31.5687H456.755V29.7972H454.511V28.7327H452.266V26.9692H441.067L372.934 0L181.761 30.1229H153.529V31.0761L152.59 32.0135L149 35.5962L149.032 35.6279H149V37.0419H156.761V41.2283H157.381V42.7615H158.933V62.2873C158.933 62.335 158.918 62.5018 158.933 62.7242V62.7322C158.957 63.1611 159.085 63.7966 159.57 64.162C159.777 64.3209 159.817 64.599 159.729 64.7658C159.658 64.9167 159.499 64.9564 159.268 64.8929C158.91 64.7976 158.87 64.7658 158.806 64.6466C158.782 64.6069 158.822 64.2256 158.83 64.2177L158.329 64.2892C158.249 64.4401 158.042 64.6625 158.153 64.9247C158.289 65.2345 158.599 65.4489 159.085 65.584C159.22 65.6158 159.347 65.6396 159.459 65.6396C159.92 65.6396 160.223 65.3775 160.366 65.0835C160.613 64.5831 160.454 63.9476 160 63.606C159.61 63.3121 159.451 62.6289 159.459 62.3826V42.7535H160.979V41.2204H161.6V37.034H364.162V320H365.587V314.574L366.064 315.051L368.667 317.641L366.303 320H368.309L369.686 318.626V320H371.811V318.626L373.188 320H375.194L372.83 317.641L375.433 315.051L375.91 314.574V320H377.327V37.0419H450.014V47.3609H450.022ZM362.745 3.94807L295.145 30.1229H197.553L362.745 3.94807ZM150.982 35.6279L153.601 33.0144L156.187 35.5962L156.219 35.6279H150.99H150.982ZM157.19 34.5952L154.603 32.0135L154.126 31.5289H160.247L159.769 32.0056L157.182 34.5873L157.19 34.5952ZM158.161 35.6279L158.193 35.5962L160.78 33.0144L163.367 35.5962L163.399 35.6279H158.169H158.161ZM161.775 32.0215L161.297 31.5369H167.418L166.941 32.0135L164.354 34.5952L161.767 32.0135L161.775 32.0215ZM165.341 35.6279L165.373 35.5962L167.96 33.0144L170.546 35.5962L170.578 35.6279H165.349H165.341ZM168.955 32.0215L168.477 31.5369H174.598L174.12 32.0135L171.533 34.5952L168.947 32.0135L168.955 32.0215ZM172.512 35.6279L172.544 35.5962L175.131 33.0144L177.75 35.6279H172.52H172.512ZM176.126 32.0215L175.648 31.5369H181.801L181.324 32.0135L178.721 34.6111L176.118 32.0215H176.126ZM179.716 35.6279L182.334 33.0144L184.921 35.5962L184.953 35.6279H179.724H179.716ZM183.329 32.0215L182.852 31.5369H188.973L188.495 32.0135L185.908 34.5952L183.321 32.0135L183.329 32.0215ZM192.061 35.6279H186.895L186.927 35.5962L189.514 33.0144L192.069 35.5644L192.037 35.5962L192.069 35.6279H192.061ZM190.509 32.0215L190.031 31.5369H196.089L195.611 32.0135L193.056 34.5635L190.501 32.0135L190.509 32.0215ZM194.067 35.6279L194.099 35.5962L194.067 35.5644L196.622 33.0144L199.209 35.5962L199.241 35.6279H194.075H194.067ZM197.625 32.0215L197.147 31.5369H203.268L202.791 32.0135L200.204 34.5952L197.617 32.0135L197.625 32.0215ZM201.175 35.6279L201.207 35.5962L203.793 33.0144L206.412 35.6279H201.183H201.175ZM204.796 32.0215L204.319 31.5369H210.464L209.986 32.0135L207.383 34.6111L204.78 32.0135L204.796 32.0215ZM208.378 35.6279L210.997 33.0144L213.584 35.5962L213.615 35.6279H208.386H208.378ZM212 32.0215L211.522 31.5369H217.643L217.165 32.0135L214.587 34.5952L211.992 32.0135L212 32.0215ZM215.558 35.6279L215.589 35.5962L218.176 33.0144L220.763 35.5962L220.787 35.6279H215.558ZM219.179 32.0215L218.702 31.5369H224.822L224.345 32.0135L221.758 34.5952L219.171 32.0135L219.179 32.0215ZM222.737 35.6279L222.761 35.5962L225.348 33.0144L227.927 35.5962L227.959 35.6279H222.729H222.737ZM226.351 32.0215L225.873 31.5369H231.994L231.516 32.0135L228.93 34.5952L226.343 32.0135L226.351 32.0215ZM229.909 35.6279L229.941 35.5962L232.527 33.0144L235.146 35.6279H229.917H229.909ZM233.53 32.0215L233.053 31.5369H239.197L238.72 32.0135L236.117 34.6111L233.514 32.0215H233.53ZM237.112 35.6279L239.731 33.0144L242.318 35.5962L242.349 35.6279H237.12H237.112ZM240.734 32.0215L240.256 31.5369H246.377L245.899 32.0135L243.312 34.5952L240.726 32.0135L240.734 32.0215ZM244.292 35.6279L244.323 35.5962L246.91 33.0144L249.489 35.5882L249.521 35.62H244.299L244.292 35.6279ZM247.905 32.0215L247.428 31.5369H253.541L253.063 32.0135L250.484 34.5952L247.905 32.0215ZM251.463 35.6279L251.495 35.5962L254.074 33.0144L256.661 35.5962L256.692 35.6279H251.471H251.463ZM255.069 32.0215L254.591 31.5369H260.712L260.234 32.0135L257.648 34.5952L255.061 32.0135L255.069 32.0215ZM258.635 35.6279L258.666 35.5962L261.253 33.0144L263.872 35.6279H258.643H258.635ZM262.248 32.0215L261.771 31.5369H267.923L267.446 32.0135L264.851 34.6111L262.248 32.0135V32.0215ZM265.83 35.6279L268.449 33.0144L271.028 35.5962L271.059 35.6279H265.83ZM269.452 32.0215L268.974 31.5369H275.095L274.617 32.0135L272.031 34.5952L269.444 32.0135L269.452 32.0215ZM273.01 35.6279L273.041 35.5962L275.628 33.0144L278.215 35.5962L278.247 35.6279H273.017H273.01ZM276.631 32.0215L276.154 31.5369H282.274L281.797 32.0135L279.21 34.5952L276.631 32.0135V32.0215ZM280.189 35.6279L280.221 35.5962L282.808 33.0144L285.395 35.5962L285.426 35.6279H280.197H280.189ZM283.803 32.0215L283.325 31.5369H289.446L288.968 32.0135L286.382 34.5952L283.795 32.0135L283.803 32.0215ZM287.361 35.6279L287.392 35.5962L289.979 33.0144L292.598 35.6279H287.369H287.361ZM290.982 32.0215L290.505 31.5369H296.657L296.18 32.0135L293.577 34.6111L290.974 32.0215H290.982ZM294.564 35.6279L297.183 33.0144L299.769 35.5962L299.801 35.6279H294.572H294.564ZM298.186 32.0215L297.708 31.5369H303.829L303.351 32.0135L300.764 34.5952L298.178 32.0135L298.186 32.0215ZM306.909 35.6279H301.743L301.775 35.5962L304.362 33.0144L306.917 35.5644L306.885 35.5962L306.917 35.6279H306.909ZM305.357 32.0215L304.88 31.5369H310.937L310.459 32.0135L307.904 34.5635L305.349 32.0135L305.357 32.0215ZM308.915 35.6279L308.939 35.5962L308.907 35.5644L311.462 33.0144L314.049 35.5962L314.081 35.6279H308.915ZM312.473 32.0215L311.995 31.5369H318.116L317.639 32.0135L315.052 34.5952L312.465 32.0135L312.473 32.0215ZM316.031 35.6279L316.063 35.5962L318.649 33.0144L321.268 35.6279H316.039H316.031ZM319.644 32.0215L319.167 31.5369H325.32L324.842 32.0135L322.239 34.6111L319.636 32.0135L319.644 32.0215ZM323.234 35.6279L325.853 33.0144L328.44 35.5962L328.472 35.6279H323.242H323.234ZM326.848 32.0215L326.37 31.5369H332.491L332.014 32.0135L329.427 34.5952L326.84 32.0135L326.848 32.0215ZM330.406 35.6279L330.438 35.5962L333.024 33.0144L335.611 35.5962L335.643 35.6279H330.414H330.406ZM334.027 32.0215L333.55 31.5369H339.671L339.193 32.0135L336.606 34.5952L334.019 32.0135L334.027 32.0215ZM337.585 35.6279L337.617 35.5962L340.204 33.0144L342.791 35.5962L342.823 35.6279H337.593H337.585ZM341.199 32.0215L340.721 31.5369H346.842L346.365 32.0135L343.778 34.5952L341.191 32.0135L341.199 32.0215ZM344.757 35.6279L344.789 35.5962L347.375 33.0144L349.994 35.6279H344.765H344.757ZM348.378 32.0215L347.901 31.5369H354.053L353.576 32.0135L350.973 34.6111L348.37 32.0135L348.378 32.0215ZM351.96 35.6279L354.579 33.0144L357.166 35.5962L357.198 35.6279H351.968H351.96ZM355.582 32.0215L355.104 31.5369H361.225L360.747 32.0135L358.161 34.5952L355.574 32.0135L355.582 32.0215ZM364.17 35.6279H359.14L359.171 35.5962L361.758 33.0144L364.178 35.4293V35.6279H364.17ZM366.072 313.049L365.595 313.526V307.417L366.072 307.894L368.659 310.467L366.072 313.049ZM366.072 42.8647L368.659 45.4385L366.072 48.0203L365.595 48.4969V42.3881L366.072 42.8647ZM365.595 41.3395V37.0419H366.279V35.906L368.659 38.2812L366.072 40.8629L365.595 41.3395ZM366.072 50.03L368.659 52.6038L366.072 55.1856L365.595 55.6622V49.5534L366.072 50.03ZM366.072 57.1874L368.675 59.785L366.072 62.3826L365.595 62.8593V56.7187L366.072 57.1953V57.1874ZM366.072 64.3765L368.659 66.9503L366.072 69.5321L365.595 70.0087V63.8999L366.072 64.3765ZM366.072 71.5418L368.627 74.0918L366.072 76.6418L365.595 77.1104V71.0652L366.072 71.5418ZM366.072 78.6436L368.659 81.2174L366.072 83.7991L365.595 84.2757V78.167L366.072 78.6436ZM366.072 85.801L368.675 88.3906L366.072 90.9883L365.595 91.4649V85.3243L366.072 85.801ZM366.072 92.9901L368.659 95.5718L366.072 98.1536L365.595 98.6223V92.5135L366.072 92.9901ZM366.072 100.155L368.659 102.729L366.072 105.311L365.595 105.788V99.6788L366.072 100.155ZM366.072 107.313L368.659 109.887L366.072 112.468L365.595 112.945V106.836L366.072 107.313ZM366.072 114.478L368.675 117.068L366.072 119.665L365.595 120.142V114.001L366.072 114.478ZM366.072 121.667L368.659 124.241L366.072 126.823L365.595 127.299V121.191L366.072 121.667ZM366.072 128.825L368.651 131.398L366.072 133.972L365.595 134.449V128.348L366.072 128.825ZM366.072 135.982L368.659 138.556L366.072 141.137L365.595 141.614V135.505L366.072 135.982ZM366.072 143.139L368.675 145.729L366.072 148.327L365.595 148.795V142.663L366.072 143.139ZM366.072 150.328L368.659 152.902L366.072 155.484L365.595 155.961V149.852L366.072 150.328ZM366.072 157.486L368.659 160.068L366.072 162.649L365.595 163.126V157.017L366.072 157.494V157.486ZM366.072 164.651L368.659 167.225L366.072 169.807L365.595 170.283V164.174L366.072 164.651ZM366.072 171.816L368.675 174.406L366.072 177.004L365.595 177.48V171.34L366.072 171.816ZM366.072 179.006L368.659 181.579L366.072 184.161L365.595 184.63V178.521L366.072 178.998V179.006ZM366.072 186.163L368.627 188.713L366.072 191.263L365.595 191.732V185.686L366.072 186.163ZM366.072 193.265L368.659 195.846L366.072 198.428L365.595 198.905V192.796L366.072 193.273V193.265ZM366.072 200.422L368.675 203.012L366.072 205.609L365.595 206.086V199.945L366.072 200.422ZM366.072 207.611L368.659 210.185L366.072 212.767L365.595 213.243V207.135L366.072 207.611ZM366.072 214.776L368.659 217.35L366.072 219.932L365.595 220.409V214.3L366.072 214.776ZM366.072 221.934L368.659 224.516L366.072 227.097L365.595 227.574V221.465L366.072 221.942V221.934ZM366.072 229.099L368.675 231.689L367.871 232.491L366.08 234.278L365.603 234.755V228.615L366.08 229.091L366.072 229.099ZM366.072 236.288L368.659 238.862L366.072 241.444L365.595 241.92V235.812L366.072 236.288ZM366.072 243.446L368.659 246.019L366.072 248.601L365.595 249.07V242.961L366.072 243.438V243.446ZM366.072 250.611L368.659 253.193L366.072 255.774L365.595 256.243V250.134L366.072 250.603V250.611ZM366.072 257.768L368.675 260.358L366.072 262.956L365.595 263.432V257.292L366.072 257.768ZM366.072 264.957L368.659 267.539L366.072 270.121L365.595 270.598V264.489L366.072 264.965V264.957ZM366.072 272.123L368.627 274.665L366.072 277.215L365.595 277.691V271.646L366.072 272.123ZM366.072 279.224L368.659 281.806L366.072 284.388L365.595 284.865V278.756L366.072 279.232V279.224ZM366.072 286.382L368.675 288.972L366.072 291.569L365.595 292.046V285.905L366.072 286.382ZM366.072 293.571L368.659 296.153L366.072 298.734L365.595 299.211V293.102L366.072 293.579V293.571ZM366.072 300.736L368.659 303.31L366.072 305.892L365.595 306.361V300.252L366.072 300.728V300.736ZM369.694 316.664L367.075 314.058L369.662 311.476L369.694 311.445V316.664ZM369.694 309.498L369.662 309.467L367.075 306.885L369.662 304.303L369.694 304.271V309.49V309.498ZM369.694 302.341L369.662 302.309L367.075 299.727L369.662 297.154L369.694 297.122V302.341ZM369.694 295.176L369.662 295.144L367.075 292.562L369.694 289.949V295.168V295.176ZM369.694 287.994L367.075 285.381L369.662 282.799L369.694 282.767V287.994ZM369.694 280.829L369.662 280.797L367.075 278.216L369.63 275.666L369.662 275.697L369.694 275.674V280.829ZM369.694 273.664L369.662 273.632L369.63 273.672L367.075 271.122L369.662 268.54L369.694 268.508V273.664ZM369.694 266.562L369.662 266.53L367.075 263.949L369.694 261.335V266.554V266.562ZM369.694 259.381L367.075 256.767L369.662 254.186L369.694 254.154V259.373V259.381ZM369.694 252.216L369.662 252.192L367.075 249.61L369.662 247.028L369.694 247.004V252.224V252.216ZM369.694 245.058L369.662 245.026L367.075 242.445L369.662 239.863L369.694 239.831V245.05V245.058ZM369.694 237.893L369.662 237.861L367.075 235.279L368.866 233.484L369.686 232.666V237.885L369.694 237.893ZM369.694 230.704L367.075 228.098L369.662 225.516L369.694 225.485V230.704ZM369.694 223.546L369.662 223.515L367.075 220.933L369.662 218.351L369.694 218.319V223.538V223.546ZM369.694 216.381L369.662 216.349L367.075 213.768L369.662 211.186L369.694 211.154V216.373V216.381ZM369.694 209.224L369.662 209.192L367.075 206.61L369.694 203.997V209.216V209.224ZM369.694 202.035L367.075 199.421L369.662 196.839L369.694 196.816V202.035ZM369.694 194.869L369.662 194.838L367.075 192.256L369.63 189.706L369.662 189.738L369.694 189.706V194.861V194.869ZM369.694 187.712L369.662 187.68L369.63 187.712L367.075 185.162L369.662 182.58L369.694 182.556V187.712ZM369.694 180.61L369.662 180.578L367.075 177.997L369.694 175.383V180.602V180.61ZM369.694 173.421L367.075 170.808L369.662 168.226L369.694 168.194V173.413V173.421ZM369.694 166.256L369.662 166.224L367.075 163.65L369.662 161.068L369.694 161.037V166.256ZM369.694 159.098L369.662 159.067L367.075 156.485L369.662 153.903L369.694 153.879V159.098ZM369.694 151.941L369.662 151.909L367.075 149.335L369.694 146.722V151.949V151.941ZM369.694 144.752L367.075 142.138L369.662 139.557L369.694 139.525V144.744V144.752ZM369.694 137.587L369.662 137.555L367.075 134.973L369.654 132.399L369.686 132.375V137.587H369.694ZM369.694 130.421L369.662 130.389L367.083 127.816L369.67 125.234L369.702 125.202V130.413L369.694 130.421ZM369.694 123.272L369.662 123.24L367.075 120.658L369.694 118.053V123.272ZM369.694 116.083L367.075 113.469L369.662 110.887L369.694 110.864V116.083ZM369.694 108.917L369.662 108.886L367.075 106.312L369.662 103.73L369.694 103.698V108.917ZM369.694 101.76L369.662 101.728L367.075 99.1465L369.662 96.5648L369.694 96.541V101.76ZM369.694 94.5947L369.662 94.563L367.075 91.9812L369.694 89.3677V94.5868V94.5947ZM369.694 87.4056L367.075 84.7921L369.662 82.2104L369.694 82.1865V87.4056ZM369.694 80.2482L369.662 80.2165L367.075 77.6347L369.63 75.0848L369.662 75.1165L369.694 75.0848V80.2403V80.2482ZM369.694 73.0829L369.662 73.0512L369.63 73.0829L367.075 70.533L369.662 67.9512L369.694 67.9274V73.0829ZM369.694 65.9891L369.662 65.9574L367.075 63.3756L369.694 60.7621V65.9812V65.9891ZM369.694 58.8L367.075 56.1865L369.662 53.6047L369.694 53.573V58.792V58.8ZM369.694 51.6347L369.662 51.6029L367.075 49.0212L369.662 46.4394L369.694 46.4077V51.6267V51.6347ZM369.694 44.4773L369.662 44.4455L367.075 41.8638L369.662 39.2821L369.694 39.2582V44.4773ZM369.694 37.312L369.662 37.2802L367.075 34.6985L369.694 32.085V37.3041V37.312ZM369.551 30.2341L366.072 33.7055L365.261 34.5158L362.761 32.0215L361.766 31.0205V30.1229H301.998L371.135 3.0107L369.559 30.2341H369.551ZM373.618 2.93126L434.317 26.9612H378.394V28.3514L377.455 29.7177L375.011 33.2766L372.026 30.2976L373.61 2.92332L373.618 2.93126ZM371.819 32.0929L374.199 34.4681L373.873 34.9448L373.905 34.9845H373.873V35.2705L371.851 37.2802L371.819 37.312V32.0929ZM371.819 39.2582L371.851 39.29L374.438 41.8718L371.851 44.4535L371.819 44.4853V39.2662V39.2582ZM371.819 46.4156L371.851 46.4474L374.438 49.0291L371.851 51.6109L371.819 51.6347V46.4156ZM371.819 53.5809L371.851 53.6127L374.438 56.1944L371.819 58.8079V53.5889V53.5809ZM371.819 60.7621L374.438 63.3756L371.851 65.9574L371.819 65.9891V60.7701V60.7621ZM371.819 67.9274L371.851 67.9592L374.438 70.5409L371.883 73.0909L371.851 73.0591L371.819 73.0909V67.9354V67.9274ZM371.819 75.0927L371.851 75.1245L371.883 75.0927L374.438 77.6427L371.851 80.2244L371.819 80.2562V75.1007V75.0927ZM371.819 82.1865L371.851 82.2183L374.438 84.8L371.819 87.4136V82.1945V82.1865ZM371.819 89.3757L374.438 91.9892L371.851 94.5709L371.819 94.5947V89.3757ZM371.819 96.541L371.851 96.5727L374.438 99.1545L371.851 101.736L371.819 101.768V96.5489V96.541ZM371.819 103.698L371.851 103.73L374.438 106.312L371.851 108.886L371.819 108.917V103.698ZM371.819 110.864L371.851 110.895L374.438 113.477L371.819 116.091V110.872V110.864ZM371.819 118.053L374.438 120.658L371.851 123.24L371.819 123.272V118.053ZM371.819 125.21L371.851 125.242L374.438 127.824L371.859 130.405L371.827 130.429V125.218L371.819 125.21ZM371.819 132.375L371.851 132.407L374.43 134.981L371.843 137.563L371.811 137.595V132.383L371.819 132.375ZM371.819 139.525L371.851 139.557L374.438 142.138L371.819 144.752V139.533V139.525ZM371.819 146.714L374.438 149.327L371.851 151.909L371.819 151.941V146.714ZM371.819 153.879L371.851 153.903L374.438 156.485L371.851 159.067L371.819 159.098V153.879ZM371.819 161.037L371.851 161.068L374.438 163.65L371.851 166.232L371.819 166.264V161.045V161.037ZM371.819 168.202L371.851 168.234L374.438 170.815L371.819 173.429V168.21V168.202ZM371.819 175.391L374.438 178.005L371.851 180.586L371.819 180.618V175.399V175.391ZM371.819 182.556L371.851 182.588L374.438 185.17L371.883 187.72L371.851 187.688L371.819 187.72V182.564V182.556ZM371.819 189.714L371.851 189.746L371.883 189.714L374.438 192.264L371.851 194.845L371.819 194.877V189.722V189.714ZM371.819 196.816L371.851 196.847L374.438 199.429L371.819 202.043V196.823V196.816ZM371.819 203.997L374.438 206.61L371.851 209.192L371.819 209.216V203.997ZM371.819 211.162L371.851 211.194L374.438 213.776L371.851 216.357L371.819 216.389V211.17V211.162ZM371.819 218.327L371.851 218.359L374.438 220.941L371.851 223.523L371.819 223.554V218.335V218.327ZM371.819 230.704V225.485L371.851 225.516L374.438 228.098L371.819 230.712V230.704ZM371.819 232.674L372.639 233.492L374.438 235.287L371.851 237.869L371.819 237.901V232.682V232.674ZM371.819 239.839L371.851 239.871L374.438 242.453L371.851 245.034L371.819 245.066V239.847V239.839ZM371.819 246.996L371.851 247.028L374.438 249.61L371.851 252.192L371.819 252.216V246.996ZM371.819 254.162L371.851 254.194L374.438 256.775L371.819 259.389V254.17V254.162ZM371.819 261.343L374.438 263.957L371.851 266.538L371.819 266.57V261.351V261.343ZM371.819 268.508L371.851 268.54L374.438 271.122L371.883 273.672L371.851 273.632L371.819 273.664V268.508ZM371.819 275.674L371.851 275.697L371.883 275.666L374.438 278.216L371.851 280.797L371.819 280.829V275.674ZM371.819 282.767L371.851 282.799L374.438 285.373L371.819 287.987V282.759V282.767ZM371.819 289.957L374.438 292.57L371.851 295.152L371.819 295.184V289.965V289.957ZM371.819 297.122L371.851 297.154L374.438 299.727L371.851 302.309L371.819 302.333V297.114V297.122ZM371.819 304.279L371.851 304.311L374.438 306.885L371.851 309.467L371.819 309.498V304.279ZM371.819 316.664V311.445L371.851 311.476L374.438 314.058L371.819 316.664ZM375.918 313.526L375.441 313.049L372.854 310.467L375.441 307.886L375.918 307.409V313.518V313.526ZM375.918 306.361L375.441 305.884L372.854 303.302L375.441 300.72L375.918 300.244V306.353V306.361ZM375.918 299.203L375.441 298.727L372.854 296.153L375.441 293.571L375.918 293.102V299.211V299.203ZM375.918 292.046L375.441 291.569L372.838 288.979L375.441 286.382L375.918 285.905V292.046ZM375.918 284.849L375.441 284.372L372.854 281.798L375.441 279.217L375.918 278.74V284.849ZM375.918 277.691L375.441 277.215L372.886 274.665L375.441 272.115L375.918 271.646V277.691ZM375.918 270.59L375.441 270.113L372.854 267.539L375.441 264.957L375.918 264.481V270.59ZM375.918 263.432L375.441 262.956L372.838 260.366L375.441 257.776L375.918 257.3V263.44V263.432ZM375.918 256.243L375.441 255.766L372.854 253.193L375.441 250.611L375.918 250.142V256.251V256.243ZM375.918 249.078L375.441 248.601L372.854 246.027L375.441 243.446L375.918 242.977V249.086V249.078ZM375.918 241.92L375.441 241.444L372.854 238.87L375.441 236.288L375.918 235.82V241.928V241.92ZM375.918 234.755L375.441 234.278L373.642 232.491L372.838 231.689L375.441 229.091L375.918 228.622V234.763V234.755ZM375.918 227.566L375.441 227.089L372.854 224.516L375.441 221.934L375.918 221.457V227.566ZM375.918 220.409L375.441 219.932L372.854 217.358L375.441 214.776L375.918 214.3V220.409ZM375.918 213.243L375.441 212.767L372.854 210.193L375.441 207.611L375.918 207.135V213.243ZM375.918 206.086L375.441 205.609L372.838 203.02L375.441 200.422L375.918 199.945V206.086ZM375.918 198.897L375.441 198.42L372.854 195.846L375.441 193.265L375.918 192.788V198.897ZM375.918 191.732L375.441 191.255L372.886 188.713L375.441 186.163L375.918 185.686V191.732ZM375.918 184.638L375.441 184.161L372.854 181.579L375.441 178.998L375.918 178.521V184.63V184.638ZM375.918 177.472L375.441 176.996L372.838 174.406L375.441 171.808L375.918 171.34V177.48V177.472ZM375.918 170.283L375.441 169.807L372.854 167.225L375.441 164.651L375.918 164.174V170.283ZM375.918 163.118L375.441 162.641L372.854 160.068L375.441 157.486L375.918 157.009V163.118ZM375.918 155.961L375.441 155.484L372.854 152.902L375.441 150.32L375.918 149.844V155.953V155.961ZM375.918 148.795L375.441 148.319L372.838 145.729L375.441 143.131L375.918 142.655V148.787V148.795ZM375.918 141.614L375.441 141.137L372.854 138.556L375.441 135.974L375.918 135.505V141.614ZM375.918 134.449L375.441 133.972L372.862 131.398L375.441 128.825L375.918 128.348V134.449ZM375.918 127.299L375.441 126.823L372.854 124.241L375.441 121.659L375.918 121.183V127.291V127.299ZM375.918 120.134L375.441 119.657L372.838 117.068L375.441 114.47L375.918 114.001V120.142V120.134ZM375.918 112.945L375.441 112.468L372.854 109.894L375.441 107.313L375.918 106.836V112.945ZM375.918 105.788L375.441 105.311L372.854 102.737L375.441 100.155L375.918 99.6867V105.795V105.788ZM375.918 98.6223L375.441 98.1456L372.854 95.5718L375.441 92.9901L375.918 92.5135V98.6223ZM375.918 91.4649L375.441 90.9883L372.838 88.3986L375.441 85.801L375.918 85.3243V91.4649ZM375.918 84.2757L375.441 83.7991L372.854 81.2174L375.441 78.6436L375.918 78.167V84.2757ZM375.918 77.1104L375.441 76.6338L372.886 74.0839L375.441 71.5339L375.918 71.0573V77.1025V77.1104ZM375.918 70.0166L375.441 69.54L372.854 66.9583L375.441 64.3765L375.918 63.8999V70.0087V70.0166ZM375.918 62.8513L375.441 62.3747L372.838 59.785L375.441 57.1874L375.918 56.7108V62.8513ZM375.918 55.6622L375.441 55.1856L372.854 52.6118L375.441 50.03L375.918 49.5534V55.6622ZM375.918 48.4969L375.441 48.0203L372.854 45.4385L375.441 42.8568L375.918 42.3802V48.4889V48.4969ZM375.918 41.3395L375.441 40.8629L372.854 38.2812L374.096 37.0419H375.918V41.3395ZM377.335 34.9845V34.6429H376.38L376.205 34.4681L378.465 31.1873L381.044 34.9448L381.076 34.9924H377.335V34.9845ZM379.46 29.7257L378.983 29.0266H385.104L384.626 29.7257L382.039 33.4831L379.452 29.7257H379.46ZM383.018 34.9845L383.05 34.9448L385.637 31.1873L388.224 34.9448L388.256 34.9924H383.026L383.018 34.9845ZM386.632 29.7257L386.154 29.0266H392.275L391.798 29.7257L389.211 33.4911L386.624 29.7336L386.632 29.7257ZM390.198 34.9845L390.23 34.9448L392.816 31.1873L395.403 34.9448L395.435 34.9924H390.206L390.198 34.9845ZM393.811 29.7257L393.334 29.0266H399.455L398.977 29.7257L396.39 33.4831L393.803 29.7257H393.811ZM397.369 34.9845L397.401 34.9448L399.988 31.1873L402.599 34.9924H397.369V34.9845ZM400.983 29.7257L400.505 29.0266H406.658L406.18 29.7257L403.586 33.5069L400.983 29.7257ZM404.573 34.9845L407.191 31.1794L409.778 34.9368L409.81 34.9845H404.573ZM408.194 29.7257L407.717 29.0266H413.837L413.36 29.7257L410.773 33.4831L408.186 29.7257H408.194ZM416.918 34.9845H411.752L411.784 34.9448L414.371 31.1873L416.926 34.8971L416.894 34.9448L416.918 34.9845ZM415.366 29.7257L414.888 29.0266H420.945L420.468 29.7257L417.913 33.4434L415.358 29.7336L415.366 29.7257ZM418.924 34.9845L418.956 34.9448L418.924 34.8971L421.479 31.1873L424.066 34.9448L424.097 34.9924H418.932L418.924 34.9845ZM422.482 29.7257L422.004 29.0266H428.125L427.647 29.7257L425.061 33.4831L422.474 29.7257H422.482ZM426.04 34.9845L426.071 34.9448L428.658 31.1873L431.277 34.9924H426.048L426.04 34.9845ZM429.653 29.7257L429.176 29.0266H435.328L434.851 29.7257L432.248 33.5069L429.653 29.7257ZM433.243 34.9845L435.862 31.1794L438.448 34.9368L438.48 34.9845H433.251H433.243ZM436.857 29.7257L436.379 29.0266H442.5L442.022 29.7257L439.435 33.4831L436.849 29.7257H436.857ZM440.414 34.9845L440.446 34.9448L443.033 31.1873L445.62 34.9448L445.652 34.9924H440.422L440.414 34.9845ZM444.036 29.7257L443.558 29.0266H449.679L449.202 29.7257L446.615 33.4911L444.028 29.7336L444.036 29.7257ZM447.594 34.9845L447.626 34.9448L450.022 31.4574V34.9845H447.594Z" fill="#FF3366"/>
<path d="M480 126H398V320H480V126Z" fill="#FF3366"/>
<path d="M137.863 126.314H73.4189V99.811H230.263V103.066H230.739V104.26H231.914V119.533C231.914 119.724 231.795 120.257 231.493 120.48C231.144 120.751 231.017 121.244 231.208 121.634C231.319 121.857 231.557 122.064 231.914 122.064C232.001 122.064 232.096 122.048 232.199 122.024C232.572 121.921 232.818 121.753 232.922 121.515C233.009 121.316 232.85 121.133 232.787 121.021L232.398 120.966C232.398 120.966 232.43 121.276 232.414 121.3C232.366 121.395 232.334 121.419 232.057 121.499C231.874 121.547 231.755 121.515 231.7 121.395C231.636 121.268 231.668 121.045 231.826 120.926C232.199 120.639 232.303 120.146 232.318 119.812V119.78C232.326 119.62 232.318 119.501 232.318 119.461V104.268H233.517V103.074H233.993V99.8189H240V98.7206H239.976L240 98.6967L237.223 95.9111L236.493 95.1789V94.4388H214.63L66.6102 71L13.8632 91.9795H5.2136V93.3564H3.47573V94.1841H1.73787V95.561H0V111.431H1.73787V110.054H3.47573V109.226H5.2136V107.849H6.95146V99.8269H63.2297V139.581H11.435V320H209.71V113.572H137.871V126.314H137.863ZM67.4752 127.834L67.4514 127.858L65.4755 125.876L67.4752 123.871L67.499 123.847V127.858L67.4752 127.834ZM67.499 129.418V133.429L67.4752 133.405L65.4755 131.4L67.4514 129.418L67.4752 129.442L67.499 129.418ZM67.4752 122.311L65.4755 120.305L67.499 118.275V122.334L67.4752 122.311ZM67.4752 111.144L65.4755 109.139L67.4752 107.133L67.499 107.109V111.168L67.4752 111.144ZM67.499 112.68V116.747L65.4755 114.718L67.4752 112.712L67.499 112.688V112.68ZM67.4752 105.573L65.4755 103.568L67.4752 101.562L67.499 101.538V105.597L67.4752 105.573ZM64.6978 102.788L64.3248 103.162V99.8189H65.7373L66.6975 100.782L64.6978 102.788ZM64.6978 104.348L66.6975 106.353L64.6978 108.359L64.3248 108.725V103.973L64.6978 104.348ZM64.6978 109.919L66.6975 111.924L64.6978 113.93L64.3248 114.296V109.545L64.6978 109.919ZM64.6978 115.49L66.7134 117.511L64.6978 119.533L64.3248 119.899V115.124L64.6978 115.49ZM64.6978 121.085L66.6975 123.091L64.6978 125.096L64.3248 125.462V120.711L64.6978 121.085ZM64.6978 126.656L66.6737 128.638L64.6978 130.62L64.3248 130.986V126.282L64.6978 126.656ZM64.6978 132.18L66.6975 134.185L64.6978 136.191L64.3248 136.557V131.805L64.6978 132.18ZM67.4752 134.965L67.499 134.949V139.008L65.4755 136.979L67.4752 134.965ZM72.3158 99.811V103.154L71.9429 102.78L69.9431 100.774L71.7842 98.9275V99.811H72.3158ZM71.9508 125.096L69.9511 123.091L71.9508 121.085L72.3238 120.719V125.47L71.9508 125.096ZM71.9508 119.525L69.9352 117.511L71.9508 115.49L72.3238 115.124V119.899L71.9508 119.525ZM71.9508 113.93L69.9511 111.924L71.9508 109.919L72.3238 109.545V114.296L71.9508 113.922V113.93ZM71.9508 108.359L69.9431 106.353L71.9508 104.348L72.3238 103.981V108.733L71.9508 108.359ZM69.1734 100.002L69.1496 100.026V95.9589L71.1731 97.9884L69.1734 99.994V100.002ZM69.1655 101.562L71.1652 103.568L69.1655 105.573L69.1416 105.597V101.538L69.1655 101.562ZM69.1655 107.133L71.1652 109.139L69.1655 111.144L69.1416 111.168V107.109L69.1655 107.133ZM69.1655 112.704L71.1652 114.71L69.1416 116.739V112.672L69.1655 112.696V112.704ZM71.1731 120.305L69.1734 122.311L69.1496 122.334V118.275L71.1731 120.305ZM69.1655 123.871L71.1652 125.876L70.7287 126.314H69.4987V127.547L69.1972 127.85L69.1734 127.826L69.1496 127.85V123.839L69.1734 123.863L69.1655 123.871ZM69.1655 129.442L69.1893 129.418L69.4908 129.72V133.079L69.1655 133.405L69.1416 133.429V129.418L69.1655 129.442ZM69.1655 134.965L69.4908 135.291V138.65L69.1416 139V134.941L69.1655 134.965ZM72.2841 126.314L72.3158 126.282V126.314H72.2841ZM73.4189 98.7127V98.5614L75.2916 96.6832L77.2914 98.6888L77.3152 98.7127H73.4189ZM76.0693 95.9032L75.6963 95.5291H80.4338L80.0608 95.9032L78.0611 97.9168L76.0614 95.9111L76.0693 95.9032ZM78.8229 98.7127L78.8467 98.6888L80.8465 96.6832L82.87 98.7127H78.8229ZM81.6241 95.9032L81.2591 95.5291H86.0204L85.6474 95.9032L83.6318 97.9247L81.6162 95.9032H81.6241ZM84.4015 98.7127L86.4251 96.6832L88.4248 98.6888L88.4486 98.7127H84.4015ZM87.2028 95.9032L86.8298 95.5291H91.5673L91.1943 95.9032L89.1946 97.9168L87.1948 95.9111L87.2028 95.9032ZM89.9564 98.7127L89.9802 98.6888L91.9799 96.6832L93.9796 98.6888L94.0034 98.7127H89.9564ZM92.7576 95.9032L92.3846 95.5291H97.1221L96.7491 95.9032L94.7494 97.9168L92.7496 95.9111L92.7576 95.9032ZM95.5112 98.7127L95.535 98.6888L97.5347 96.6832L99.5345 98.6888L99.5583 98.7127H95.5112ZM98.3124 95.9032L97.9394 95.5291H102.677L102.304 95.9032L100.296 97.9168L98.2965 95.9111L98.3124 95.9032ZM101.066 98.7127L101.09 98.6888L103.09 96.6832L105.113 98.7127H101.058H101.066ZM103.867 95.9032L103.494 95.5291H108.256L107.883 95.9032L105.867 97.9247L103.851 95.9032H103.867ZM106.645 98.7127L108.668 96.6832L110.668 98.6888L110.692 98.7127H106.645ZM109.446 95.9032L109.073 95.5291H113.81L113.437 95.9032L111.438 97.9168L109.438 95.9111L109.446 95.9032ZM116.199 98.7127H112.199L112.223 98.6888L114.223 96.6832L116.199 98.6649L116.175 98.6888L116.199 98.7127ZM115.001 95.9032L114.628 95.5291H119.318L118.945 95.9032L116.969 97.8849L114.993 95.9032H115.001ZM117.754 98.7127L117.778 98.6888L117.754 98.6649L119.73 96.6832L121.73 98.6888L121.754 98.7127H117.754ZM120.508 95.9032L120.135 95.5291H124.872L124.499 95.9032L122.5 97.9168L120.5 95.9111L120.508 95.9032ZM123.269 98.7127L123.293 98.6888L125.293 96.6832L127.316 98.7127H123.261H123.269ZM126.063 95.9032L125.698 95.5291H130.459L130.086 95.9032L128.07 97.9247L126.055 95.9032H126.063ZM128.84 98.7127L130.864 96.6832L132.863 98.6888L132.887 98.7127H128.832H128.84ZM131.641 95.9032L131.268 95.5291H136.006L135.633 95.9032L133.633 97.9168L131.633 95.9111L131.641 95.9032ZM134.403 98.7127L134.427 98.6888L136.426 96.6832L138.426 98.6888L138.45 98.7127H134.403ZM137.196 95.9032L136.823 95.5291H141.561L141.188 95.9032L139.188 97.9168L137.188 95.9111L137.196 95.9032ZM139.958 98.7127L139.981 98.6888L141.981 96.6832L143.981 98.6888L144.005 98.7127H139.958ZM142.759 95.9032L142.386 95.5291H147.123L146.75 95.9032L144.751 97.9168L142.751 95.9111L142.759 95.9032ZM145.512 98.7127L145.536 98.6888L147.536 96.6832L149.56 98.7127H145.505H145.512ZM148.314 95.9032L147.941 95.5291H152.702L152.337 95.9032L150.321 97.9247L148.306 95.9032H148.314ZM151.091 98.7127L153.115 96.6832L155.114 98.6888L155.138 98.7127H151.091ZM153.892 95.9032L153.519 95.5291H158.257L157.884 95.9032L155.884 97.9168L153.884 95.9111L153.892 95.9032ZM156.646 98.7127L156.67 98.6888L158.669 96.6832L160.669 98.6888L160.693 98.7127H156.654H156.646ZM159.447 95.9032L159.074 95.5291H163.804L163.431 95.9032L161.431 97.9088L159.431 95.9032H159.447ZM162.201 98.7127L162.225 98.6888L164.224 96.6832L166.224 98.6888L166.248 98.7127H162.201ZM164.994 95.9032L164.621 95.5291H169.359L168.986 95.9032L166.978 97.9168L164.978 95.9111L164.994 95.9032ZM167.748 98.7127L167.771 98.6888L169.771 96.6832L171.795 98.7127H167.748ZM170.549 95.9032L170.176 95.5291H174.937L174.564 95.9032L172.549 97.9247L170.533 95.9032H170.549ZM173.326 98.7127L175.35 96.6832L177.35 98.6888L177.373 98.7127H173.326ZM176.128 95.9032L175.755 95.5291H180.492L180.119 95.9032L178.119 97.9168L176.12 95.9111L176.128 95.9032ZM178.881 98.7127L178.905 98.6888L180.905 96.6832L182.904 98.6888L182.928 98.7127H178.881ZM181.682 95.9032L181.309 95.5291H186.047L185.674 95.9032L183.674 97.9168L181.674 95.9111L181.682 95.9032ZM184.444 98.7127L184.468 98.6888L186.467 96.6832L188.467 98.6888L188.491 98.7127H184.444ZM187.237 95.9032L186.864 95.5291H191.602L191.229 95.9032L189.221 97.9168L187.221 95.9111L187.237 95.9032ZM189.999 98.7127L190.022 98.6888L192.022 96.6832L194.046 98.7127H189.991H189.999ZM192.8 95.9032L192.427 95.5291H197.188L196.823 95.9032L194.808 97.9247L192.792 95.9032H192.8ZM195.569 98.7127L197.593 96.6832L199.593 98.6888L199.616 98.7127H195.569ZM238.492 98.7127H234.437L234.461 98.6888L236.461 96.6832L238.484 98.7127H238.492ZM236.056 95.5291L235.683 95.9032L233.683 97.9168L231.684 95.9111L231.311 95.5371H236.048L236.056 95.5291ZM232.914 98.6888L232.937 98.7127H228.89L228.914 98.6888L230.914 96.6832L232.914 98.6888ZM230.501 95.5291L230.128 95.9032L228.121 97.9168L226.121 95.9111L225.748 95.5371H230.485L230.501 95.5291ZM227.351 98.6888L227.375 98.7127H223.328L223.351 98.6888L225.351 96.6832L227.351 98.6888ZM224.946 95.5291L224.573 95.9032L222.574 97.9168L220.574 95.9111L220.209 95.5371H224.946V95.5291ZM221.796 98.6888L221.82 98.7127H217.773L219.796 96.6832L221.796 98.6888ZM219.392 95.5291L219.019 95.9032L217.003 97.9247L214.987 95.9032L214.614 95.5291H219.376H219.392ZM216.241 98.7127H212.186L212.21 98.6888L214.21 96.6832L216.233 98.7127H216.241ZM213.805 95.5291L213.432 95.9032L211.424 97.9168L209.425 95.9111L209.052 95.5371H213.789L213.805 95.5291ZM210.663 98.6888L210.686 98.7127H206.687L206.711 98.6888L206.687 98.6649L208.663 96.6832L210.663 98.6888ZM208.25 95.5291L207.877 95.9032L205.901 97.8849L203.925 95.9032L203.552 95.5291H208.242H208.25ZM205.132 98.6649L205.108 98.6888L205.132 98.7127H201.132L201.156 98.6888L203.156 96.6832L205.132 98.6649ZM202.378 95.9032L200.378 97.9088L198.379 95.9032L198.006 95.5291H202.743L202.37 95.9032H202.378ZM202.434 94.4308H126.872L74.5298 74.0641L202.434 94.4308ZM121.563 94.4308H75.2837V95.1232L74.506 95.8952L72.5698 97.8372L71.9429 97.2084L69.2527 94.5104L68.0307 73.324L121.563 94.4228V94.4308ZM67.499 100.026L67.4752 100.002L65.9119 98.4341V98.2112H65.8881L65.9119 98.1794L65.658 97.8053L67.499 95.9589V100.026ZM66.1024 73.2683L67.3324 94.5661L65.0231 96.8821L63.1266 94.1124L62.4044 93.046V91.9636H19.1086L66.1024 73.2603V73.2683ZM6.95146 98.2112V95.4655L8.80836 98.1714L8.83217 98.2033H6.95146V98.2112ZM7.57836 94.1204L7.2054 93.5792H11.9429L11.5699 94.1204L9.57016 97.0493L7.57043 94.1284L7.57836 94.1204ZM10.332 98.2112L10.3558 98.1794L12.3555 95.2506L14.3552 98.1714L14.3791 98.2033H10.332V98.2112ZM13.1332 94.1204L12.7602 93.5792H17.4977L17.1247 94.1204L15.125 97.0493L13.1252 94.1284L13.1332 94.1204ZM15.8868 98.2112L15.9106 98.1794L17.9103 95.2506L19.9339 98.2112H15.8868ZM18.688 94.1204L18.315 93.5792H23.0763L22.7033 94.1204L20.6877 97.0652L18.6721 94.1284L18.688 94.1204ZM21.4654 98.2112L23.489 95.2506L25.4887 98.1714L25.5125 98.2033H21.4654V98.2112ZM24.2666 94.1204L23.8937 93.5792H28.6311L28.2582 94.1204L26.2584 97.0493L24.2587 94.1284L24.2666 94.1204ZM31.0276 98.2112H27.0282L27.052 98.1794L29.0517 95.2506L31.0276 98.1396L31.0038 98.1794L31.0276 98.2112ZM29.8215 94.1204L29.4485 93.5792H34.1383L33.7654 94.1204L31.7894 97.0095L29.8135 94.1204H29.8215ZM32.583 98.2112L32.6068 98.1794L32.583 98.1396L34.5589 95.2506L36.5587 98.1714L36.5825 98.2033H32.583V98.2112ZM35.3287 94.1204L34.9557 93.5792H39.6932L39.3202 94.1204L37.3205 97.0493L35.3207 94.1284L35.3287 94.1204ZM38.0823 98.2112L38.1061 98.1794L40.1058 95.2506L42.1293 98.2112H38.0743H38.0823ZM40.8914 94.1204L40.5185 93.5792H45.2797L44.9068 94.1204L42.8912 97.0652L40.8835 94.1284L40.8914 94.1204ZM43.6609 98.2112L45.6844 95.2506L47.6842 98.1714L47.708 98.2033H43.653L43.6609 98.2112ZM46.4621 94.1204L46.0891 93.5792H50.8266L50.4536 94.1204L48.4539 97.0493L46.4542 94.1284L46.4621 94.1204ZM49.2236 98.2112L49.2475 98.1794L51.2472 95.2506L53.2469 98.1714L53.2707 98.2033H49.2236V98.2112ZM52.0249 94.1204L51.6519 93.5792H56.3894L56.0164 94.1204L54.0167 97.0493L52.0169 94.1284L52.0249 94.1204ZM54.7785 98.2112L54.8023 98.1794L56.802 95.2506L58.8017 98.1714L58.8256 98.2033H54.7785V98.2112ZM57.5797 94.1204L57.2067 93.5792H61.9442L61.5712 94.1204L59.5715 97.0493L57.5718 94.1284L57.5797 94.1204ZM60.3333 98.2112L60.3571 98.1794L62.3568 95.2506L64.1026 97.8053L63.9677 97.9406H63.2297V98.2112H60.3333ZM64.3248 137.377L64.6978 137.751L66.515 139.565H64.3248V137.377Z" fill="#FF3366"/>
<path d="M285.887 143H205V320H224.806H285.887H290V151.269H285.887V143Z" fill="#FF3366"/>
<path d="M411.17 116H294V320H372.608H411.17H439V151.356H411.17V116Z" fill="#FF3366"/>
</g>
</svg>
